<svg xmlns="http://www.w3.org/2000/svg" width="48" height="48" viewBox="0 0 48 48" fill="none">
<rect width="48" height="48" rx="24" fill="#101112"/>
<path d="M34.6497 26.8187C34.1397 27.1257 33.5446 27.1815 33.0912 26.9303C32.5245 26.5954 32.1844 25.842 32.1844 24.8094V21.6559C32.1844 20.1489 31.5894 19.0606 30.5692 18.7815C28.8407 18.2792 27.5372 20.3722 27.0555 21.1536L23.9951 25.9815V20.0373C23.9668 18.6699 23.5134 17.8606 22.6633 17.6094C22.0965 17.442 21.2464 17.5257 20.4247 18.7536L13.5955 29.5257C12.6887 27.8233 12.207 25.9257 12.207 24.0001C12.207 17.4978 17.506 12.2234 23.9951 12.2234C30.4842 12.2234 35.7832 17.4978 35.7832 24.0001V24.028V24.0559C35.8399 25.3117 35.4432 26.3164 34.6497 26.8187ZM38.3902 24.0001V23.9722V23.9443C38.3619 16.0466 31.9011 9.6001 23.9951 9.6001C16.0608 9.6001 9.59998 16.0466 9.59998 24.0001C9.59998 31.9257 16.0608 38.4001 23.9951 38.4001C27.6505 38.4001 31.1076 37.0326 33.7713 34.5489C34.3097 34.0466 34.338 33.2373 33.828 32.7071C33.3463 32.1768 32.5245 32.1489 31.9861 32.6234C31.9861 32.6234 31.9861 32.6234 31.9577 32.6513C29.8041 34.6606 26.9138 35.8047 23.9384 35.8047C20.453 35.8047 17.3359 34.2978 15.1823 31.8978L21.3314 22.1861V26.6792C21.3314 28.828 22.1815 29.5257 22.89 29.721C23.5984 29.9164 24.6752 29.7768 25.837 27.9629L29.2091 22.5768C29.3224 22.4094 29.4074 22.242 29.5208 22.1303V24.8652C29.5208 26.8745 30.3425 28.4931 31.7594 29.2745C33.0345 30.0001 34.6498 29.9164 35.9816 29.1071C37.6251 28.0466 38.5036 26.2047 38.3902 24.0001Z" fill="white"/>
</svg>