<svg xmlns="http://www.w3.org/2000/svg" width="48" height="48" viewBox="0 0 48 48" fill="none">
  <rect width="48" height="48" rx="24" fill="white"/>
  <path d="M38.3999 23.9386C38.4181 29.7647 34.9494 35.0282 29.5738 37.2788C24.1982 39.5294 18.0054 38.3315 13.8648 34.2296C9.72411 30.1277 8.47102 23.9386 10.6685 18.5481C12.8659 13.1575 18.1144 9.63644 23.9258 9.60014C31.8984 9.58199 38.3636 15.9889 38.3999 23.9386Z" fill="#101112"/>
  <path d="M37.1999 23.9265C37.2187 29.2744 33.8896 34.1 28.7361 36.1708C23.5826 38.2415 17.658 37.1251 13.6894 33.3798C9.72087 29.6165 8.51713 23.9445 10.6237 19.0108C12.7302 14.0591 17.752 10.836 23.3193 10.8C30.9555 10.764 37.1623 16.634 37.1999 23.9265Z" fill="white"/>
  <path d="M24 10.9067C24.8271 10.7642 25.6543 10.7642 26.4814 10.9067C27.3086 11.0314 28.1181 11.3164 28.8573 11.7083C29.5964 12.118 30.23 12.6703 30.8636 13.1868C31.4971 13.7034 32.1307 14.2379 32.729 14.8257C33.345 15.3958 33.873 16.0549 34.3129 16.7674C34.7705 17.48 35.1401 18.246 35.4217 19.0298C35.9672 20.633 36.1432 22.3609 35.8792 23.9998H35.7912C35.5273 22.3609 35.1577 20.8111 34.5769 19.3326C34.3129 18.5844 33.9786 17.8541 33.6266 17.1593C33.2394 16.4646 32.8346 15.7698 32.3771 15.1285C31.9195 14.4694 31.3387 13.8816 30.6876 13.4006C30.0364 12.9196 29.2797 12.6168 28.5581 12.3318C27.8366 12.0468 27.0974 11.7439 26.3406 11.5124C25.5839 11.2986 24.8095 11.1205 24 10.9601V10.9067Z" fill="white"/>
  <path d="M30.6254 19.3652C29.6045 19.0974 28.5452 18.7046 27.4666 18.3118C27.4088 18.0619 27.1584 17.7584 26.6769 17.3656C25.9835 16.7942 24.6545 16.8121 23.5181 17.0621C22.2661 16.7942 21.0141 16.6871 19.82 16.9549C10.0546 19.4545 15.5825 25.5249 12 31.6489C12.5008 32.6487 18.0094 38.5048 25.9642 36.9337C25.9642 36.9337 23.2484 30.8811 29.3927 27.9709C34.3813 25.6142 37.9638 21.2221 30.6254 19.3652Z" fill="#101112"/>
  <path d="M31.2 23.4137C31.2 23.9284 30.6192 24.1952 30.2849 23.8331C29.9505 23.4709 30.1793 22.8418 30.6544 22.8228C30.9536 22.8418 31.2 23.0896 31.2 23.4137ZM24.2132 20.7259C24.2132 21.8125 23.5972 22.8037 22.6644 23.2231C21.7317 23.6424 20.6581 23.4137 19.9366 22.6321C19.215 21.8506 19.0038 20.6878 19.391 19.6775C19.7782 18.6672 20.6933 18 21.6965 18C22.3653 18 22.9988 18.2859 23.4564 18.7816C23.9492 19.3153 24.2132 20.0015 24.2132 20.7259Z" fill="white"/>
  <path d="M24 21.0145C24 21.733 23.4252 22.3977 22.515 22.6671C21.6288 22.9366 20.5989 22.7929 19.9044 22.2719C19.2098 21.751 19.0182 20.9965 19.3774 20.3139C19.7367 19.6493 20.6229 19.2002 21.5809 19.2002C22.9222 19.2182 24 20.0265 24 21.0145Z" fill="#101112"/>
  <path d="M33.6 25.0527C31.4456 26.4279 28.9915 27.4636 25.5258 27.4636C23.8959 27.4636 23.5774 25.9016 22.4909 26.6656C21.9289 27.0561 19.9806 27.939 18.4257 27.888C16.8708 27.8201 14.3605 26.9882 13.6673 24C13.3863 27.0052 13.2552 29.2124 12 31.7421C14.4729 35.3416 20.374 38.109 25.7318 36.9205C25.1511 33.2702 28.673 29.7047 30.6401 27.888C31.4082 27.175 32.8507 26.0544 33.6 25.0527Z" fill="#101112"/>
  <path d="M33.5821 24C32.9373 24.5426 32.1851 24.9372 31.4149 25.2825C30.6269 25.6278 29.8209 25.8909 28.9791 26.1046C28.1373 26.3019 27.2597 26.4499 26.3821 26.3842C25.4866 26.3184 24.591 26.0389 24 25.4305L24.0358 25.3976C24.7522 25.8251 25.594 25.9731 26.4179 26.006C27.2597 26.0224 28.1015 25.9731 28.9254 25.8251C29.7493 25.6607 30.5731 25.4305 31.3612 25.1345C32.1493 24.8386 32.9194 24.4933 33.6 24H33.5821Z" fill="white"/>
</svg>