<svg xmlns="http://www.w3.org/2000/svg" width="48" height="48" viewBox="0 0 48 48" fill="none">
  <rect width="48" height="48" rx="24" fill="white"/>
  <path fill-rule="evenodd" clip-rule="evenodd" d="M24.0262 13.3108L16.2293 15.7794C16.1597 15.7969 16.0901 15.7969 16.0553 15.7794C15.9682 15.7794 15.8986 15.7619 15.8464 15.7269C15.7768 15.6919 15.7072 15.6393 15.6724 15.5868C15.6376 15.5343 15.6028 15.4643 15.5854 15.3942C15.5679 15.3242 15.5679 15.2542 15.5679 15.1841C15.5679 15.1141 15.5854 15.0441 15.6202 14.974C15.6376 14.904 15.6898 14.8515 15.742 14.799C15.76 14.7899 15.7768 14.7809 15.7931 14.7721C15.8397 14.747 15.8818 14.7244 15.9334 14.7114L23.8696 12.1903C23.974 12.1553 24.0784 12.1553 24.1829 12.1903L32.3105 14.7815C32.3801 14.7815 32.4497 14.8165 32.5019 14.869C32.5541 14.9215 32.589 14.974 32.6238 15.0441C32.6586 15.1141 32.676 15.1841 32.676 15.2542C32.676 15.3242 32.676 15.3942 32.6586 15.4643C32.6586 15.5343 32.6238 15.6043 32.5715 15.6568C32.5193 15.7269 32.4671 15.7619 32.3975 15.7969C32.3279 15.8319 32.2583 15.8494 32.1887 15.8494H32.1886C32.119 15.8494 32.0494 15.8494 31.9798 15.8319L24.0262 13.3108ZM31.301 25.9161L34.8934 18.1536C34.9328 18.6596 34.9492 19.1682 34.9383 19.6837C34.9383 21.487 34.7295 23.2727 34.3118 25.0235C33.7549 27.387 32.7802 29.6455 31.4401 31.6764C30.0396 33.766 28.0699 35.8127 25.2994 37.5576L31.2836 25.9336L31.301 25.9161ZM13.1058 17.9977L22.7891 37.6317C19.9628 35.8967 17.9608 33.8086 16.5424 31.6764C15.1849 29.6455 14.2277 27.4045 13.6708 25.0235C13.2531 23.2727 13.0442 21.487 13.0442 19.6837C13.0442 19.1262 13.0609 18.5604 13.1058 17.9977ZM35.5224 15.8517C35.5651 15.8853 35.6057 15.9287 35.6345 15.9721C35.6693 16.0421 35.6867 16.1121 35.7041 16.1821L35.7041 16.1821L35.8433 17.0575C35.9478 17.9329 36 18.8083 36 19.6837C36 21.5745 35.7911 23.4478 35.356 25.2861C34.7817 27.7722 33.7549 30.1532 32.3277 32.2892C30.6918 34.7227 28.3074 37.1213 24.9137 39.0296L24.2697 39.3973C24.1827 39.4323 24.0957 39.4498 24.0087 39.4498C23.9217 39.4498 23.8346 39.4323 23.7476 39.3973L23.1037 39.0296C19.6925 37.1388 17.3256 34.7402 15.6896 32.2892C14.9761 31.2212 14.3669 30.1007 13.8622 28.9277C13.3575 27.7547 12.9572 26.5292 12.6613 25.2861C12.2263 23.4478 12 21.5745 12 19.6837C12 18.8083 12.0522 17.9329 12.1566 17.075L12.2959 16.1997C12.3133 16.1296 12.3307 16.0596 12.3655 15.9896C12.3687 15.9847 12.3721 15.9798 12.3757 15.9749C12.3889 15.9483 12.4033 15.9235 12.4177 15.9017C12.4525 15.8492 12.5222 15.7967 12.5744 15.7617C12.644 15.7266 12.7136 15.7091 12.7832 15.7091C12.8528 15.6916 12.9225 15.6916 12.9921 15.7266C13.0617 15.7441 13.1313 15.7792 13.1835 15.8317C13.2009 15.8579 13.2226 15.8886 13.2444 15.9192L13.2444 15.9192C13.2662 15.9499 13.2879 15.9805 13.3053 16.0068L17.9935 25.5311H30.1523C30.1873 25.5311 30.2224 25.5356 30.2574 25.5422L30.3263 25.4084L34.6773 16.0068C34.6947 15.9367 34.7469 15.8842 34.7991 15.8317C34.8514 15.7792 34.921 15.7441 34.9906 15.7266C35.0602 15.7091 35.1298 15.7091 35.1994 15.7091C35.2865 15.7091 35.3561 15.7266 35.4083 15.7617C35.4437 15.7854 35.4872 15.8173 35.5224 15.8517ZM29.7044 26.6166H18.5278L23.9913 37.7163L29.7044 26.6166Z" fill="#101112"/>
</svg>