<svg xmlns="http://www.w3.org/2000/svg" width="24" height="24" viewBox="0 0 24 24" fill="none">
<path fill-rule="evenodd" clip-rule="evenodd" d="M18.9309 5.64356C17.6562 5.05866 16.2892 4.62773 14.86 4.38092C14.8339 4.37615 14.8079 4.38806 14.7945 4.41187C14.6187 4.72455 14.424 5.13246 14.2876 5.45308C12.7504 5.22294 11.221 5.22294 9.71533 5.45308C9.57893 5.12533 9.37713 4.72455 9.20054 4.41187C9.18713 4.38885 9.16113 4.37695 9.1351 4.38092C7.70665 4.62694 6.33969 5.05787 5.06417 5.64356C5.05313 5.64832 5.04367 5.65626 5.03738 5.66657C2.44455 9.54021 1.73427 13.3186 2.08271 17.0502C2.08429 17.0685 2.09454 17.0859 2.10873 17.097C3.8194 18.3533 5.47648 19.116 7.10279 19.6215C7.12882 19.6294 7.1564 19.6199 7.17296 19.5985C7.55767 19.0731 7.9006 18.5192 8.19462 17.9367C8.21198 17.9025 8.19541 17.8621 8.15995 17.8486C7.616 17.6422 7.09806 17.3907 6.59984 17.105C6.56043 17.082 6.55727 17.0256 6.59353 16.9986C6.69837 16.92 6.80324 16.8383 6.90336 16.7558C6.92147 16.7407 6.94671 16.7375 6.968 16.747C10.2411 18.2414 13.7847 18.2414 17.0192 16.747C17.0405 16.7367 17.0657 16.7399 17.0846 16.755C17.1848 16.8375 17.2896 16.92 17.3952 16.9986C17.4315 17.0256 17.4291 17.082 17.3897 17.105C16.8915 17.3962 16.3736 17.6422 15.8288 17.8478C15.7934 17.8613 15.7776 17.9025 15.7949 17.9367C16.0953 18.5184 16.4382 19.0723 16.8158 19.5977C16.8316 19.6199 16.8599 19.6294 16.886 19.6215C18.5202 19.116 20.1772 18.3533 21.8879 17.097C21.9029 17.0859 21.9124 17.0693 21.9139 17.051C22.331 12.7369 21.2155 8.98945 18.9569 5.66736C18.9514 5.65626 18.9419 5.64832 18.9309 5.64356ZM8.68341 14.7781C7.69798 14.7781 6.886 13.8734 6.886 12.7623C6.886 11.6512 7.68223 10.7465 8.68341 10.7465C9.69246 10.7465 10.4966 11.6592 10.4808 12.7623C10.4808 13.8734 9.68457 14.7781 8.68341 14.7781ZM13.5316 12.7623C13.5316 13.8734 14.3436 14.7781 15.329 14.7781C16.3381 14.7781 17.1264 13.8734 17.1264 12.7623C17.1422 11.6592 16.3381 10.7465 15.329 10.7465C14.3278 10.7465 13.5316 11.6512 13.5316 12.7623Z" fill="white"/>
</svg>