<svg xmlns="http://www.w3.org/2000/svg" width="48" height="48" viewBox="0 0 48 48" fill="none">
  <rect width="48" height="48" rx="24" fill="#101112"/>
  <path fill-rule="evenodd" clip-rule="evenodd" d="M11.1852 9.97716C14.7344 14.2133 20.2029 20.7996 20.4771 21.1589C20.7056 21.4583 20.6142 21.7427 20.2333 21.9522C20.0201 22.072 19.5783 22.1917 19.3651 22.1917C19.1214 22.1917 18.832 22.072 18.6339 21.8774C18.4968 21.7427 17.9028 20.8894 16.5623 18.8387C15.5417 17.267 14.6735 15.9647 14.6582 15.9497C14.5973 15.9198 14.5973 15.9198 16.4557 19.183C17.6286 21.2337 18.0094 21.9672 18.0094 22.057C18.0094 22.2516 17.9485 22.3564 17.7047 22.6258C17.2935 23.0749 17.1107 23.5838 16.9736 24.6466C16.8213 25.8292 16.41 26.6674 15.2371 28.0894C14.5516 28.9277 14.445 29.0774 14.2774 29.4217C14.0642 29.8408 14.0032 30.0803 13.9728 30.6192C13.9423 31.188 14.0032 31.5472 14.1708 32.0861C14.3231 32.5651 14.4907 32.8795 14.902 33.4932C15.2523 34.0321 15.4656 34.4362 15.4656 34.5859C15.4656 34.7057 15.496 34.7057 16.0444 34.5859C17.3544 34.2865 18.4359 33.7776 19.03 33.1489C19.3956 32.7597 19.487 32.5502 19.487 32.0113C19.487 31.667 19.4717 31.5922 19.3803 31.3826C19.228 31.0533 18.9386 30.7838 18.314 30.3647C17.4915 29.8109 17.1411 29.3618 17.0497 28.763C16.9736 28.2541 17.065 27.9098 17.522 26.9668C17.9942 25.9938 18.116 25.5896 18.1922 24.6017C18.2379 23.973 18.314 23.7185 18.4968 23.524C18.6949 23.3144 18.8624 23.2395 19.3346 23.1797C20.1115 23.0749 20.6142 22.8803 21.0102 22.5061C21.3606 22.1917 21.5129 21.8774 21.5281 21.4133L21.5433 21.0691L21.3453 20.8595C20.6294 20.0512 10.713 9.3335 10.6673 9.3335C10.658 9.3335 10.7453 9.43962 10.8807 9.6041L10.8807 9.60411C10.9669 9.70889 11.0726 9.83736 11.1852 9.97716ZM15.8616 31.2628C16.0292 30.9784 15.9378 30.6192 15.6636 30.4396C15.4046 30.2749 15.0086 30.3497 15.0086 30.5743C15.0086 30.6341 15.039 30.694 15.1304 30.724C15.2675 30.7988 15.2828 30.8736 15.1761 31.0383C15.0695 31.203 15.0695 31.3526 15.2066 31.4574C15.4199 31.6221 15.7093 31.5323 15.8616 31.2628ZM20.7212 15.9348C20.4013 15.8899 20.3861 15.8749 20.5384 15.8599C20.8278 15.815 21.498 15.8749 21.9703 15.9797C23.067 16.2342 24.0571 16.8928 25.1082 18.0454L25.3823 18.3597L25.7784 18.2999C27.4692 18.0304 29.2057 18.24 30.6528 18.8986C31.0489 19.0782 31.6734 19.4375 31.7496 19.5273C31.78 19.5572 31.8257 19.7518 31.8562 19.9464C31.9628 20.65 31.9171 21.1739 31.6886 21.578C31.5668 21.8026 31.5668 21.8624 31.6429 22.057C31.7039 22.2067 31.8866 22.3115 32.0542 22.3115C32.4198 22.3115 32.8006 21.7427 32.9834 20.9493L33.0596 20.635L33.1966 20.7847C33.9735 21.6379 34.5828 22.8204 34.6742 23.6587L34.7047 23.8832L34.5676 23.6886C34.3391 23.3443 34.1258 23.1198 33.8364 22.9252C33.3185 22.5809 32.7701 22.4762 31.323 22.4013C30.013 22.3265 29.2666 22.2217 28.5355 21.9822C27.2864 21.578 26.6466 21.0541 25.1691 19.1231C24.5141 18.2699 24.1028 17.8059 23.6915 17.4167C22.7928 16.5635 21.8941 16.1144 20.7212 15.9348ZM32.0691 17.8356C32.0996 17.2668 32.1758 16.8926 32.3433 16.5483C32.4042 16.4136 32.4652 16.2938 32.4804 16.2938C32.4956 16.2938 32.4652 16.3986 32.4195 16.5184C32.2976 16.8477 32.2824 17.3117 32.3585 17.8356C32.4652 18.5092 32.5109 18.599 33.242 19.3325C33.5771 19.6768 33.9732 20.1109 34.1255 20.2905L34.3845 20.6198L34.1255 20.3803C33.8056 20.0809 33.0745 19.5121 32.9069 19.4373C32.8003 19.3774 32.7851 19.3774 32.7089 19.4522C32.648 19.5121 32.6327 19.6019 32.6327 20.036C32.6175 20.7096 32.5261 21.1288 32.2976 21.5629C32.1758 21.7874 32.1605 21.7425 32.2671 21.488C32.3433 21.2934 32.3585 21.2036 32.3585 20.5599C32.3585 19.2577 32.2062 18.9433 31.277 18.4194C31.0485 18.2847 30.6525 18.0901 30.424 17.9853C30.1803 17.8805 29.9975 17.7907 30.0127 17.7907C30.0432 17.7608 30.9419 18.0152 31.2923 18.1649C31.8254 18.3745 31.9168 18.3895 31.9777 18.3745C32.0234 18.3296 32.0539 18.2098 32.0691 17.8356ZM20.3858 16.8477C20.2945 17.8506 20.7057 19.1978 21.3455 20.066C21.8482 20.7396 22.625 21.2635 23.2039 21.3234C23.5847 21.3533 23.6913 21.2335 23.5238 20.994C23.28 20.6647 22.9906 20.1408 22.9144 19.9163C22.8688 19.7816 22.7621 19.3624 22.686 19.0032C22.427 17.7757 22.1528 17.2818 21.5435 16.9225C21.315 16.7878 20.8428 16.6082 20.5686 16.5633L20.4163 16.5333L20.3858 16.8477ZM31.2927 26.5777C28.2767 25.3802 27.2104 24.3473 27.2104 22.596C27.2104 22.3415 27.2256 22.132 27.2256 22.132C27.2358 22.132 27.2865 22.1718 27.3598 22.2295L27.3598 22.2295L27.3599 22.2295C27.3965 22.2584 27.4389 22.2916 27.4846 22.3266C28.0939 22.8056 28.7793 23.0151 30.6834 23.2846C31.7954 23.4492 32.4351 23.569 33.014 23.7636C34.8571 24.3623 35.9996 25.5898 36.2737 27.2513C36.3499 27.7303 36.3042 28.6434 36.1823 29.1224C36.0757 29.4966 35.7711 30.1852 35.6949 30.2002C35.6797 30.2002 35.6492 30.1253 35.6492 30.0056C35.6187 29.3769 35.2989 28.7781 34.7657 28.3141C34.126 27.7752 33.3034 27.371 31.2927 26.5777ZM29.0073 26.4427C29.053 26.5624 29.1291 26.8468 29.1596 27.0714C29.4033 28.4784 28.6569 29.631 27.1489 30.0951C26.9966 30.1549 26.3873 30.2747 25.7932 30.3645C24.5898 30.5741 24.0415 30.7088 23.5083 30.9633C23.1275 31.1429 22.6553 31.4123 22.6858 31.4423C22.701 31.4572 22.7924 31.4273 22.8838 31.3974C23.5693 31.1579 24.3309 31.0381 25.4733 30.9782C25.8559 30.9532 26.2811 30.9176 26.5167 30.8979L26.631 30.8884C27.6516 30.7537 28.3675 30.4543 28.9159 29.9005C29.2205 29.5861 29.4033 29.3017 29.5557 28.8976C29.6471 28.6431 29.6623 28.5383 29.6623 28.0892C29.6623 27.6252 29.6623 27.5354 29.5557 27.251C29.4186 26.8768 29.2662 26.6073 29.0682 26.3828L28.9311 26.2181L29.0073 26.4427ZM30.5458 29.482C30.1497 28.6288 30.0583 27.8204 30.2716 27.057C30.302 26.9822 30.3325 26.9073 30.363 26.9073C30.3934 26.9073 30.4848 26.9523 30.5762 27.0121C30.759 27.1319 31.1398 27.3414 32.1147 27.8654C33.3485 28.524 34.0492 29.0329 34.5367 29.6167C34.9632 30.1256 35.2221 30.7094 35.344 31.4279C35.4202 31.8321 35.3745 32.8051 35.2678 33.2092C34.9327 34.4816 34.1711 35.4995 33.0591 36.0832C32.8916 36.1731 32.7545 36.2329 32.7392 36.2329C32.724 36.2329 32.7849 36.0832 32.8763 35.9036C33.2419 35.1402 33.2876 34.4067 33.0134 33.5834C32.8459 33.0745 32.4955 32.4608 31.7948 31.4279C30.957 30.2304 30.759 29.9161 30.5458 29.482ZM22.9905 32.2658C21.711 32.4754 20.3248 33.134 19.1976 34.0621L18.8777 34.3615L19.1672 34.4064C20.6904 34.6309 21.1017 34.8405 22.168 35.9182C22.7773 36.5319 22.9905 36.6667 23.4932 36.8014C24.2396 36.996 24.9708 36.6517 25.2297 35.9931C25.3363 35.6937 25.3211 35.2147 25.1993 34.9752C24.8946 34.3914 23.9959 34.2118 23.5694 34.6309C23.219 34.9752 23.3257 35.5141 23.7674 35.6039C23.8588 35.6188 23.8588 35.6188 23.7369 35.559C23.5389 35.4691 23.4475 35.3494 23.4475 35.1548C23.4323 34.6908 23.9654 34.4513 24.4529 34.6608C24.8184 34.8255 24.9555 35.0351 24.9555 35.3943C24.9555 35.9482 24.4681 36.3822 23.9045 36.3074C23.5998 36.2625 23.2343 36.0829 23.0362 35.8583C22.5488 35.3195 22.7316 34.4363 23.4323 34.107C23.9654 33.8525 24.6661 33.9274 25.2145 34.2716C25.839 34.6758 26.1132 35.0351 26.6463 36.2475C26.8291 36.6517 27.0424 37.0858 27.149 37.2355C27.6517 37.9839 28.2762 38.3581 29.0074 38.3581C29.4187 38.3581 29.7233 38.2983 30.1041 38.1037C30.3783 37.9689 30.7896 37.6995 30.7591 37.6696C30.7591 37.6578 30.6835 37.6831 30.5843 37.7164L30.5843 37.7164L30.5843 37.7164L30.5842 37.7164C30.5576 37.7254 30.5292 37.7349 30.5002 37.7444C29.6929 38.0438 28.8703 38.0288 28.3981 37.6845C28.0934 37.46 27.8497 37.0409 27.7279 36.502L27.7129 36.4166C27.684 36.2522 27.6248 35.9157 27.5755 35.5889C27.408 34.556 27.2404 34.092 26.8748 33.5531C26.494 32.9993 25.7629 32.5502 24.9555 32.3407C24.4529 32.2059 23.5389 32.176 22.9905 32.2658ZM21.2082 24.2723C21.3149 23.8831 21.6652 23.4939 22.0308 23.3891C22.2745 23.3143 22.7467 23.3592 22.9752 23.4789C23.417 23.7035 23.7368 24.1974 23.6607 24.5567C23.5845 24.9908 22.8686 25.35 22.0308 25.35C21.6043 25.35 21.452 25.2902 21.2844 25.0806C21.1778 24.9459 21.1473 24.5118 21.2082 24.2723ZM22.8534 23.6286C23.0818 23.7634 23.1275 23.9579 23.0057 24.1376C22.9143 24.2573 22.6401 24.3771 22.4421 24.3771C22.1374 24.3771 21.8175 24.1675 21.8175 23.9729C21.8175 23.5837 22.4421 23.3742 22.8534 23.6286Z" fill="white"/>
</svg>