<svg xmlns="http://www.w3.org/2000/svg" width="48" height="48" viewBox="0 0 48 48" fill="none">
  <rect width="48" height="48" rx="24" fill="#101112"/>
  <path d="M15.6157 26.1673L16.4624 19.9485L9.11816 14.9647L15.8285 17.1866L17.4133 14.8098L23.1999 11.2998L35.955 18.1692L36.6161 28.6504L30.9335 36.3696L26.4419 37.0424L28.7647 32.8862V28.885L27.0758 25.7601L25.3597 24.6491L22.72 27.3093V30.1243L20.6598 32.0099L18.0426 32.3197L16.8835 32.9615L14.9818 32.3684L14.1894 29.5799L15.6157 27.6191V26.1673Z" fill="#101112"/>
  <path d="M27.3426 14.9114C25.9435 14.6281 24.4131 14.7034 24.4131 14.7034C24.4131 14.7034 23.9105 16.974 20.7953 17.5716C20.8179 17.5716 24.9111 18.9392 27.3426 14.9114Z" fill="#101112"/>
  <path d="M28.6106 35.5153C30.2995 34.2228 31.5673 32.4435 32.1514 30.4296C32.1786 30.3544 32.4141 30.2216 32.5725 30.1198C32.8352 29.9649 33.1023 29.8365 33.1521 29.6285C33.2562 29.0354 33.3106 28.4157 33.3106 27.796C33.3106 27.5659 33.0706 27.3313 32.8352 27.1011C32.6495 26.9462 32.4639 26.7647 32.4639 26.6364C32.2013 24.2861 31.0919 22.0907 29.3215 20.4929L29.1359 20.6743C30.8519 22.25 31.9613 24.3923 32.2013 26.6629C32.2284 26.871 32.4367 27.0746 32.6495 27.2826C32.8352 27.4375 33.048 27.6721 33.048 27.7739C33.048 28.367 32.9936 28.9601 32.8895 29.5532C32.8623 29.655 32.6269 29.7613 32.4412 29.8631C32.1786 29.9914 31.9386 30.1198 31.8888 30.3278C31.2549 32.5232 29.8015 34.4353 27.8726 35.6746C28.2167 34.9531 29.2989 32.6029 29.8784 31.4122L29.7743 27.5924L26.4191 24.4189L24.5174 24.6756L22.4301 27.9819C22.4301 27.9819 23.4081 29.1947 22.0316 30.6155C20.6868 32.0097 19.6273 32.3196 19.6273 32.3196L18.6493 31.8017C18.9391 31.4388 19.5232 30.8988 19.9714 30.5358C20.7366 29.9162 21.5018 29.8631 21.5018 29.1947C21.5335 27.796 19.9986 28.1811 19.9986 28.1811L19.4417 28.699L19.2062 30.6111L18.0471 32.0319L17.9158 32.0053L16.014 31.5937C16.014 31.5937 17.1777 31.0006 17.3633 30.3278C17.549 29.6816 16.9921 27.5393 16.9649 27.411C16.9921 27.4375 17.5218 27.8757 17.7573 28.5972C18.1784 27.4596 18.7353 26.3752 18.8938 26.2734C19.0523 26.1716 21.1894 25.0607 21.1894 25.0607L20.4785 26.8931L21.0083 26.6098L22.2761 23.5646C22.2761 23.5646 23.5168 22.9715 24.4404 22.9715C26.1022 22.9449 28.5608 20.9576 27.4515 17.3945C27.7684 17.5229 33.2608 20.2096 34.2116 25.4767C34.9225 29.5267 32.5725 33.3199 28.6106 35.5153Z" fill="#101112"/>
  <path d="M22.3261 15.4777C22.9328 14.7784 22.6974 13.7471 22.6974 13.7471L20.927 16.3054C20.8998 16.3054 21.5563 16.332 22.3261 15.4777Z" fill="white"/>
  <path d="M16.3806 29.4473L16.5934 28.416C16.5934 28.416 15.7195 29.9121 15.6425 30.1201C15.561 30.3547 15.6969 30.7663 16.0364 30.7398C16.3806 30.7132 16.8017 30.2219 16.8017 29.8634C16.8017 29.3986 16.3806 29.4473 16.3806 29.4473Z" fill="white"/>
  <path d="M32.0701 13.0259C32.0701 13.0259 33.3922 13.079 34.7642 13.2339C31.6716 10.8571 28.7421 10.1622 26.365 10.1622C23.0913 10.1622 20.8726 11.4812 20.7368 11.5564L21.7691 9.95412C21.7691 9.95412 17.6488 9.56462 16.1953 13.827C15.824 12.9241 15.4844 11.6051 15.4844 11.6051C15.4844 11.6051 13.3427 13.4419 14.3479 16.4872C11.8893 15.6108 8.38017 14.3936 8.24433 14.3714C8.05869 14.3449 8.00435 14.4246 8.00435 14.4246C8.00435 14.4246 7.95002 14.4998 8.10849 14.6326C8.40281 14.8583 13.9495 18.864 15.1675 19.6386C14.9049 20.5681 14.9049 21.0063 15.1675 21.4445C15.5388 22.0376 15.5614 22.3474 15.5116 22.7856C15.4573 23.2238 14.9818 27.0214 14.8777 27.4862C14.7735 27.9509 13.6642 29.6019 13.714 30.0932C13.7684 30.5845 14.4521 32.6737 15.0633 32.9082C15.5116 33.0632 16.6209 33.3996 17.359 33.3996C17.6216 33.3996 17.8616 33.3464 17.9657 33.2446C18.414 32.8596 18.5453 32.7799 18.8622 32.7799C18.8894 32.7799 18.9166 32.7799 18.9392 32.7799C19.0705 32.7799 19.229 32.8064 19.4146 32.8064C19.8357 32.8064 20.3927 32.7268 20.7866 32.3683C21.3662 31.8017 22.3714 31.0271 22.6883 30.6642C23.0868 30.1729 23.295 29.5045 23.1909 28.8317C23.1094 28.2121 23.4535 27.6677 23.852 27.1277C24.3546 26.4814 25.2783 25.3218 25.2783 25.3218C27.103 26.6585 28.2395 28.699 28.2395 30.9696C28.2395 34.9974 24.6489 38.2506 20.2115 38.2506C19.5233 38.2506 18.8668 38.1754 18.2057 38.0205C20.2387 38.7154 21.9548 38.95 23.3584 38.95C26.3423 38.95 27.9271 37.8921 27.9271 37.8921C27.9271 37.8921 27.3747 38.5915 26.4736 39.3882C26.5008 39.3882 26.5008 39.3882 26.5008 39.3882C31.4407 38.7154 33.845 34.7407 33.845 34.7407C33.845 34.7407 33.6594 36.0331 33.4239 36.9095C39.9939 32.0806 38.8846 26.0388 38.8574 25.8352C38.9117 25.9105 39.5728 26.6851 39.9124 27.1011C40.9719 16.4606 32.0701 13.0259 32.0701 13.0259ZM21.9548 30.018C21.8506 30.1463 21.4024 30.5358 21.0854 30.8191C20.7685 31.1024 20.4244 31.3856 20.1617 31.6468C20.0576 31.7486 19.8448 31.8017 19.5278 31.8017C19.4237 31.8017 19.315 31.8017 19.2381 31.8017C19.1837 31.8017 19.1339 31.8017 19.0796 31.8017C19.0252 31.8017 18.9981 31.8017 18.9754 31.8017C18.8939 31.8017 18.817 31.8017 18.7355 31.8017C19.1339 31.2838 20.293 30.0976 20.6915 29.8409C21.1669 29.5311 21.4069 29.2212 21.1126 28.6813C20.8228 28.1368 20.0576 28.2696 20.0576 28.2696C20.0576 28.2696 20.5059 28.0881 20.9043 28.0881C20.4017 27.9598 19.7678 28.0881 19.478 28.3714C19.1611 28.6547 19.2154 29.6639 19.0841 30.3057C18.9528 30.9784 18.5045 31.3148 17.8163 31.9345C17.445 32.2709 17.1824 32.3727 16.9696 32.3727C16.5213 32.2974 15.9916 32.1646 15.6203 32.0363C15.3576 31.6999 14.9592 30.5889 14.8551 30.1242C14.932 29.8675 15.249 29.323 15.4075 29.0132C15.7244 28.4201 15.91 28.0837 15.9644 27.7739C16.0685 27.3357 16.4126 24.6225 16.544 23.4894C16.8881 23.9275 17.3635 24.6534 17.2548 25.1182C18.02 24.0603 17.4676 23.0246 17.2005 22.613C16.965 22.2013 16.6481 21.3736 16.9107 20.4973C17.1733 19.6209 18.1242 17.1909 18.1242 17.1909C18.1242 17.1909 18.4411 17.7353 18.8894 17.6291C19.3377 17.5273 22.9554 12.207 22.9554 12.207C22.9554 12.207 23.9335 14.2962 22.9011 15.8232C21.8461 17.3458 20.8138 17.6291 20.8138 17.6291C20.8138 17.6291 22.2672 17.8858 23.612 16.9298C24.1644 18.1957 24.6942 19.5102 24.7213 19.6917C24.6398 19.8732 23.5848 22.3518 23.4807 22.5067C23.4264 22.5599 23.0596 22.6617 22.7924 22.7148C22.3442 22.8431 22.0816 22.9228 21.9729 22.9981C21.7873 23.153 20.9405 25.4236 20.5466 26.5346C20.0712 26.6629 19.5958 26.9241 19.2516 27.4375C19.4373 27.3091 20.0168 27.2295 20.4425 27.1808C20.8138 27.1542 21.9457 27.7473 22.24 28.8583C22.24 28.8849 22.24 28.8849 22.24 28.9114C22.2989 29.3186 22.1676 29.7081 21.9548 30.018ZM19.4735 30.3278C19.7135 29.9914 19.6863 29.4249 19.7135 29.2434C19.7406 29.0619 19.7905 28.7255 20.0033 28.6768C20.2161 28.6237 20.7187 28.7034 20.7187 29.0619C20.7187 29.3983 20.3474 29.4735 20.0848 29.7081C19.8946 29.8852 19.5233 30.2747 19.4735 30.3278ZM30.0099 25.3926C30.2725 24.078 30.2997 22.9405 30.2227 22.011C31.2505 23.3521 31.8845 24.981 32.0701 26.6585C32.0973 26.8665 32.3055 27.0701 32.5184 27.2782C32.704 27.4331 32.9168 27.6411 32.9168 27.7695C32.9168 28.3626 32.8625 28.9557 32.7583 29.5532C32.7312 29.6285 32.4957 29.7612 32.3101 29.863C32.0475 29.9914 31.8075 30.1198 31.7577 30.3278C31.1781 32.3151 29.9329 34.0723 28.2712 35.3117C30.7253 32.8064 31.9116 28.6724 30.0099 25.3926ZM28.3482 35.5418C30.0642 34.2494 31.3864 32.4435 31.966 30.403C31.9931 30.3278 32.2286 30.195 32.387 30.0932C32.6497 29.9648 32.9168 29.8099 32.9666 29.6019C33.0708 29.0088 33.1251 28.3891 33.1251 27.7695C33.1251 27.5393 32.8851 27.3047 32.6497 27.0746C32.5184 26.9196 32.3055 26.7382 32.3055 26.6098C32.0927 24.7243 31.3275 22.9449 30.1412 21.471C29.6115 18.3727 27.5015 17.4166 27.4471 17.3901C27.5015 17.4698 28.8734 19.404 27.9225 21.6746C26.9445 23.9718 24.4361 23.6133 24.2233 23.6354C24.0104 23.6354 23.1954 24.6667 22.1631 26.5788C22.0318 26.5257 21.4748 26.3974 20.8409 26.5036C21.3164 25.2111 22.0318 23.3787 22.1631 23.2238C22.2174 23.1707 22.6113 23.0689 22.8785 22.9936C23.3811 22.8653 23.6165 22.7856 23.698 22.6838C23.7524 22.6041 24.015 22.011 24.2776 21.3914C24.5176 21.3914 25.1243 21.3382 25.1741 21.3117C25.2285 21.2586 25.731 19.9971 25.731 19.8422C25.731 19.7138 24.6987 17.2086 24.3048 16.2526C24.4904 16.0445 24.676 15.7878 24.8572 15.5045C30.2725 16.0755 34.5016 20.5681 34.5016 26.0123C34.5016 30.195 31.9931 33.8377 28.3482 35.5418Z" fill="white"/>
  <path d="M21.3209 21.5992C21.8235 21.0327 21.5609 19.9748 20.6326 19.7933C20.8726 19.2534 21.2122 18.1689 21.2122 18.1689C21.2122 18.1689 18.5181 22.2986 18.2827 22.3782C18.0427 22.4579 17.8072 21.5505 17.8072 21.5505C17.3046 23.4361 18.654 23.6928 18.8124 23.0997C19.5505 22.9138 20.8183 22.1392 21.3209 21.5992Z" fill="white"/>
  <path d="M19.0205 22.6038L20.3925 20.3066C20.3925 20.3066 21.1848 20.6961 20.7864 21.3158C20.2883 22.0373 19.0205 22.6038 19.0205 22.6038Z" fill="#101112"/>
  <path d="M36.0045 33.2446C35.6061 33.7624 35.1578 34.3024 34.6326 34.8203C38.0375 28.4156 34.791 22.5554 34.6597 22.3252C34.8997 22.5598 35.1352 22.8165 35.348 23.0467C37.9606 25.8838 38.2775 30.1462 36.0045 33.2446Z" fill="#101112"/>
  <path d="M39.1744 25.0073C37.9835 21.8824 36.2946 19.2223 32.5727 16.8233C28.9821 14.4995 25.1243 14.681 24.9115 14.7076C24.8843 14.7076 24.8572 14.7076 24.8572 14.7076C24.9885 14.6544 25.1198 14.6279 25.2511 14.6058C26.0707 14.349 27.1257 14.141 28.1852 14.0127C30.9879 13.6187 33.8133 14.5482 35.7422 16.54C35.7694 16.5666 35.7694 16.5666 35.7966 16.5931C37.9881 18.8637 39.1246 21.7009 39.1744 25.0073Z" fill="#101112"/>
  <path d="M31.7257 12.2247C27.791 11.5033 25.2554 11.8618 23.4307 12.5346C23.3763 12.3265 23.1907 11.9149 23.0322 11.5785C22.4843 12.2247 21.9002 12.9993 21.5335 13.4906C20.5283 14.1634 20.1072 14.8096 20.1072 14.8096C20.6867 12.871 22.3802 11.428 24.4404 11.0651C25.0199 10.9633 25.6538 10.9102 26.3421 10.9102C28.1623 10.9367 29.9825 11.3749 31.7257 12.2247Z" fill="#101112"/>
  <path d="M17.1728 17.1821C14.0848 17.0803 15.1126 13.5659 15.167 13.3623C15.167 13.3889 15.3753 16.1242 17.1728 17.1821Z" fill="#101112"/>
  <path d="M20.2115 10.8569C17.8344 12.2512 18.3098 15.5797 18.3098 15.5797C16.0368 12.2025 20.0259 10.9366 20.2115 10.8569Z" fill="#101112"/>
  <path d="M16.3038 18.1115C16.4623 18.2399 16.6208 18.4745 16.4351 18.8109C16.331 18.9923 16.1725 18.9658 15.9325 18.864C15.6156 18.7091 13.7139 17.6246 11.9978 16.5137C13.9539 17.1864 15.9325 17.9079 16.2495 18.0628C16.2495 18.0628 16.2767 18.0894 16.3038 18.1115Z" fill="#101112"/>
</svg>