<svg xmlns="http://www.w3.org/2000/svg" width="48" height="48" viewBox="0 0 48 48" fill="none">
  <rect width="48" height="48" rx="24" fill="#101112"/>
  <path d="M38.5282 28.1446C38.2722 26.263 37.6962 24.3558 36.8258 22.4742C37.1714 21.5654 37.8882 19.4534 38.093 17.0726L38.1058 16.9702C38.4002 13.5014 38.605 10.9926 37.133 9.78939C36.3266 9.12379 35.1746 9.18779 33.7282 9.98139C32.8706 10.4422 32.1794 11.0182 32.1538 11.031C32.1282 11.0438 30.221 12.6054 28.7234 14.3462C27.3282 13.9366 25.677 13.719 24.013 13.719C22.349 13.719 20.6978 13.9366 19.3026 14.3462C17.8178 12.6182 15.9618 11.1078 15.8722 11.031C15.8466 11.0054 15.1554 10.4422 14.2978 9.98139C12.8514 9.18779 11.6994 9.12379 10.893 9.78939C9.42099 10.9926 9.63859 13.5014 9.92019 16.9702L9.93299 17.0598C10.1378 19.4534 10.8418 21.5526 11.2002 22.4614C10.3298 24.343 9.75379 26.2502 9.49779 28.1318C9.28019 29.6806 9.36979 30.6662 9.38259 30.7814C9.51059 32.087 10.2914 34.6982 14.0418 37.3862C17.5234 39.895 21.1458 41.3286 23.9746 41.3286C24.0002 41.3286 24.013 41.3286 24.0386 41.3286C24.0642 41.3286 24.077 41.3286 24.1026 41.3286C26.9314 41.3286 30.5538 39.895 34.0354 37.3862C37.7858 34.6854 38.5538 32.087 38.6946 30.7814C38.7074 30.679 38.797 29.6934 38.5794 28.1318L38.5282 28.1446Z" fill="#101112"/>
  <path d="M35.7888 22.5125C35.968 22.0901 36.9152 19.7349 37.1456 16.9957L37.1584 16.9061C37.4144 13.8469 37.6192 11.4277 36.5312 10.5445C36.0448 10.1477 35.264 10.2501 34.176 10.8389C33.408 11.2613 32.768 11.7733 32.7424 11.7989C32.7168 11.8117 30.4896 13.6293 29.0304 15.4725C27.6096 14.9605 25.8176 14.6917 24 14.6917C22.1696 14.6917 20.3904 14.9733 18.9696 15.4725C17.5104 13.6293 15.2832 11.8117 15.2576 11.7989C15.232 11.7733 14.6048 11.2613 13.824 10.8389C12.7488 10.2501 11.9552 10.1605 11.4688 10.5445C10.3936 11.4277 10.5856 13.8469 10.8416 16.9061L10.8544 16.9957C11.0848 19.7349 12.032 22.0901 12.2112 22.5125C9.97116 27.1077 10.2912 30.5509 10.304 30.6917C10.4192 31.8437 11.1232 34.1477 14.5664 36.6181C17.8944 39.0117 21.2992 40.3813 23.936 40.3813C23.9616 40.3813 23.9744 40.3813 24 40.3813C24.0256 40.3813 24.0384 40.3813 24.064 40.3813C26.7008 40.3813 30.1184 39.0117 33.4336 36.6181C36.8768 34.1349 37.5808 31.8437 37.696 30.6917C37.7088 30.5509 38.0288 27.1077 35.7888 22.5125Z" fill="white"/>
  <path d="M37.1457 30.039C37.1457 29.5526 37.1073 28.7974 36.9281 27.799C36.7873 27.031 36.5953 26.2374 36.3521 25.4566C36.0577 24.5222 35.6865 23.6006 35.2385 22.7046L35.1489 22.5254L35.2257 22.3462C35.2257 22.3462 35.5073 21.719 35.8017 20.7462C35.9809 20.1702 36.1217 19.5942 36.2497 19.031C36.4033 18.3142 36.5057 17.623 36.5569 16.9446L36.5697 16.855C36.6849 15.4086 36.8001 14.039 36.7617 12.9894C36.7233 11.9398 36.5185 11.287 36.1601 10.9798C36.0705 10.903 35.9553 10.8774 35.8017 10.8774C35.5841 10.8774 35.3153 10.9414 34.9953 11.0694C34.7265 11.1846 34.4193 11.3382 34.0993 11.5302C33.5361 11.8758 33.1137 12.2214 33.1009 12.2214C33.1009 12.2214 32.5249 12.695 31.7825 13.3734C30.5537 14.5126 29.8113 15.3702 29.4017 15.895L29.2097 16.1382L28.9281 16.0358C28.2497 15.7926 27.4945 15.5878 26.6625 15.4598C25.8049 15.319 24.8961 15.2422 23.9745 15.2422C23.0529 15.2422 22.1441 15.319 21.2865 15.4598C20.4673 15.6006 19.6993 15.7926 19.0209 16.0358L18.7393 16.1382L18.5473 15.895C17.8049 14.9478 16.8449 14.0006 16.1665 13.3734C15.4241 12.695 14.8609 12.2214 14.8481 12.2214C14.8481 12.2214 14.4129 11.863 13.8497 11.5302C13.5297 11.3382 13.2225 11.1718 12.9537 11.0694C12.6337 10.9414 12.3649 10.8774 12.1473 10.8774C11.9937 10.8774 11.8657 10.9158 11.7889 10.9798C11.4305 11.2742 11.2257 11.927 11.1873 12.9894C11.1489 14.039 11.2513 15.4086 11.3793 16.855L11.3921 16.9446C11.4433 17.6102 11.5585 18.3142 11.6993 19.031C11.8145 19.607 11.9681 20.183 12.1473 20.7462C12.4417 21.719 12.7233 22.3462 12.7233 22.3462L12.8001 22.5254L12.7105 22.7046C12.2625 23.6006 11.8913 24.535 11.5969 25.4566C11.3537 26.2374 11.1489 27.031 11.0209 27.799C10.8417 28.7974 10.8033 29.5526 10.8033 30.039C10.8033 30.2054 10.8033 30.3462 10.8161 30.4486C10.8161 30.4614 10.8161 30.4742 10.8161 30.487C10.8161 30.5126 10.8161 30.5382 10.8161 30.5638C10.8161 30.5766 10.8161 30.5766 10.8161 30.5894C10.8161 30.615 10.8161 30.6278 10.8161 30.6406C10.8417 30.8838 10.8929 31.2166 11.0209 31.6006C11.0209 31.6134 11.0337 31.6262 11.0337 31.6262C11.0465 31.6518 11.0465 31.6646 11.0593 31.6902C11.0593 31.703 11.0721 31.7158 11.0721 31.7414C11.0849 31.7798 11.0977 31.8182 11.1233 31.8566C11.1361 31.8822 11.1361 31.895 11.1489 31.9206C11.1617 31.9334 11.1617 31.959 11.1745 31.9718C11.2769 32.2278 11.4049 32.4966 11.5713 32.7782C12.2625 33.9558 13.3633 35.095 14.8481 36.1702C15.0529 36.3238 15.2577 36.4646 15.4625 36.6054C16.1153 37.0534 16.7681 37.4502 17.4081 37.8086C18.0609 38.167 18.7009 38.487 19.3281 38.7558C19.4945 38.8198 19.6481 38.8966 19.8145 38.9478C20.5697 39.2422 21.2993 39.4598 21.9905 39.6134C22.6561 39.7542 23.2961 39.831 23.8721 39.831H23.8849H23.9361H23.9873H24.0001C24.5889 39.831 25.2161 39.7542 25.8817 39.6134C26.5729 39.4598 27.3153 39.2422 28.0577 38.9478C28.2113 38.8838 28.3649 38.8326 28.5185 38.7558C29.1585 38.487 29.8113 38.167 30.4641 37.7958C30.9377 37.5398 31.4113 37.2454 31.8849 36.9382C31.9105 36.9126 31.9489 36.8998 31.9745 36.8742C32.0257 36.8486 32.0769 36.8102 32.1153 36.7846C32.4225 36.5798 32.7169 36.375 33.0241 36.1574C33.7025 35.671 34.2913 35.1718 34.8033 34.6598C34.8161 34.647 34.8417 34.6214 34.8545 34.6086C34.8929 34.5702 34.9185 34.5446 34.9569 34.5062C34.9825 34.4806 35.0081 34.455 35.0337 34.4166C35.0465 34.4038 35.0593 34.3782 35.0849 34.3654C35.1105 34.3398 35.1361 34.3014 35.1617 34.2758C35.2001 34.2246 35.2513 34.1862 35.2897 34.135C35.4433 33.9686 35.5841 33.7894 35.7121 33.623C35.7505 33.5846 35.7761 33.5334 35.8145 33.495C35.8273 33.4822 35.8273 33.4822 35.8401 33.4694C36.0065 33.239 36.1601 33.0086 36.3009 32.7782C36.4161 32.5734 36.5185 32.3686 36.6081 32.1894C36.9025 31.5366 37.0177 31.0118 37.0433 30.6534C37.0561 30.5766 37.0689 30.3846 37.0689 30.0646L37.1457 30.039Z" fill="white"/>
  <path d="M37.1328 30.6407C37.0816 31.1143 36.9152 31.8567 36.3776 32.7783C35.6864 33.9559 34.5856 35.0951 33.1008 36.1703C32.2432 36.7847 31.3856 37.3351 30.5408 37.8087C29.888 38.1671 29.2352 38.4871 28.5952 38.7687C28.4416 38.8327 28.288 38.8967 28.1344 38.9607C27.3792 39.2551 26.6496 39.4727 25.9584 39.6263C25.2928 39.7671 24.6528 39.8439 24.0768 39.8439H24.064H24.0128H23.9616H23.9488C23.36 39.8439 22.7328 39.7671 22.0672 39.6263C21.376 39.4727 20.6336 39.2551 19.8912 38.9607C19.7376 38.8967 19.5712 38.8327 19.4048 38.7687C18.7776 38.4999 18.1248 38.1799 17.4848 37.8215C16.64 37.3479 15.7696 36.7975 14.9248 36.1831C13.44 35.1079 12.3392 33.9687 11.648 32.7911C11.1104 31.8695 10.944 31.1271 10.8928 30.6535C10.88 30.5767 10.8672 30.3719 10.8672 30.0519C11.4432 29.9111 12.0448 29.8343 12.672 29.8343C15.0144 29.8343 17.1008 30.8839 18.4064 32.4967C18.9568 29.7959 21.248 27.7607 24 27.7607C26.752 27.7607 29.056 29.7959 29.5936 32.4967C30.8992 30.8839 32.9856 29.8343 35.328 29.8343C35.968 29.8343 36.5824 29.9111 37.1584 30.0519C37.1584 30.3719 37.1456 30.5767 37.1328 30.6407Z" fill="#101112"/>
  <path d="M10.8547 30.0391C10.8547 30.3591 10.8675 30.5639 10.8803 30.6407C10.9315 31.1143 11.0979 31.8567 11.6355 32.7783C12.3267 33.9559 13.4275 35.0951 14.9123 36.1703C15.7699 36.7847 16.6275 37.3351 17.4723 37.8087C18.1251 38.1671 18.7651 38.4871 19.3923 38.7559L10.8547 30.0519V30.0391Z" fill="#101112"/>
  <path d="M37.1458 30.0391C37.1458 30.3591 37.133 30.5639 37.1202 30.6279C37.069 31.1015 36.9026 31.8439 36.365 32.7655C35.6738 33.9431 34.573 35.0823 33.0882 36.1575C32.2306 36.7719 31.373 37.3223 30.5282 37.7959C29.8754 38.1543 29.2226 38.4743 28.5826 38.7559L37.1458 30.0519V30.0391Z" fill="#101112"/>
  <path d="M16.6143 22.1926C16.6143 22.1926 16.8703 21.143 17.7919 21.1046C18.7135 21.0662 19.0847 21.5782 19.3535 21.9238C19.6095 22.2694 20.0319 23.2294 19.1743 23.3574C18.3167 23.4982 16.9343 23.6006 16.7295 23.3958C16.3839 23.063 16.6143 22.1926 16.6143 22.1926Z" fill="#101112"/>
  <path d="M31.3474 22.1926C31.3474 22.1926 31.0914 21.143 30.1698 21.1046C29.2482 21.0662 28.877 21.5782 28.6082 21.9238C28.3522 22.2694 27.9298 23.2294 28.7874 23.3574C29.645 23.4982 31.0274 23.6006 31.2322 23.3958C31.5778 23.063 31.3474 22.1926 31.3474 22.1926Z" fill="#101112"/>
  <path d="M15.8596 24.97C15.8596 24.97 15.834 24.1636 16.3588 24.2916C16.8836 24.4196 19.7252 25.8532 20.2628 26.442C20.7876 27.018 21.2356 27.594 20.7364 27.6196C20.25 27.6452 18.2276 27.5044 17.114 26.8388C16.0004 26.1732 15.8596 26.3268 15.8596 24.9828V24.97Z" fill="#101112"/>
  <path d="M32.1154 24.97C32.1154 24.97 32.141 24.1636 31.6162 24.2916C31.0914 24.4196 28.2498 25.8532 27.7122 26.442C27.1874 27.018 26.7394 27.594 27.2386 27.6196C27.725 27.6452 29.7474 27.5044 30.861 26.8388C31.9746 26.1732 32.1154 26.3268 32.1154 24.9828V24.97Z" fill="#101112"/>
  <path d="M34.0482 14.7429C33.357 15.4853 32.4994 16.5989 31.8594 17.5845C33.293 18.8517 34.2146 20.1317 34.6754 20.8997C35.277 19.3253 36.0322 15.5749 35.9298 14.0645C35.917 13.9109 35.9042 13.7701 35.8786 13.6421C35.405 13.7317 34.7394 14.0133 34.0482 14.7557V14.7429Z" fill="#101112"/>
  <path d="M13.9268 14.7429C14.618 15.4853 15.4756 16.5989 16.1156 17.5845C14.682 18.8517 13.7604 20.1317 13.2996 20.8997C12.698 19.3253 11.9428 15.5749 12.0452 14.0645C12.058 13.9109 12.0708 13.7701 12.0964 13.6421C12.57 13.7317 13.2356 14.0133 13.9268 14.7557V14.7429Z" fill="#101112"/>
  <path d="M33.5615 13.6168C32.6783 14.2312 31.6543 15.1016 30.4127 16.4584C30.9375 16.8168 31.4111 17.2008 31.8463 17.5848C32.4991 16.612 33.3567 15.4984 34.0351 14.7432C34.7263 14.0008 35.3791 13.7192 35.8655 13.6296C35.6223 12.3624 34.7391 12.7848 33.5487 13.6168H33.5615Z" fill="#101112"/>
  <path d="M14.4126 13.6168C15.2958 14.2312 16.3198 15.1016 17.5614 16.4584C17.0366 16.8168 16.563 17.2008 16.1278 17.5848C15.475 16.612 14.6174 15.4984 13.939 14.7432C13.2478 14.0008 12.595 13.7192 12.1086 13.6296C12.3518 12.3624 13.235 12.7848 14.4254 13.6168H14.4126Z" fill="#101112"/>
  <path d="M24.9216 35.287H24.064H23.8976H23.04C23.04 35.287 22.8352 35.2358 22.8352 35.3894C22.8352 35.543 23.0528 35.671 23.1424 35.671C23.232 35.671 23.3856 35.479 23.5008 35.479C23.616 35.479 23.8336 35.9398 23.9872 35.9398C24.1408 35.9398 24.3584 35.479 24.4736 35.479C24.5888 35.479 24.7424 35.671 24.832 35.671C24.9216 35.671 25.1392 35.543 25.1392 35.3894C25.1392 35.2358 24.9344 35.287 24.9344 35.287H24.9216Z" fill="white"/>
  <path d="M27.5072 34.1605C26.496 34.1477 26.432 34.2245 26.3168 34.2757C26.1888 34.3269 25.4592 34.3013 25.0368 34.3141C24.6144 34.3269 24.7296 34.1093 24.576 33.9429C24.448 33.8149 24.2816 33.8405 24.2688 33.7253V33.2005C24.2688 33.2005 24.2816 33.0597 24.5376 32.9829C25.3184 32.7397 25.728 32.0485 25.728 32.0485C26.2144 31.0117 25.984 30.0133 25.7024 29.7573C25.4208 29.5013 24.8192 29.5525 24.8192 29.5525H23.1552C23.1552 29.5525 22.5536 29.5013 22.272 29.7573C21.9904 30.0133 21.76 31.0117 22.2464 32.0485C22.2464 32.0485 22.6688 32.7397 23.4368 32.9829H23.424C23.68 33.0597 23.6928 33.2005 23.6928 33.2005V33.7253C23.68 33.8533 23.5136 33.8149 23.3856 33.9429C23.232 34.1093 23.3472 34.3141 22.9248 34.3141C22.5024 34.3013 21.7728 34.3397 21.6448 34.2757C21.5296 34.2245 21.4656 34.1477 20.4544 34.1605C20.4032 34.1605 20.3776 34.2245 20.4032 34.2629C20.4672 34.3397 20.544 34.4293 20.5952 34.5317C20.6848 34.7109 20.6976 35.1077 20.736 35.1461C20.7744 35.1845 20.9792 35.1461 21.0304 35.1973C21.0688 35.2485 21.4272 36.3365 21.5808 36.3365C21.7344 36.3365 21.6704 34.7109 21.6704 34.7109C21.6704 34.7109 23.488 34.8389 23.9744 34.8389C24.4608 34.8389 26.2784 34.7109 26.2784 34.7109C26.2784 34.7109 26.2144 36.3365 26.368 36.3365C26.5216 36.3365 26.88 35.2485 26.9184 35.1973C26.9568 35.1461 27.1616 35.1717 27.2128 35.1461C27.2512 35.1077 27.264 34.7109 27.3536 34.5317C27.4048 34.4293 27.4816 34.3269 27.5456 34.2629C27.584 34.2245 27.5456 34.1605 27.4944 34.1605H27.5072Z" fill="white"/>
</svg>