<svg xmlns="http://www.w3.org/2000/svg" width="48" height="48" viewBox="0 0 48 48" fill="none">
<rect width="48" height="48" rx="24" fill="#101112"/>
<path fill-rule="evenodd" clip-rule="evenodd" d="M31.1616 37.3332H23.2213L26.3829 32.8532C27.0453 31.9145 27.1434 30.8884 26.6208 30.0404L22.4736 24.0009L26.4224 18.4244C27.0336 17.5038 27.2245 16.2974 26.5568 15.363L23.1968 10.6665H31.1616C34.5557 10.6665 37.3333 13.4441 37.3333 16.8382V31.1614C37.3333 34.5556 34.5557 37.3332 31.1616 37.3332ZM31.9498 24.9566L28.065 30.467C27.5808 28.4393 27.5029 28.4222 26.432 27.059L28.6944 24.002L26.432 21.0078C27.4965 19.7076 27.6693 19.347 28.0672 17.4793C29.3173 19.2532 31.5189 22.3124 31.9402 22.9022C32.5077 23.6969 32.4768 24.21 31.9498 24.9566ZM20.1962 37.3332H16.8384C13.4442 37.3332 10.6666 34.5556 10.6666 31.1614V16.8382C10.6666 13.4441 13.4442 10.6665 16.8384 10.6665H20.193L23.089 14.6697C23.9232 15.8249 23.5029 16.9118 21.7802 19.3246C20.5333 21.1646 19.6896 22.3508 19.2426 23.1956C18.9098 23.826 18.9056 24.6004 19.4826 25.4526L22.9696 30.6014C23.6437 31.5956 23.6714 32.4606 22.912 33.5241L20.1962 37.3332Z" fill="white"/>
</svg>