<svg xmlns="http://www.w3.org/2000/svg" width="48" height="48" viewBox="0 0 48 48" fill="none">
<rect width="48" height="48" rx="24" fill="#101112"/>
<path d="M38.2499 21.3184C38.2331 22.4262 38.1159 23.5306 37.8995 24.6189C36.3785 32.2063 31.8381 36 24.2783 36H19.5V35.9452L20.6706 30.7092H23.972C28.066 30.7092 30.5447 28.4757 31.4082 24.0086C31.4705 23.7221 31.5198 23.4332 31.5587 23.1418L38.1253 19.5C38.2107 20.1026 38.2523 20.7102 38.2499 21.3184Z" fill="white"/>
<path d="M34.5 15.0605L29.0804 18.75C28.3256 18.1538 27.3002 17.8548 26.004 17.8529H17.25L17.2763 17.7067L18.3105 12.0009H27.3869C28.5456 11.9856 29.7005 12.1578 30.8193 12.5127C32.1059 12.917 33.2875 13.6899 34.2588 14.7624C34.3424 14.8693 34.4212 14.9621 34.5 15.0605Z" fill="white"/>
<path d="M27 21.75L26.0971 26.9646H21.8726L19.8088 35.9453L19.7954 36H10.5L13.9908 31.6475L16.2804 21.75H27Z" fill="white"/>
</svg>