<svg xmlns="http://www.w3.org/2000/svg" width="48" height="48" viewBox="0 0 48 48" fill="none">
  <rect width="48" height="48" rx="24" fill="white"/>
  <path fill-rule="evenodd" clip-rule="evenodd" d="M11.1853 9.97716C14.7345 14.2133 20.2029 20.7996 20.4771 21.1589C20.7056 21.4583 20.6142 21.7427 20.2334 21.9522C20.0202 22.072 19.5784 22.1917 19.3652 22.1917C19.1214 22.1917 18.832 22.072 18.634 21.8774C18.4969 21.7427 17.9028 20.8894 16.5624 18.8387C15.5418 17.267 14.6735 15.9647 14.6583 15.9497C14.5974 15.9198 14.5974 15.9198 16.4557 19.183C17.6286 21.2337 18.0095 21.9672 18.0095 22.057C18.0095 22.2516 17.9485 22.3564 17.7048 22.6258C17.2935 23.0749 17.1107 23.5838 16.9736 24.6466C16.8213 25.8292 16.41 26.6674 15.2371 28.0894C14.5517 28.9277 14.445 29.0774 14.2775 29.4217C14.0642 29.8408 14.0033 30.0803 13.9728 30.6192C13.9424 31.188 14.0033 31.5472 14.1709 32.0861C14.3232 32.5651 14.4907 32.8795 14.902 33.4932C15.2524 34.0321 15.4656 34.4362 15.4656 34.5859C15.4656 34.7057 15.4961 34.7057 16.0445 34.5859C17.3545 34.2865 18.436 33.7776 19.03 33.1489C19.3956 32.7597 19.487 32.5502 19.487 32.0113C19.487 31.667 19.4718 31.5922 19.3804 31.3826C19.2281 31.0533 18.9386 30.7838 18.3141 30.3647C17.4915 29.8109 17.1412 29.3618 17.0498 28.763C16.9736 28.2541 17.065 27.9098 17.522 26.9668C17.9942 25.9938 18.1161 25.5896 18.1922 24.6017C18.2379 23.973 18.3141 23.7185 18.4969 23.524C18.6949 23.3144 18.8625 23.2395 19.3347 23.1797C20.1115 23.0749 20.6142 22.8803 21.0103 22.5061C21.3606 22.1917 21.5129 21.8774 21.5282 21.4133L21.5434 21.0691L21.3454 20.8595C20.6295 20.0512 10.7131 9.3335 10.6674 9.3335C10.6581 9.3335 10.7454 9.43961 10.8807 9.60408L10.8807 9.6041L10.8808 9.60415C10.967 9.70893 11.0727 9.83738 11.1853 9.97716ZM15.8617 31.2628C16.0292 30.9784 15.9378 30.6192 15.6636 30.4396C15.4047 30.2749 15.0086 30.3497 15.0086 30.5743C15.0086 30.6341 15.0391 30.694 15.1305 30.724C15.2676 30.7988 15.2828 30.8736 15.1762 31.0383C15.0696 31.203 15.0696 31.3526 15.2067 31.4574C15.4199 31.6221 15.7093 31.5323 15.8617 31.2628ZM20.7212 15.9348C20.4014 15.8899 20.3861 15.8749 20.5385 15.8599C20.8279 15.815 21.4981 15.8749 21.9703 15.9797C23.0671 16.2342 24.0572 16.8928 25.1082 18.0454L25.3824 18.3597L25.7785 18.2999C27.4693 18.0304 29.2058 18.24 30.6529 18.8986C31.0489 19.0782 31.6735 19.4375 31.7496 19.5273C31.7801 19.5572 31.8258 19.7518 31.8562 19.9464C31.9629 20.65 31.9172 21.1739 31.6887 21.578C31.5668 21.8026 31.5668 21.8624 31.643 22.057C31.7039 22.2067 31.8867 22.3115 32.0543 22.3115C32.4198 22.3115 32.8007 21.7427 32.9835 20.9493L33.0596 20.635L33.1967 20.7847C33.9736 21.6379 34.5829 22.8204 34.6743 23.6587L34.7047 23.8832L34.5676 23.6886C34.3391 23.3444 34.1259 23.1198 33.8365 22.9252C33.3186 22.5809 32.7702 22.4762 31.3231 22.4013C30.0131 22.3265 29.2667 22.2217 28.5355 21.9822C27.2865 21.578 26.6467 21.0541 25.1692 19.1231C24.5142 18.2699 24.1029 17.8059 23.6916 17.4167C22.7929 16.5635 21.8942 16.1144 20.7212 15.9348ZM32.0692 17.8356C32.0996 17.2668 32.1758 16.8926 32.3434 16.5483C32.4043 16.4136 32.4652 16.2938 32.4805 16.2938C32.4957 16.2938 32.4652 16.3986 32.4195 16.5184C32.2977 16.8477 32.2824 17.3117 32.3586 17.8356C32.4652 18.5092 32.5109 18.599 33.2421 19.3325C33.5772 19.6768 33.9733 20.1109 34.1256 20.2905L34.3845 20.6198L34.1256 20.3803C33.8057 20.0809 33.0745 19.5121 32.907 19.4373C32.8003 19.3774 32.7851 19.3774 32.709 19.4522C32.648 19.5121 32.6328 19.6019 32.6328 20.036C32.6176 20.7096 32.5262 21.1288 32.2977 21.5629C32.1758 21.7874 32.1606 21.7425 32.2672 21.488C32.3434 21.2934 32.3586 21.2036 32.3586 20.5599C32.3586 19.2577 32.2063 18.9433 31.2771 18.4194C31.0486 18.2847 30.6526 18.0901 30.4241 17.9853C30.1803 17.8805 29.9976 17.7907 30.0128 17.7907C30.0433 17.7608 30.942 18.0152 31.2923 18.1649C31.8255 18.3745 31.9169 18.3895 31.9778 18.3745C32.0235 18.3296 32.054 18.2098 32.0692 17.8356ZM20.3859 16.8477C20.2945 17.8506 20.7058 19.1978 21.3456 20.066C21.8482 20.7396 22.6251 21.2635 23.2039 21.3234C23.5847 21.3533 23.6914 21.2335 23.5238 20.994C23.2801 20.6647 22.9907 20.1408 22.9145 19.9163C22.8688 19.7816 22.7622 19.3624 22.686 19.0032C22.4271 17.7757 22.1529 17.2818 21.5436 16.9225C21.3151 16.7878 20.8429 16.6082 20.5687 16.5633L20.4164 16.5333L20.3859 16.8477ZM31.2928 26.5777C28.2767 25.3802 27.2104 24.3473 27.2104 22.596C27.2104 22.3415 27.2257 22.132 27.2257 22.132C27.2358 22.132 27.2865 22.1718 27.3598 22.2294L27.3599 22.2295L27.3599 22.2295L27.3601 22.2296L27.3605 22.23L27.3608 22.2302C27.3973 22.2589 27.4393 22.2919 27.4846 22.3266C28.0939 22.8056 28.7794 23.0151 30.6835 23.2846C31.7954 23.4492 32.4352 23.569 33.014 23.7636C34.8572 24.3623 35.9996 25.5898 36.2738 27.2513C36.35 27.7303 36.3043 28.6434 36.1824 29.1224C36.0758 29.4966 35.7711 30.1852 35.695 30.2002C35.6797 30.2002 35.6493 30.1253 35.6493 30.0056C35.6188 29.3769 35.2989 28.7781 34.7658 28.3141C34.126 27.7752 33.3035 27.371 31.2928 26.5777ZM29.0073 26.4427C29.053 26.5624 29.1292 26.8468 29.1597 27.0714C29.4034 28.4784 28.657 29.631 27.149 30.0951C26.9966 30.1549 26.3873 30.2747 25.7933 30.3645C24.5899 30.5741 24.0415 30.7088 23.5084 30.9633C23.1276 31.1429 22.6554 31.4123 22.6858 31.4423C22.7011 31.4572 22.7925 31.4273 22.8839 31.3974C23.5693 31.1579 24.3309 31.0381 25.4734 30.9782C25.8559 30.9532 26.2811 30.9176 26.5167 30.8979L26.5168 30.8979L26.6311 30.8884C27.6516 30.7537 28.3676 30.4543 28.916 29.9005C29.2206 29.5861 29.4034 29.3017 29.5557 28.8976C29.6471 28.6431 29.6623 28.5383 29.6623 28.0892V28.0892C29.6623 27.6252 29.6623 27.5354 29.5557 27.251C29.4186 26.8768 29.2663 26.6073 29.0683 26.3828L28.9312 26.2181L29.0073 26.4427ZM30.5458 29.482C30.1498 28.6288 30.0584 27.8204 30.2716 27.057C30.3021 26.9822 30.3326 26.9073 30.363 26.9073C30.3935 26.9073 30.4849 26.9523 30.5763 27.0121C30.7591 27.1319 31.1399 27.3414 32.1148 27.8654C33.3486 28.524 34.0493 29.0329 34.5367 29.6167C34.9633 30.1256 35.2222 30.7094 35.3441 31.4279C35.4202 31.8321 35.3745 32.8051 35.2679 33.2092C34.9328 34.4816 34.1712 35.4995 33.0592 36.0832C32.8916 36.1731 32.7545 36.2329 32.7393 36.2329C32.7241 36.2329 32.785 36.0832 32.8764 35.9036C33.242 35.1402 33.2877 34.4067 33.0135 33.5834C32.8459 33.0745 32.4956 32.4608 31.7949 31.4279C30.9571 30.2304 30.7591 29.9161 30.5458 29.482ZM22.9906 32.2658C21.7111 32.4754 20.3249 33.134 19.1977 34.0621L18.8778 34.3615L19.1672 34.4064C20.6905 34.6309 21.1018 34.8405 22.168 35.9182C22.7773 36.5319 22.9906 36.6667 23.4933 36.8014C24.2397 36.996 24.9708 36.6517 25.2298 35.9931C25.3364 35.6937 25.3212 35.2147 25.1993 34.9752C24.8947 34.3914 23.9959 34.2118 23.5694 34.6309C23.2191 34.9752 23.3257 35.5141 23.7675 35.6039C23.8088 35.6106 23.8314 35.6143 23.8326 35.6108C23.834 35.6066 23.8038 35.5918 23.737 35.559C23.539 35.4691 23.4476 35.3494 23.4476 35.1548C23.4323 34.6908 23.9655 34.4513 24.4529 34.6608C24.8185 34.8255 24.9556 35.0351 24.9556 35.3943C24.9556 35.9482 24.4682 36.3822 23.9046 36.3074C23.5999 36.2625 23.2343 36.0829 23.0363 35.8583C22.5489 35.3195 22.7316 34.4363 23.4323 34.107C23.9655 33.8525 24.6662 33.9274 25.2146 34.2716C25.8391 34.6758 26.1133 35.0351 26.6464 36.2475C26.8292 36.6517 27.0425 37.0858 27.1491 37.2355C27.6518 37.9839 28.2763 38.3581 29.0075 38.3581C29.4187 38.3581 29.7234 38.2983 30.1042 38.1037C30.3784 37.9689 30.7897 37.6995 30.7592 37.6696C30.7592 37.6578 30.6835 37.6831 30.5844 37.7164L30.5378 37.732L30.5002 37.7444C29.6929 38.0438 28.8704 38.0288 28.3982 37.6845C28.0935 37.46 27.8498 37.0409 27.7279 36.502L27.713 36.4166C27.6841 36.2522 27.6249 35.9157 27.5756 35.5889C27.408 34.556 27.2405 34.092 26.8749 33.5531C26.4941 32.9993 25.7629 32.5502 24.9556 32.3407C24.4529 32.2059 23.539 32.176 22.9906 32.2658ZM21.2083 24.2723C21.3149 23.8831 21.6653 23.4939 22.0309 23.3891C22.2746 23.3143 22.7468 23.3592 22.9753 23.4789C23.417 23.7035 23.7369 24.1974 23.6607 24.5567C23.5846 24.9908 22.8686 25.35 22.0309 25.35C21.6043 25.35 21.452 25.2902 21.2845 25.0806C21.1778 24.9459 21.1474 24.5118 21.2083 24.2723ZM22.8534 23.6286C23.0819 23.7633 23.1276 23.9579 23.0057 24.1376C22.9143 24.2573 22.6402 24.3771 22.4421 24.3771C22.1375 24.3771 21.8176 24.1675 21.8176 23.9729C21.8176 23.5837 22.4421 23.3742 22.8534 23.6286Z" fill="#101112"/>
</svg>