<svg xmlns="http://www.w3.org/2000/svg" width="48" height="48" viewBox="0 0 48 48" fill="none">
  <rect width="48" height="48" rx="24" fill="white"/>
  <path fill-rule="evenodd" clip-rule="evenodd" d="M25.0346 9.3335C28.5027 9.3335 31.2193 10.1427 33.2038 11.7804C35.1883 13.3988 36.1902 15.6531 36.1902 18.5816C36.1902 20.5126 35.7195 22.156 34.7897 23.5058C34.8328 23.54 34.8756 23.5747 34.918 23.6097C36.9025 25.2474 37.8851 27.5016 37.9044 30.4109C37.9044 33.2817 36.8833 35.5167 34.8217 37.0965C32.7601 38.6764 29.9086 39.4664 26.2672 39.4664H16.4603V38.2526H26.1901C29.215 38.2526 32.2399 37.636 33.9354 36.2295C35.6309 34.823 36.6906 32.9927 36.6906 30.488L36.6904 30.4301C36.6635 32.4654 35.7789 34.0721 34.1285 35.3051C32.3367 36.6345 30.41 36.8272 27.1731 36.9043C25.7666 36.9428 23.4739 36.9043 23.4739 36.9043V35.729H28.4255C28.4912 35.7263 28.5636 35.7238 28.6418 35.7211C29.6876 35.685 31.7862 35.6127 33.1844 34.573C34.668 33.4748 35.5928 32.2031 35.5928 30.392C35.5928 28.5231 34.668 27.1745 33.2037 26.0955C32.9893 25.9383 32.7716 25.797 32.5375 25.6709C32.2069 25.8868 31.8586 26.085 31.4925 26.2654C32.5578 26.4316 33.054 26.6967 33.5889 27.0199C34.5715 27.6365 35.5542 28.6384 35.5349 30.3146C35.5349 31.8367 34.822 33.012 33.7431 33.59C32.6641 34.168 31.6237 34.4955 28.5603 34.4955H12.8769V33.7441H28.541C31.065 33.7441 32.51 33.3588 33.2999 32.9349C34.1669 32.4725 34.745 31.2779 34.745 30.3146C34.745 28.8118 33.7238 28.0796 32.9724 27.6365C32.674 27.4574 31.8325 27.0704 29.8931 26.9049C28.3572 27.393 26.5771 27.6371 24.553 27.6371H14.7461V26.4233H21.9324V26.0758H28.0208C28.0932 26.0758 28.1645 26.076 28.2348 26.0763C29.2892 25.8666 30.2622 25.5584 31.0791 25.1423C30.4684 25.0044 29.7243 24.9132 28.7655 24.8642C27.8204 24.9949 26.7425 25.0437 25.4585 25.0743C24.0327 25.1128 21.7592 25.0743 21.7592 25.0743V24.8091C19.9019 24.8137 18.4837 24.8239 18.4837 24.8239V23.6486H27.5392C28.0992 23.6486 28.6085 23.6637 29.0735 23.6921C29.7642 23.5646 30.4849 23.3501 31.1096 22.9816C30.6945 22.8532 30.2585 22.7463 29.8054 22.6598C29.0771 22.7768 28.1427 22.839 26.8454 22.839H11.1621V22.0683H20.9687V21.1628H26.7488C28.1973 21.1628 29.5147 21.3039 30.7024 21.5877C31.0523 21.4745 31.3366 21.3492 31.5658 21.2206C32.4328 20.7389 33.0109 19.4866 33.0109 18.504C33.0109 16.9626 32.009 16.1919 31.2383 15.7295C30.8337 15.479 29.5621 14.8818 26.1711 14.8818H21.5085V14.1111H26.3059C30.1401 14.1111 30.9493 14.4964 31.8741 15.0744C32.8567 15.691 33.8393 16.7314 33.8393 18.504C33.8393 20.0646 33.1072 21.2977 32.0282 21.8949C31.9958 21.9129 31.9633 21.9307 31.9309 21.9482C32.0467 21.989 32.161 22.0315 32.2739 22.0755C33.2799 21.1264 33.8782 20.0187 33.8782 18.562C33.8782 16.6931 32.9533 15.3445 31.489 14.2655C30.333 13.4178 29.0807 13.0324 25.6704 12.9939C22.1446 12.9554 19.1582 12.9939 19.1582 12.9939V11.8186H25.8246C29.8321 11.8186 31.2386 12.57 32.4717 13.5141C33.2431 14.1259 34.143 14.9673 34.6265 16.3297C34.1524 14.807 33.2362 13.5379 32.1249 12.5703C30.4872 11.1446 27.8284 10.5473 24.8805 10.5473H16.403V9.3335H25.0346ZM33.9539 24.5171C34.9819 25.4367 35.8367 26.6349 36.3045 28.0572C35.8169 26.7599 34.9495 25.9391 34.1863 25.3441C33.9825 25.1913 33.774 25.0426 33.5498 24.901C33.69 24.7766 33.8247 24.6487 33.9539 24.5171ZM32.9139 23.7582C32.7324 23.945 32.5411 24.1249 32.3407 24.2984C32.091 24.2044 31.8185 24.1183 31.517 24.0416C31.8184 23.8827 32.1113 23.6986 32.4007 23.4849C32.5778 23.5707 32.749 23.6618 32.9139 23.7582ZM33.402 22.5946C33.512 22.6536 33.6203 22.7145 33.727 22.7773C34.515 21.6461 34.9764 20.2966 34.9764 18.6587C34.9764 18.6317 34.9763 18.6047 34.976 18.5778C34.9599 20.1695 34.4207 21.4997 33.402 22.5946ZM28.9069 29.3515H20.4102V28.6965H28.9069V29.3515ZM23.9167 31.6444H28.849V31.0856H23.9167V31.6444ZM18.965 29.3515H16.4603V28.6965H18.965V29.3515ZM14.8808 31.6832H22.5298V31.0281H14.8808V31.6832ZM19.7552 14.8244H16.7688V14.285H19.7552V14.8244ZM14.707 19.2173H21.5083V18.6007H14.707V19.2173ZM22.0674 36.8272H14.8808V36.0566H22.0674V36.8272ZM13.1081 39.3895H14.8999V38.2527H13.1081V39.3895ZM28.8686 17.2903H17.5781V16.6737H28.8686V17.2903ZM23.2233 19.2173H28.6566V18.6007H23.2233V19.2173Z" fill="#101112"/>
</svg>