<svg xmlns="http://www.w3.org/2000/svg" width="48" height="48" viewBox="0 0 48 48" fill="none">
  <rect width="48" height="48" rx="24" fill="white"/>
  <path d="M15.6158 26.1673L16.4625 19.9485L9.11826 14.9647L15.8286 17.1866L17.4134 14.8098L23.2 11.2998L35.9551 18.1692L36.6161 28.6504L30.9336 36.3696L26.442 37.0424L28.7648 32.8862V28.885L27.0759 25.7601L25.3598 24.6491L22.72 27.3093V30.1243L20.6599 32.0099L18.0427 32.3197L16.8836 32.9615L14.9819 32.3684L14.1895 29.5799L15.6158 27.6191V26.1673Z" fill="white"/>
  <path d="M27.3427 14.9114C25.9436 14.6281 24.4132 14.7034 24.4132 14.7034C24.4132 14.7034 23.9106 16.974 20.7954 17.5716C20.818 17.5716 24.9112 18.9392 27.3427 14.9114Z" fill="white"/>
  <path d="M28.6107 35.5153C30.2996 34.2228 31.5674 32.4435 32.1515 30.4296C32.1787 30.3544 32.4142 30.2216 32.5726 30.1198C32.8352 29.9649 33.1024 29.8365 33.1522 29.6285C33.2563 29.0354 33.3107 28.4157 33.3107 27.796C33.3107 27.5659 33.0707 27.3313 32.8352 27.1011C32.6496 26.9462 32.464 26.7647 32.464 26.6364C32.2013 24.2861 31.092 22.0907 29.3216 20.4929L29.136 20.6743C30.852 22.25 31.9614 24.3923 32.2013 26.6629C32.2285 26.871 32.4368 27.0746 32.6496 27.2826C32.8352 27.4375 33.0481 27.6721 33.0481 27.7739C33.0481 28.367 32.9937 28.9601 32.8896 29.5532C32.8624 29.655 32.627 29.7613 32.4413 29.8631C32.1787 29.9914 31.9387 30.1198 31.8889 30.3278C31.255 32.5232 29.8016 34.4353 27.8727 35.6746C28.2168 34.9531 29.299 32.6029 29.8785 31.4122L29.7744 27.5924L26.4192 24.4189L24.5175 24.6756L22.4302 27.9819C22.4302 27.9819 23.4082 29.1947 22.0317 30.6155C20.6869 32.0097 19.6274 32.3196 19.6274 32.3196L18.6494 31.8017C18.9391 31.4388 19.5232 30.8988 19.9715 30.5358C20.7367 29.9162 21.5019 29.8631 21.5019 29.1947C21.5336 27.796 19.9987 28.1811 19.9987 28.1811L19.4417 28.699L19.2063 30.6111L18.0472 32.0319L17.9158 32.0053L16.0141 31.5937C16.0141 31.5937 17.1778 31.0006 17.3634 30.3278C17.5491 29.6816 16.9922 27.5393 16.965 27.411C16.9922 27.4375 17.5219 27.8757 17.7574 28.5972C18.1785 27.4596 18.7354 26.3752 18.8939 26.2734C19.0523 26.1716 21.1895 25.0607 21.1895 25.0607L20.4786 26.8931L21.0084 26.6098L22.2762 23.5646C22.2762 23.5646 23.5168 22.9715 24.4405 22.9715C26.1023 22.9449 28.5609 20.9576 27.4516 17.3945C27.7685 17.5229 33.2609 20.2096 34.2117 25.4767C34.9226 29.5267 32.5726 33.3199 28.6107 35.5153Z" fill="white"/>
  <path d="M22.3262 15.4777C22.9329 14.7784 22.6975 13.7471 22.6975 13.7471L20.9271 16.3054C20.8999 16.3054 21.5565 16.332 22.3262 15.4777Z" fill="#101112"/>
  <path d="M16.3807 29.4473L16.5935 28.416C16.5935 28.416 15.7196 29.9121 15.6426 30.1201C15.5611 30.3547 15.6969 30.7663 16.0365 30.7398C16.3807 30.7132 16.8018 30.2219 16.8018 29.8634C16.8018 29.3986 16.3807 29.4473 16.3807 29.4473Z" fill="#101112"/>
  <path d="M32.0702 13.0259C32.0702 13.0259 33.3923 13.079 34.7642 13.2339C31.6717 10.8571 28.7422 10.1622 26.365 10.1622C23.0913 10.1622 20.8727 11.4812 20.7368 11.5564L21.7692 9.95412C21.7692 9.95412 17.6488 9.56462 16.1954 13.827C15.8241 12.9241 15.4845 11.6051 15.4845 11.6051C15.4845 11.6051 13.3428 13.4419 14.348 16.4872C11.8893 15.6108 8.38023 14.3936 8.24439 14.3714C8.05875 14.3449 8.00441 14.4246 8.00441 14.4246C8.00441 14.4246 7.95008 14.4998 8.10855 14.6326C8.40287 14.8583 13.9495 18.864 15.1675 19.6386C14.9049 20.5681 14.9049 21.0063 15.1675 21.4445C15.5388 22.0376 15.5615 22.3474 15.5117 22.7856C15.4573 23.2238 14.9819 27.0214 14.8778 27.4862C14.7736 27.9509 13.6643 29.6019 13.7141 30.0932C13.7684 30.5845 14.4521 32.6737 15.0634 32.9082C15.5117 33.0632 16.621 33.3996 17.359 33.3996C17.6217 33.3996 17.8616 33.3464 17.9658 33.2446C18.414 32.8596 18.5453 32.7799 18.8623 32.7799C18.8895 32.7799 18.9166 32.7799 18.9393 32.7799C19.0706 32.7799 19.2291 32.8064 19.4147 32.8064C19.8358 32.8064 20.3927 32.7268 20.7867 32.3683C21.3662 31.8017 22.3714 31.0271 22.6884 30.6642C23.0868 30.1729 23.2951 29.5045 23.191 28.8317C23.1095 28.2121 23.4536 27.6677 23.852 27.1277C24.3546 26.4814 25.2783 25.3218 25.2783 25.3218C27.1031 26.6585 28.2396 28.699 28.2396 30.9696C28.2396 34.9974 24.6489 38.2506 20.2116 38.2506C19.5234 38.2506 18.8668 38.1754 18.2058 38.0205C20.2388 38.7154 21.9548 38.95 23.3585 38.95C26.3424 38.95 27.9271 37.8921 27.9271 37.8921C27.9271 37.8921 27.3747 38.5915 26.4737 39.3882C26.5009 39.3882 26.5009 39.3882 26.5009 39.3882C31.4408 38.7154 33.8451 34.7407 33.8451 34.7407C33.8451 34.7407 33.6594 36.0331 33.424 36.9095C39.994 32.0806 38.8846 26.0388 38.8575 25.8352C38.9118 25.9105 39.5729 26.6851 39.9125 27.1011C40.972 16.4606 32.0702 13.0259 32.0702 13.0259ZM21.9548 30.018C21.8507 30.1463 21.4024 30.5358 21.0855 30.8191C20.7685 31.1024 20.4244 31.3856 20.1618 31.6468C20.0577 31.7486 19.8448 31.8017 19.5279 31.8017C19.4238 31.8017 19.3151 31.8017 19.2381 31.8017C19.1838 31.8017 19.134 31.8017 19.0796 31.8017C19.0253 31.8017 18.9981 31.8017 18.9755 31.8017C18.894 31.8017 18.817 31.8017 18.7355 31.8017C19.134 31.2838 20.2931 30.0976 20.6916 29.8409C21.167 29.5311 21.407 29.2212 21.1127 28.6813C20.8229 28.1368 20.0577 28.2696 20.0577 28.2696C20.0577 28.2696 20.5059 28.0881 20.9044 28.0881C20.4018 27.9598 19.7679 28.0881 19.4781 28.3714C19.1611 28.6547 19.2155 29.6639 19.0842 30.3057C18.9529 30.9784 18.5046 31.3148 17.8164 31.9345C17.4451 32.2709 17.1824 32.3727 16.9696 32.3727C16.5214 32.2974 15.9916 32.1646 15.6203 32.0363C15.3577 31.6999 14.9593 30.5889 14.8551 30.1242C14.9321 29.8675 15.249 29.323 15.4075 29.0132C15.7245 28.4201 15.9101 28.0837 15.9644 27.7739C16.0686 27.3357 16.4127 24.6225 16.544 23.4894C16.8881 23.9275 17.3636 24.6534 17.2549 25.1182C18.0201 24.0603 17.4677 23.0246 17.2006 22.613C16.9651 22.2013 16.6482 21.3736 16.9108 20.4973C17.1734 19.6209 18.1243 17.1909 18.1243 17.1909C18.1243 17.1909 18.4412 17.7353 18.8895 17.6291C19.3377 17.5273 22.9555 12.207 22.9555 12.207C22.9555 12.207 23.9335 14.2962 22.9012 15.8232C21.8462 17.3458 20.8138 17.6291 20.8138 17.6291C20.8138 17.6291 22.2673 17.8858 23.6121 16.9298C24.1645 18.1957 24.6942 19.5102 24.7214 19.6917C24.6399 19.8732 23.5849 22.3518 23.4807 22.5067C23.4264 22.5599 23.0597 22.6617 22.7925 22.7148C22.3442 22.8431 22.0816 22.9228 21.973 22.9981C21.7873 23.153 20.9406 25.4236 20.5467 26.5346C20.0712 26.6629 19.5958 26.9241 19.2517 27.4375C19.4373 27.3091 20.0169 27.2295 20.4425 27.1808C20.8138 27.1542 21.9458 27.7473 22.2401 28.8583C22.2401 28.8849 22.2401 28.8849 22.2401 28.9114C22.299 29.3186 22.1677 29.7081 21.9548 30.018ZM19.4736 30.3278C19.7135 29.9914 19.6864 29.4249 19.7135 29.2434C19.7407 29.0619 19.7905 28.7255 20.0033 28.6768C20.2161 28.6237 20.7187 28.7034 20.7187 29.0619C20.7187 29.3983 20.3474 29.4735 20.0848 29.7081C19.8947 29.8852 19.5234 30.2747 19.4736 30.3278ZM30.01 25.3926C30.2726 24.078 30.2997 22.9405 30.2228 22.011C31.2506 23.3521 31.8845 24.981 32.0702 26.6585C32.0973 26.8665 32.3056 27.0701 32.5184 27.2782C32.7041 27.4331 32.9169 27.6411 32.9169 27.7695C32.9169 28.3626 32.8625 28.9557 32.7584 29.5532C32.7312 29.6285 32.4958 29.7612 32.3101 29.863C32.0475 29.9914 31.8075 30.1198 31.7577 30.3278C31.1782 32.3151 29.933 34.0723 28.2713 35.3117C30.7254 32.8064 31.9117 28.6724 30.01 25.3926ZM28.3482 35.5418C30.0643 34.2494 31.3864 32.4435 31.966 30.403C31.9932 30.3278 32.2286 30.195 32.3871 30.0932C32.6497 29.9648 32.9169 29.8099 32.9667 29.6019C33.0708 29.0088 33.1252 28.3891 33.1252 27.7695C33.1252 27.5393 32.8852 27.3047 32.6497 27.0746C32.5184 26.9196 32.3056 26.7382 32.3056 26.6098C32.0928 24.7243 31.3276 22.9449 30.1413 21.471C29.6115 18.3727 27.5015 17.4166 27.4472 17.3901C27.5015 17.4698 28.8735 19.404 27.9226 21.6746C26.9446 23.9718 24.4361 23.6133 24.2233 23.6354C24.0105 23.6354 23.1955 24.6667 22.1631 26.5788C22.0318 26.5257 21.4749 26.3974 20.841 26.5036C21.3164 25.2111 22.0318 23.3787 22.1631 23.2238C22.2175 23.1707 22.6114 23.0689 22.8785 22.9936C23.3811 22.8653 23.6166 22.7856 23.6981 22.6838C23.7524 22.6041 24.015 22.011 24.2777 21.3914C24.5176 21.3914 25.1244 21.3382 25.1742 21.3117C25.2285 21.2586 25.7311 19.9971 25.7311 19.8422C25.7311 19.7138 24.6987 17.2086 24.3048 16.2526C24.4905 16.0445 24.6761 15.7878 24.8572 15.5045C30.2726 16.0755 34.5016 20.5681 34.5016 26.0123C34.5016 30.195 31.9932 33.8377 28.3482 35.5418Z" fill="#101112"/>
  <path d="M21.321 21.5992C21.8236 21.0327 21.561 19.9748 20.6327 19.7933C20.8727 19.2534 21.2123 18.1689 21.2123 18.1689C21.2123 18.1689 18.5182 22.2986 18.2828 22.3782C18.0428 22.4579 17.8073 21.5505 17.8073 21.5505C17.3047 23.4361 18.654 23.6928 18.8125 23.0997C19.5506 22.9138 20.8184 22.1392 21.321 21.5992Z" fill="#101112"/>
  <path d="M19.0206 22.6038L20.3926 20.3066C20.3926 20.3066 21.1849 20.6961 20.7865 21.3158C20.2884 22.0373 19.0206 22.6038 19.0206 22.6038Z" fill="white"/>
  <path d="M36.0046 33.2446C35.6061 33.7624 35.1579 34.3024 34.6326 34.8203C38.0376 28.4156 34.7911 22.5554 34.6598 22.3252C34.8998 22.5598 35.1352 22.8165 35.348 23.0467C37.9606 25.8838 38.2776 30.1462 36.0046 33.2446Z" fill="white"/>
  <path d="M39.1744 25.0073C37.9836 21.8824 36.2947 19.2223 32.5727 16.8233C28.9821 14.4995 25.1244 14.681 24.9115 14.7076C24.8844 14.7076 24.8572 14.7076 24.8572 14.7076C24.9885 14.6544 25.1198 14.6279 25.2511 14.6058C26.0707 14.349 27.1257 14.141 28.1852 14.0127C30.988 13.6187 33.8134 14.5482 35.7423 16.54C35.7694 16.5666 35.7694 16.5666 35.7966 16.5931C37.9881 18.8637 39.1246 21.7009 39.1744 25.0073Z" fill="white"/>
  <path d="M31.7258 12.2247C27.7911 11.5033 25.2555 11.8618 23.4307 12.5346C23.3764 12.3265 23.1907 11.9149 23.0323 11.5785C22.4844 12.2247 21.9003 12.9993 21.5335 13.4906C20.5283 14.1634 20.1072 14.8096 20.1072 14.8096C20.6868 12.871 22.3802 11.428 24.4404 11.0651C25.02 10.9633 25.6539 10.9102 26.3421 10.9102C28.1624 10.9367 29.9826 11.3749 31.7258 12.2247Z" fill="white"/>
  <path d="M17.1729 17.1821C14.0849 17.0803 15.1127 13.5659 15.1671 13.3623C15.1671 13.3889 15.3753 16.1242 17.1729 17.1821Z" fill="white"/>
  <path d="M20.2116 10.8569C17.8345 12.2512 18.3099 15.5797 18.3099 15.5797C16.0369 12.2025 20.026 10.9366 20.2116 10.8569Z" fill="white"/>
  <path d="M16.3039 18.1115C16.4624 18.2399 16.6208 18.4745 16.4352 18.8109C16.3311 18.9923 16.1726 18.9658 15.9326 18.864C15.6156 18.7091 13.7139 17.6246 11.9979 16.5137C13.9539 17.1864 15.9326 17.9079 16.2496 18.0628C16.2496 18.0628 16.2767 18.0894 16.3039 18.1115Z" fill="white"/>
</svg>