<svg width="40" height="40" viewBox="0 0 40 40" fill="none" xmlns="http://www.w3.org/2000/svg">
<rect x="0.5" y="0.5" width="39" height="39" rx="19.5" fill="white" stroke="#907ACC"/>
<path d="M31.9999 19.9487C32.0151 24.8039 29.1245 29.1901 24.6448 31.0656C20.1652 32.9411 15.0045 31.9428 11.554 28.5246C8.10345 25.1064 7.0592 19.9487 8.89041 15.4566C10.7216 10.9645 15.0953 8.03028 19.9382 8.00003C26.582 7.98491 31.9697 13.324 31.9999 19.9487Z" fill="#101112"/>
<path d="M30.9999 19.9389C31.0156 24.3955 28.2414 28.4169 23.9468 30.1425C19.6522 31.8681 14.715 30.9377 11.4079 27.8167C8.10074 24.6806 7.09763 19.9539 8.85308 15.8425C10.6085 11.7161 14.7934 9.03015 19.4328 9.00014C25.7963 8.97013 30.9686 13.8618 30.9999 19.9389Z" fill="white"/>
<path d="M20 9.08907C20.6893 8.97031 21.3786 8.97031 22.0679 9.08907C22.7572 9.19298 23.4318 9.4305 24.0477 9.75708C24.6637 10.0985 25.1917 10.5587 25.7196 10.9892C26.2476 11.4197 26.7756 11.865 27.2742 12.3549C27.7875 12.83 28.2275 13.3792 28.5941 13.973C28.9754 14.5668 29.2834 15.2051 29.5181 15.8583C29.9727 17.1943 30.1193 18.6343 29.8994 20H29.826C29.606 18.6343 29.2981 17.3428 28.8141 16.1107C28.5941 15.4872 28.3155 14.8785 28.0222 14.2996C27.6995 13.7206 27.3622 13.1417 26.9809 12.6073C26.5996 12.058 26.1156 11.5682 25.573 11.1673C25.0303 10.7665 24.3997 10.5142 23.7984 10.2767C23.1971 10.0391 22.5812 9.78678 21.9505 9.59379C21.3199 9.41566 20.6746 9.26721 20 9.1336V9.08907Z" fill="white"/>
<path d="M25.5211 16.1379C24.6704 15.9147 23.7877 15.5874 22.8888 15.26C22.8407 15.0517 22.632 14.7988 22.2307 14.4715C21.6529 13.9954 20.5454 14.0102 19.5984 14.2185C18.5551 13.9954 17.5118 13.9061 16.5166 14.1293C8.37887 16.2123 12.9855 21.2709 10 26.3742C10.4173 27.2074 15.0079 32.0875 21.6368 30.7782C21.6368 30.7782 19.3737 25.7344 24.4939 23.3093C28.651 21.3453 31.6365 17.6852 25.5211 16.1379Z" fill="#101112"/>
<path d="M26 19.5114C26 19.9403 25.516 20.1627 25.2374 19.8609C24.9587 19.5591 25.1494 19.0348 25.5454 19.019C25.7947 19.0348 26 19.2414 26 19.5114ZM20.1776 17.2716C20.1776 18.177 19.6643 19.0031 18.887 19.3526C18.1097 19.702 17.2151 19.5114 16.6138 18.8601C16.0125 18.2088 15.8365 17.2398 16.1592 16.3979C16.4818 15.556 17.2444 15 18.0804 15C18.6377 15 19.1657 15.2383 19.547 15.6513C19.9576 16.0961 20.1776 16.668 20.1776 17.2716Z" fill="white"/>
<path d="M20 17.5119C20 18.1107 19.521 18.6646 18.7625 18.8891C18.024 19.1137 17.1658 18.9939 16.587 18.5598C16.0081 18.1257 15.8485 17.4969 16.1479 16.9281C16.4472 16.3742 17.1857 16 17.9841 16C19.1018 16.015 20 16.6886 20 17.5119Z" fill="#101112"/>
<path d="M28 20.8772C26.2047 22.0233 24.1596 22.8863 21.2715 22.8863C19.9133 22.8863 19.6479 21.5847 18.7424 22.2213C18.2741 22.5468 16.6505 23.2825 15.3547 23.24C14.059 23.1834 11.967 22.4902 11.3894 20C11.1552 22.5043 11.046 24.3436 10 26.4518C12.0607 29.4513 16.9783 31.7575 21.4432 30.7671C20.9592 27.7252 23.8942 24.7539 25.5334 23.24C26.1735 22.6458 27.3755 21.712 28 20.8772Z" fill="#101112"/>
<path d="M27.9851 20C27.4478 20.4522 26.8209 20.781 26.1791 21.0688C25.5224 21.3565 24.8507 21.5757 24.1493 21.7539C23.4478 21.9183 22.7164 22.0416 21.9851 21.9868C21.2388 21.932 20.4925 21.6991 20 21.1921L20.0299 21.1647C20.6269 21.5209 21.3284 21.6442 22.0149 21.6717C22.7164 21.6854 23.4179 21.6443 24.1045 21.5209C24.791 21.3839 25.4776 21.1921 26.1343 20.9454C26.791 20.6988 27.4328 20.4111 28 20H27.9851Z" fill="white"/>
</svg>
