<svg width="40" height="40" viewBox="0 0 40 40" fill="none" xmlns="http://www.w3.org/2000/svg">
<rect x="0.5" y="0.5" width="39" height="39" rx="19.5" fill="white" stroke="#907ACC"/>
<path fill-rule="evenodd" clip-rule="evenodd" d="M20.0218 11.0926L13.5244 13.1497C13.4664 13.1643 13.4084 13.1643 13.3794 13.1497C13.3068 13.1497 13.2488 13.1351 13.2053 13.106C13.1473 13.0768 13.0893 13.033 13.0603 12.9892C13.0313 12.9455 13.0023 12.8871 12.9878 12.8288C12.9733 12.7704 12.9733 12.712 12.9733 12.6537V12.6537C12.9733 12.5953 12.9878 12.537 13.0168 12.4786C13.0313 12.4203 13.0748 12.3765 13.1183 12.3327C13.1333 12.3252 13.1473 12.3176 13.1608 12.3104L13.1609 12.3103C13.1998 12.2894 13.2348 12.2706 13.2778 12.2598L19.8913 10.1588C19.9783 10.1297 20.0654 10.1297 20.1524 10.1588L26.9254 12.3181C26.9834 12.3181 27.0414 12.3473 27.0849 12.3911C27.1284 12.4348 27.1574 12.4786 27.1864 12.537C27.2155 12.5953 27.23 12.6537 27.23 12.712C27.23 12.7704 27.23 12.8288 27.2155 12.8871C27.2155 12.9455 27.1864 13.0038 27.1429 13.0476C27.0994 13.106 27.0559 13.1351 26.9979 13.1643C26.9399 13.1935 26.8819 13.2081 26.8239 13.2081C26.7659 13.2081 26.7078 13.2081 26.6498 13.1935L20.0218 11.0926ZM26.0841 21.5971L29.0778 15.1283C29.1107 15.55 29.1244 15.9738 29.1153 16.4033C29.1153 17.906 28.9413 19.3942 28.5932 20.8531C28.1291 22.8227 27.3169 24.7048 26.2002 26.3972C25.033 28.1385 23.3916 29.8441 21.083 31.2981L26.0696 21.6117L26.0841 21.5971ZM10.9215 14.9985L18.9908 31.3598C16.6356 29.9141 14.9673 28.174 13.7854 26.3972C12.6541 24.7048 11.8564 22.8373 11.3923 20.8531C11.0443 19.3942 10.8702 17.906 10.8702 16.4033C10.8702 15.9388 10.8841 15.4673 10.9215 14.9985ZM29.6011 13.2093C29.637 13.2373 29.6713 13.2738 29.6954 13.3103C29.7244 13.3686 29.7389 13.427 29.7534 13.4853L29.8695 14.2148C29.9565 14.9443 30 15.6738 30 16.4033C30 17.979 29.826 19.5401 29.4634 21.072C28.9848 23.1437 28.1291 25.1279 26.9398 26.9079C25.5765 28.9358 23.5896 30.9346 20.7614 32.5249L20.2248 32.8313C20.1523 32.8605 20.0798 32.875 20.0073 32.875C19.9348 32.875 19.8622 32.8605 19.7897 32.8313L19.2531 32.5249C16.4105 30.9492 14.438 28.9504 13.0747 26.9079C12.4801 26.0179 11.9725 25.0841 11.5519 24.1066C11.1313 23.1291 10.7977 22.1078 10.5512 21.072C10.1886 19.5401 10 17.979 10 16.4033C10 15.6738 10.0435 14.9443 10.1306 14.2294L10.2466 13.4999C10.2611 13.4416 10.2756 13.3832 10.3046 13.3248C10.3074 13.3207 10.3103 13.3165 10.3133 13.3123C10.3242 13.2904 10.3362 13.2698 10.3481 13.2518C10.3771 13.208 10.4351 13.1643 10.4787 13.1351C10.5367 13.1059 10.5947 13.0913 10.6527 13.0913C10.7107 13.0767 10.7687 13.0767 10.8267 13.1059C10.8847 13.1205 10.9428 13.1497 10.9863 13.1934C11.0008 13.2153 11.0189 13.2409 11.037 13.2664C11.0552 13.2919 11.0733 13.3175 11.0878 13.3393L14.9945 21.2761H25.1269C25.1562 21.2761 25.1854 21.2798 25.2146 21.2854L25.272 21.174L28.8978 13.3393C28.9123 13.281 28.9558 13.2372 28.9993 13.1934C29.0428 13.1497 29.1008 13.1205 29.1588 13.1059C29.2168 13.0913 29.2749 13.0913 29.3329 13.0913C29.4054 13.0913 29.4634 13.1059 29.5069 13.1351C29.5361 13.1547 29.5719 13.1809 29.6011 13.2093ZM24.7538 22.1807H15.4397L19.9928 31.4306L24.7538 22.1807Z" fill="#101112"/>
</svg>
