<svg xmlns="http://www.w3.org/2000/svg" width="40" height="40" viewBox="0 0 40 40" fill="none">
<rect x="0.5" y="0.5" width="39" height="39" rx="19.5" fill="white" stroke="#907ACC"/>
<path d="M28.8748 22.3488C28.4498 22.6047 27.9539 22.6512 27.576 22.4419C27.1038 22.1628 26.8204 21.5349 26.8204 20.6744V18.0465C26.8204 16.7907 26.3245 15.8837 25.4744 15.6512C24.0339 15.2326 22.9477 16.9767 22.5463 17.6279L19.9959 21.6512V16.6977C19.9723 15.5581 19.5945 14.8837 18.8861 14.6744C18.4138 14.5349 17.7054 14.6047 17.0206 15.6279L11.3296 24.6046C10.5739 23.186 10.1725 21.6047 10.1725 20C10.1725 14.5814 14.5883 10.186 19.9959 10.186C25.4035 10.186 29.8194 14.5814 29.8194 20V20.0233V20.0465C29.8666 21.093 29.536 21.9302 28.8748 22.3488ZM31.9919 20V19.9767V19.9535C31.9683 13.3721 26.5842 8 19.9959 8C13.384 8 8 13.3721 8 20C8 26.6047 13.384 32 19.9959 32C23.0421 32 25.9231 30.8605 28.1428 28.7907C28.5914 28.3721 28.6151 27.6977 28.19 27.2558C27.7886 26.814 27.1038 26.7907 26.6551 27.186C26.6551 27.186 26.6551 27.186 26.6315 27.2093C24.8368 28.8837 22.4282 29.8372 19.9487 29.8372C17.0442 29.8372 14.4466 28.5814 12.652 26.5814L17.7762 18.4884V22.2326C17.7762 24.0233 18.4846 24.6047 19.075 24.7674C19.6653 24.9302 20.5627 24.814 21.5308 23.3023L24.3409 18.814C24.4354 18.6744 24.5062 18.5349 24.6007 18.4419V20.7209C24.6007 22.3954 25.2855 23.7442 26.4662 24.3953C27.5288 25 28.8748 24.9302 29.9847 24.2558C31.3543 23.3721 32.0863 21.8372 31.9919 20Z" fill="#101112"/>
</svg>