<svg xmlns="http://www.w3.org/2000/svg" width="64" height="64" viewBox="0 0 64 64" fill="none">
<mask id="mask0_134_2248" style="mask-type:luminance" maskUnits="userSpaceOnUse" x="0" y="0" width="64" height="64">
<rect width="64" height="64" rx="32" fill="white"/>
</mask>
<g mask="url(#mask0_134_2248)">
<rect width="64" height="64" fill="white"/>
<path fill-rule="evenodd" clip-rule="evenodd" d="M31.5711 15.6874L20.0298 19.3198C19.9267 19.3456 19.8237 19.3456 19.7722 19.3198C19.6433 19.3198 19.5403 19.2941 19.463 19.2425C19.36 19.191 19.2569 19.1137 19.2054 19.0364C19.1539 18.9591 19.1023 18.8561 19.0766 18.7531C19.0508 18.65 19.0508 18.547 19.0508 18.4439V18.4439C19.0508 18.3409 19.0766 18.2378 19.1281 18.1348C19.1539 18.0317 19.2312 17.9544 19.3084 17.8772C19.3351 17.8638 19.36 17.8505 19.384 17.8377C19.4531 17.8007 19.5154 17.7674 19.5918 17.7483L31.3392 14.0386C31.4938 13.9871 31.6483 13.9871 31.8029 14.0386L43.8337 17.8514C43.9367 17.8514 44.0398 17.9029 44.1171 17.9802C44.1943 18.0575 44.2459 18.1348 44.2974 18.2378C44.3489 18.3409 44.3747 18.4439 44.3747 18.547C44.3747 18.65 44.3747 18.7531 44.3489 18.8561C44.3489 18.9591 44.2974 19.0622 44.2201 19.1395C44.1428 19.2425 44.0655 19.2941 43.9625 19.3456C43.8594 19.3971 43.7564 19.4229 43.6534 19.4229H43.6533C43.5503 19.4229 43.4472 19.4229 43.3442 19.3971L31.5711 15.6874ZM42.3395 34.2358L47.6572 22.8134C47.7156 23.558 47.7399 24.3063 47.7237 25.0648C47.7237 27.7182 47.4146 30.3459 46.7963 32.9221C45.9719 36.4 44.5293 39.7232 42.5456 42.7116C40.4725 45.7864 37.5568 48.7979 33.456 51.3654L42.3137 34.2616L42.3395 34.2358ZM15.4065 22.5843L29.7397 51.4743C25.5563 48.9215 22.5929 45.8489 20.4935 42.7116C18.4841 39.7232 17.0672 36.4257 16.2428 32.9221C15.6245 30.3459 15.3154 27.7182 15.3154 25.0648C15.3154 24.2446 15.34 23.4121 15.4065 22.5843ZM48.5864 19.4248C48.6503 19.4743 48.7112 19.5388 48.7542 19.6033C48.8057 19.7063 48.8315 19.8093 48.8572 19.9124L49.0633 21.2005C49.2179 22.4886 49.2952 23.7767 49.2952 25.0648C49.2952 27.847 48.9861 30.6035 48.342 33.3085C47.4919 36.9667 45.9719 40.4703 43.8595 43.6133C41.4378 47.1942 37.9085 50.7235 32.8849 53.5316L31.9317 54.0726C31.8029 54.1241 31.6741 54.1498 31.5453 54.1498C31.4165 54.1498 31.2877 54.1241 31.1589 54.0726L30.2057 53.5316C25.1564 50.7493 21.6528 47.2199 19.2312 43.6133C18.1749 42.0418 17.2733 40.393 16.5262 38.667C15.7791 36.9409 15.1866 35.1376 14.7486 33.3085C14.1046 30.6035 13.7697 27.847 13.7697 25.0648C13.7697 23.7767 13.8469 22.4886 14.0015 21.2262L14.2076 19.9382C14.2334 19.8351 14.2591 19.7321 14.3107 19.629C14.3155 19.6217 14.3206 19.6144 14.3259 19.6071C14.3454 19.5682 14.3667 19.5319 14.3879 19.5C14.4395 19.4228 14.5425 19.3455 14.6198 19.2939C14.7228 19.2424 14.8259 19.2167 14.9289 19.2167C15.032 19.1909 15.135 19.1909 15.2381 19.2424C15.3411 19.2682 15.4442 19.3197 15.5214 19.397C15.5472 19.4356 15.5794 19.4807 15.6116 19.5258C15.6438 19.5709 15.676 19.616 15.7018 19.6546L22.6412 33.6691H40.6392C40.6912 33.6691 40.7431 33.6756 40.795 33.6854L40.8968 33.4887L47.3373 19.6546C47.3631 19.5516 47.4403 19.4743 47.5176 19.397C47.5949 19.3197 47.698 19.2682 47.801 19.2424C47.904 19.2167 48.0071 19.2167 48.1101 19.2167C48.239 19.2167 48.342 19.2424 48.4193 19.2939C48.4712 19.3285 48.5347 19.3748 48.5864 19.4248ZM39.9764 35.2663H23.4321L31.5195 51.5993L39.9764 35.2663Z" fill="#101112"/>
</g>
</svg>