<svg xmlns="http://www.w3.org/2000/svg" width="24" height="24" viewBox="0 0 24 24" fill="none">
<path d="M12.0288 20.5C9.66774 20.5 7.66081 19.6736 6.00804 18.0208C4.35526 16.368 3.52887 14.3611 3.52887 12C3.52887 9.7372 4.29649 7.79651 5.83174 6.17793C7.36698 4.55934 9.24677 3.68274 11.4711 3.54813C11.6147 3.54813 11.7557 3.55325 11.8942 3.5635C12.0326 3.57375 12.1685 3.58913 12.3018 3.60965C11.7916 4.08657 11.3852 4.66284 11.0826 5.33848C10.7801 6.01413 10.6288 6.73463 10.6288 7.5C10.6288 9.1389 11.2024 10.532 12.3496 11.6792C13.4969 12.8264 14.8899 13.4 16.5288 13.4C17.3045 13.4 18.0275 13.2488 18.698 12.9462C19.3685 12.6437 19.9391 12.2373 20.4096 11.727C20.4301 11.8603 20.4455 11.9962 20.4557 12.1347C20.466 12.2731 20.4711 12.4141 20.4711 12.5577C20.3429 14.7821 19.4695 16.6619 17.8509 18.1971C16.2323 19.7323 14.2916 20.5 12.0288 20.5ZM12.0288 19C13.4955 19 14.8122 18.5958 15.9788 17.7875C17.1455 16.9792 17.9955 15.925 18.5288 14.625C18.1955 14.7083 17.8622 14.775 17.5288 14.825C17.1955 14.875 16.8622 14.9 16.5288 14.9C14.4788 14.9 12.733 14.1792 11.2913 12.7375C9.84968 11.2958 9.12884 9.55 9.12884 7.5C9.12884 7.16667 9.15384 6.83333 9.20384 6.5C9.25384 6.16667 9.32051 5.83333 9.40384 5.5C8.10384 6.03333 7.04968 6.88333 6.24134 8.05C5.43301 9.21667 5.02884 10.5333 5.02884 12C5.02884 13.9333 5.71218 15.5833 7.07884 16.95C8.44551 18.3167 10.0955 19 12.0288 19Z" fill="white"/>
</svg>