<svg width="24" height="24" viewBox="0 0 24 24" fill="none" xmlns="http://www.w3.org/2000/svg">
<path d="M12.0288 20.5C9.66768 20.5 7.66075 19.6736 6.00798 18.0208C4.3552 16.368 3.52881 14.3611 3.52881 12C3.52881 9.7372 4.29643 7.79651 5.83168 6.17793C7.36692 4.55934 9.24671 3.68274 11.4711 3.54813C11.6146 3.54813 11.7557 3.55325 11.8941 3.5635C12.0326 3.57375 12.1685 3.58913 12.3018 3.60965C11.7915 4.08657 11.3851 4.66284 11.0826 5.33848C10.78 6.01413 10.6287 6.73463 10.6287 7.5C10.6287 9.1389 11.2024 10.532 12.3496 11.6792C13.4968 12.8264 14.8899 13.4 16.5288 13.4C17.3044 13.4 18.0275 13.2488 18.698 12.9462C19.3685 12.6437 19.939 12.2373 20.4095 11.727C20.43 11.8603 20.4454 11.9962 20.4557 12.1347C20.4659 12.2731 20.4711 12.4141 20.4711 12.5577C20.3428 14.7821 19.4694 16.6619 17.8509 18.1971C16.2323 19.7323 14.2916 20.5 12.0288 20.5ZM12.0288 19C13.4955 19 14.8121 18.5958 15.9788 17.7875C17.1455 16.9792 17.9955 15.925 18.5288 14.625C18.1955 14.7083 17.8621 14.775 17.5288 14.825C17.1955 14.875 16.8621 14.9 16.5288 14.9C14.4788 14.9 12.733 14.1792 11.2913 12.7375C9.84962 11.2958 9.12878 9.55 9.12878 7.5C9.12878 7.16667 9.15378 6.83333 9.20378 6.5C9.25378 6.16667 9.32045 5.83333 9.40378 5.5C8.10378 6.03333 7.04962 6.88333 6.24128 8.05C5.43295 9.21667 5.02878 10.5333 5.02878 12C5.02878 13.9333 5.71212 15.5833 7.07878 16.95C8.44545 18.3167 10.0954 19 12.0288 19Z" fill="#101112"/>
</svg>
