<svg width="51" height="60" viewBox="0 0 51 60" fill="none" xmlns="http://www.w3.org/2000/svg">
<g clip-path="url(#clip0_564_7802)">
<path d="M44.1498 0.556921L38.1822 9.12697C38.0891 9.26078 38.0894 9.43912 38.1828 9.57266L44.0588 17.9599C44.2109 18.1765 44.5288 18.1788 44.6836 17.9643L50.7404 9.57374C50.8369 9.43992 50.8385 9.25906 50.7441 9.12358L44.7789 0.556921C44.6259 0.337146 44.3028 0.337146 44.1498 0.556921Z" fill="url(#paint0_linear_564_7802)"/>
<path d="M44.1498 0.556921L38.1822 9.12697C38.0891 9.26078 38.0894 9.43912 38.1828 9.57266L44.0588 17.9599C44.2109 18.1765 44.5288 18.1788 44.6836 17.9643L50.7404 9.57374C50.8369 9.43992 50.8385 9.25906 50.7441 9.12358L44.7789 0.556921C44.6259 0.337146 44.3028 0.337146 44.1498 0.556921Z" fill="url(#paint1_linear_564_7802)"/>
<path d="M44.4641 0.395508L38.2017 9.31525L28.995 9.68885L35.4911 0.815809L44.4641 0.395508Z" fill="url(#paint2_linear_564_7802)"/>
<path d="M29.043 9.80322L38.2482 9.43018L44.4161 18.1498L35.5378 18.3363L29.043 9.80322Z" fill="url(#paint3_linear_564_7802)"/>
<path d="M29.043 9.80322L38.2482 9.43018L44.4161 18.1498L35.5378 18.3363L29.043 9.80322Z" fill="url(#paint4_linear_564_7802)"/>
<path d="M29.043 9.80322L38.2482 9.43018L44.4161 18.1498L35.5378 18.3363L29.043 9.80322Z" fill="url(#paint5_linear_564_7802)"/>
<path fill-rule="evenodd" clip-rule="evenodd" d="M30.1427 10.0503L36.1215 17.8745L35.5124 18.347L29.0749 9.9223C28.9692 9.78407 28.9684 9.59176 29.0728 9.4526L35.6062 0.742676L36.2195 1.20962L30.1697 9.27471L38.6877 9.01638L38.7108 9.79048L30.1427 10.0503Z" fill="url(#paint6_radial_564_7802)"/>
<path d="M36.8205 10.7107L30.8529 19.2808C30.7597 19.4146 30.76 19.5929 30.8535 19.7265L36.7295 28.1137C36.8816 28.3303 37.1995 28.3326 37.3543 28.1181L43.4111 19.7275C43.5076 19.5937 43.5091 19.4129 43.4148 19.2774L37.4496 10.7107C37.2966 10.491 36.9735 10.491 36.8205 10.7107Z" fill="url(#paint7_linear_564_7802)"/>
<path d="M36.8205 10.7107L30.8529 19.2808C30.7597 19.4146 30.76 19.5929 30.8535 19.7265L36.7295 28.1137C36.8816 28.3303 37.1995 28.3326 37.3543 28.1181L43.4111 19.7275C43.5076 19.5937 43.5091 19.4129 43.4148 19.2774L37.4496 10.7107C37.2966 10.491 36.9735 10.491 36.8205 10.7107Z" fill="url(#paint8_linear_564_7802)"/>
<path d="M37.1347 10.5498L30.8724 19.4696L21.6656 19.8432L28.1617 10.9701L37.1347 10.5498Z" fill="url(#paint9_linear_564_7802)"/>
<path d="M21.7137 19.957L30.9188 19.584L37.0868 28.3036L28.2086 28.4901L21.7137 19.957Z" fill="url(#paint10_linear_564_7802)"/>
<path d="M21.7137 19.957L30.9188 19.584L37.0868 28.3036L28.2086 28.4901L21.7137 19.957Z" fill="url(#paint11_linear_564_7802)"/>
<path d="M21.7137 19.957L30.9188 19.584L37.0868 28.3036L28.2086 28.4901L21.7137 19.957Z" fill="url(#paint12_linear_564_7802)"/>
<path fill-rule="evenodd" clip-rule="evenodd" d="M22.8134 20.2041L28.792 28.0283L28.183 28.5008L21.7455 20.0761C21.6399 19.9379 21.639 19.7456 21.7434 19.6064L28.277 10.8965L28.8902 11.3634L22.8404 19.4285L31.3583 19.1702L31.3814 19.9443L22.8134 20.2041Z" fill="url(#paint13_radial_564_7802)"/>
<path d="M44.1498 41.4802L38.1822 50.0504C38.0891 50.1842 38.0894 50.3624 38.1828 50.4959L44.0588 58.8833C44.2109 59.0999 44.5288 59.102 44.6836 58.8876L50.7404 50.4971C50.8369 50.3633 50.8385 50.1824 50.7441 50.047L44.7789 41.4802C44.6259 41.2605 44.3028 41.2605 44.1498 41.4802Z" fill="url(#paint14_linear_564_7802)"/>
<path d="M44.1498 41.4802L38.1822 50.0504C38.0891 50.1842 38.0894 50.3624 38.1828 50.4959L44.0588 58.8833C44.2109 59.0999 44.5288 59.102 44.6836 58.8876L50.7404 50.4971C50.8369 50.3633 50.8385 50.1824 50.7441 50.047L44.7789 41.4802C44.6259 41.2605 44.3028 41.2605 44.1498 41.4802Z" fill="url(#paint15_linear_564_7802)"/>
<path d="M44.4641 41.3188L38.2017 50.2385L28.995 50.6124L35.4911 41.7392L44.4641 41.3188Z" fill="url(#paint16_linear_564_7802)"/>
<path d="M29.043 50.7263L38.2482 50.353L44.4161 59.0727L35.5378 59.2592L29.043 50.7263Z" fill="url(#paint17_linear_564_7802)"/>
<path d="M29.043 50.7263L38.2482 50.353L44.4161 59.0727L35.5378 59.2592L29.043 50.7263Z" fill="url(#paint18_linear_564_7802)"/>
<path d="M29.043 50.7263L38.2482 50.353L44.4161 59.0727L35.5378 59.2592L29.043 50.7263Z" fill="url(#paint19_linear_564_7802)"/>
<path fill-rule="evenodd" clip-rule="evenodd" d="M30.1427 50.9736L36.1215 58.7977L35.5124 59.2702L29.0749 50.8456C28.9692 50.7073 28.9684 50.515 29.0728 50.3759L35.6062 41.666L36.2195 42.133L30.1697 50.198L38.6876 49.9395L38.7108 50.7136L30.1427 50.9736Z" fill="url(#paint20_radial_564_7802)"/>
<path d="M36.8205 31.0183L30.8529 39.5884C30.7597 39.7223 30.76 39.9004 30.8535 40.034L36.7295 48.4214C36.8816 48.638 37.1995 48.6401 37.3543 48.4257L43.4111 40.0352C43.5076 39.9014 43.5091 39.7204 43.4148 39.5851L37.4496 31.0183C37.2966 30.7986 36.9735 30.7986 36.8205 31.0183Z" fill="url(#paint21_linear_564_7802)"/>
<path d="M36.8205 31.0183L30.8529 39.5884C30.7597 39.7223 30.76 39.9004 30.8535 40.034L36.7295 48.4214C36.8816 48.638 37.1995 48.6401 37.3543 48.4257L43.4111 40.0352C43.5076 39.9014 43.5091 39.7204 43.4148 39.5851L37.4496 31.0183C37.2966 30.7986 36.9735 30.7986 36.8205 31.0183Z" fill="url(#paint22_linear_564_7802)"/>
<path d="M37.1347 30.8574L30.8724 39.7771L21.6656 40.151L28.1617 31.2777L37.1347 30.8574Z" fill="url(#paint23_linear_564_7802)"/>
<path d="M21.7137 40.2648L30.9188 39.8916L37.0868 48.6113L28.2086 48.7978L21.7137 40.2648Z" fill="url(#paint24_linear_564_7802)"/>
<path d="M21.7137 40.2648L30.9188 39.8916L37.0868 48.6113L28.2086 48.7978L21.7137 40.2648Z" fill="url(#paint25_linear_564_7802)"/>
<path d="M21.7137 40.2648L30.9188 39.8916L37.0868 48.6113L28.2086 48.7978L21.7137 40.2648Z" fill="url(#paint26_linear_564_7802)"/>
<path fill-rule="evenodd" clip-rule="evenodd" d="M22.8134 40.5122L28.792 48.3363L28.183 48.8088L21.7455 40.3841C21.6399 40.2459 21.639 40.0536 21.7434 39.9144L28.277 31.2046L28.8902 31.6715L22.8404 39.7365L31.3583 39.4781L31.3814 40.2522L22.8134 40.5122Z" fill="url(#paint27_radial_564_7802)"/>
<path d="M29.7964 20.8645L23.829 29.4346C23.7358 29.5684 23.7361 29.7467 23.8296 29.8803L29.7057 38.2675C29.8575 38.4842 30.1756 38.4863 30.3305 38.2718L36.3871 29.8814C36.4836 29.7475 36.4852 29.5667 36.3908 29.4312L30.4257 20.8645C30.2727 20.6448 29.9495 20.6448 29.7964 20.8645Z" fill="url(#paint28_linear_564_7802)"/>
<path d="M29.7964 20.8645L23.829 29.4346C23.7358 29.5684 23.7361 29.7467 23.8296 29.8803L29.7057 38.2675C29.8575 38.4842 30.1756 38.4863 30.3305 38.2718L36.3871 29.8814C36.4836 29.7475 36.4852 29.5667 36.3908 29.4312L30.4257 20.8645C30.2727 20.6448 29.9495 20.6448 29.7964 20.8645Z" fill="url(#paint29_linear_564_7802)"/>
<path d="M30.1107 20.7036L23.8483 29.6234L14.6417 29.997L21.1377 21.1239L30.1107 20.7036Z" fill="url(#paint30_linear_564_7802)"/>
<path d="M14.6897 30.1108L23.8948 29.7378L30.0627 38.4574L21.1847 38.6438L14.6897 30.1108Z" fill="url(#paint31_linear_564_7802)"/>
<path d="M14.6897 30.1108L23.8948 29.7378L30.0627 38.4574L21.1847 38.6438L14.6897 30.1108Z" fill="url(#paint32_linear_564_7802)"/>
<path d="M14.6897 30.1108L23.8948 29.7378L30.0627 38.4574L21.1847 38.6438L14.6897 30.1108Z" fill="url(#paint33_linear_564_7802)"/>
<path fill-rule="evenodd" clip-rule="evenodd" d="M15.7895 30.3579L21.7681 38.182L21.159 38.6545L14.7216 30.2299C14.616 30.0917 14.6151 29.8994 14.7195 29.7602L21.253 21.0503L21.8662 21.5172L15.8164 29.5823L24.3344 29.324L24.3575 30.0981L15.7895 30.3579Z" fill="url(#paint34_radial_564_7802)"/>
<path d="M22.7725 31.3264L16.805 39.8965C16.7119 40.0304 16.7121 40.2085 16.8057 40.3421L22.6817 48.7295C22.8335 48.9461 23.1517 48.9482 23.3065 48.7338L29.3631 40.3433C29.4597 40.2095 29.4612 40.0285 29.3669 39.8932L23.4017 31.3264C23.2487 31.1067 22.9256 31.1067 22.7725 31.3264Z" fill="url(#paint35_linear_564_7802)"/>
<path d="M22.7725 31.3264L16.805 39.8965C16.7119 40.0304 16.7121 40.2085 16.8057 40.3421L22.6817 48.7295C22.8335 48.9461 23.1517 48.9482 23.3065 48.7338L29.3631 40.3433C29.4597 40.2095 29.4612 40.0285 29.3669 39.8932L23.4017 31.3264C23.2487 31.1067 22.9256 31.1067 22.7725 31.3264Z" fill="url(#paint36_linear_564_7802)"/>
<path d="M23.0868 31.165L16.8244 40.0847L7.61771 40.4586L14.1138 31.5853L23.0868 31.165Z" fill="url(#paint37_linear_564_7802)"/>
<path d="M7.66577 40.5724L16.8709 40.1992L23.0387 48.9189L14.1607 49.1054L7.66577 40.5724Z" fill="url(#paint38_linear_564_7802)"/>
<path d="M7.66577 40.5724L16.8709 40.1992L23.0387 48.9189L14.1607 49.1054L7.66577 40.5724Z" fill="url(#paint39_linear_564_7802)"/>
<path d="M7.66577 40.5724L16.8709 40.1992L23.0387 48.9189L14.1607 49.1054L7.66577 40.5724Z" fill="url(#paint40_linear_564_7802)"/>
<path fill-rule="evenodd" clip-rule="evenodd" d="M8.76551 40.8198L14.7441 48.6439L14.1351 49.1164L7.69762 40.6918C7.59201 40.5535 7.59116 40.3612 7.69555 40.2221L14.2291 31.5122L14.8423 31.9792L8.79248 40.0442L17.3105 39.7857L17.3336 40.5598L8.76551 40.8198Z" fill="url(#paint41_radial_564_7802)"/>
<path d="M15.4431 41.7878L9.47568 50.358C9.38251 50.4918 9.38275 50.67 9.47633 50.8035L15.3524 59.1909C15.5042 59.4075 15.8223 59.4097 15.9772 59.1952L22.0337 50.8047C22.1303 50.6709 22.1319 50.49 22.0375 50.3546L16.0724 41.7878C15.9194 41.5681 15.5962 41.5681 15.4431 41.7878Z" fill="url(#paint42_linear_564_7802)"/>
<path d="M15.4431 41.7878L9.47568 50.358C9.38251 50.4918 9.38275 50.67 9.47633 50.8035L15.3524 59.1909C15.5042 59.4075 15.8223 59.4097 15.9772 59.1952L22.0337 50.8047C22.1303 50.6709 22.1319 50.49 22.0375 50.3546L16.0724 41.7878C15.9194 41.5681 15.5962 41.5681 15.4431 41.7878Z" fill="url(#paint43_linear_564_7802)"/>
<path d="M15.7574 41.6265L9.49504 50.5462L0.288391 50.92L6.78447 42.0468L15.7574 41.6265Z" fill="url(#paint44_linear_564_7802)"/>
<path d="M0.336395 51.0344L9.54154 50.6611L15.7094 59.3808L6.83136 59.5673L0.336395 51.0344Z" fill="url(#paint45_linear_564_7802)"/>
<path d="M0.336395 51.0344L9.54154 50.6611L15.7094 59.3808L6.83136 59.5673L0.336395 51.0344Z" fill="url(#paint46_linear_564_7802)"/>
<path d="M0.336395 51.0344L9.54154 50.6611L15.7094 59.3808L6.83136 59.5673L0.336395 51.0344Z" fill="url(#paint47_linear_564_7802)"/>
<path fill-rule="evenodd" clip-rule="evenodd" d="M1.43616 51.2812L7.41478 59.1054L6.80572 59.5778L0.368279 51.1532C0.262661 51.015 0.26181 50.8226 0.366202 50.6835L6.89972 41.9736L7.51293 42.4406L1.46314 50.5056L9.9811 50.2471L10.0042 51.0212L1.43616 51.2812Z" fill="url(#paint48_radial_564_7802)"/>
<path d="M22.7725 10.7107L16.805 19.2808C16.7119 19.4146 16.7121 19.5929 16.8057 19.7265L22.6817 28.1137C22.8335 28.3303 23.1517 28.3326 23.3065 28.1181L29.3631 19.7275C29.4597 19.5937 29.4612 19.4129 29.3669 19.2774L23.4017 10.7107C23.2487 10.491 22.9256 10.491 22.7725 10.7107Z" fill="url(#paint49_linear_564_7802)"/>
<path d="M22.7725 10.7107L16.805 19.2808C16.7119 19.4146 16.7121 19.5929 16.8057 19.7265L22.6817 28.1137C22.8335 28.3303 23.1517 28.3326 23.3065 28.1181L29.3631 19.7275C29.4597 19.5937 29.4612 19.4129 29.3669 19.2774L23.4017 10.7107C23.2487 10.491 22.9256 10.491 22.7725 10.7107Z" fill="url(#paint50_linear_564_7802)"/>
<path d="M23.0868 10.5498L16.8244 19.4696L7.61771 19.8432L14.1138 10.9701L23.0868 10.5498Z" fill="url(#paint51_linear_564_7802)"/>
<path d="M7.66577 19.957L16.8709 19.584L23.0387 28.3036L14.1607 28.4901L7.66577 19.957Z" fill="url(#paint52_linear_564_7802)"/>
<path d="M7.66577 19.957L16.8709 19.584L23.0387 28.3036L14.1607 28.4901L7.66577 19.957Z" fill="url(#paint53_linear_564_7802)"/>
<path d="M7.66577 19.957L16.8709 19.584L23.0387 28.3036L14.1607 28.4901L7.66577 19.957Z" fill="url(#paint54_linear_564_7802)"/>
<path fill-rule="evenodd" clip-rule="evenodd" d="M8.76551 20.2041L14.7441 28.0283L14.1351 28.5008L7.69762 20.0761C7.59201 19.9379 7.59116 19.7456 7.69555 19.6064L14.2291 10.8965L14.8423 11.3634L8.79247 19.4285L17.3105 19.1702L17.3336 19.9443L8.76551 20.2041Z" fill="url(#paint55_radial_564_7802)"/>
<path d="M15.4431 0.556921L9.47568 9.12697C9.38251 9.26078 9.38275 9.43912 9.47633 9.57266L15.3524 17.9599C15.5042 18.1765 15.8223 18.1788 15.9772 17.9643L22.0337 9.57374C22.1303 9.43992 22.1319 9.25906 22.0375 9.12358L16.0724 0.556921C15.9194 0.337146 15.5962 0.337146 15.4431 0.556921Z" fill="url(#paint56_linear_564_7802)"/>
<path d="M15.4431 0.556921L9.47568 9.12697C9.38251 9.26078 9.38275 9.43912 9.47633 9.57266L15.3524 17.9599C15.5042 18.1765 15.8223 18.1788 15.9772 17.9643L22.0337 9.57374C22.1303 9.43992 22.1319 9.25906 22.0375 9.12358L16.0724 0.556921C15.9194 0.337146 15.5962 0.337146 15.4431 0.556921Z" fill="url(#paint57_linear_564_7802)"/>
<path d="M15.7574 0.395508L9.49504 9.31525L0.288391 9.68885L6.78447 0.815809L15.7574 0.395508Z" fill="url(#paint58_linear_564_7802)"/>
<path d="M0.336395 9.80322L9.54154 9.43018L15.7094 18.1498L6.83136 18.3363L0.336395 9.80322Z" fill="url(#paint59_linear_564_7802)"/>
<path d="M0.336395 9.80322L9.54154 9.43018L15.7094 18.1498L6.83136 18.3363L0.336395 9.80322Z" fill="url(#paint60_linear_564_7802)"/>
<path d="M0.336395 9.80322L9.54154 9.43018L15.7094 18.1498L6.83136 18.3363L0.336395 9.80322Z" fill="url(#paint61_linear_564_7802)"/>
<path fill-rule="evenodd" clip-rule="evenodd" d="M1.43616 10.0503L7.41478 17.8745L6.80572 18.347L0.368278 9.92229C0.262661 9.78407 0.26181 9.59176 0.3662 9.4526L6.89972 0.742676L7.51294 1.20963L1.46313 9.27471L9.98111 9.01638L10.0042 9.79048L1.43616 10.0503Z" fill="url(#paint62_radial_564_7802)"/>
<path fill-rule="evenodd" clip-rule="evenodd" d="M44.7038 0.451452C44.5508 0.231677 44.2277 0.231678 44.0747 0.451452L38.1071 9.0215C38.0139 9.15529 38.0143 9.33366 38.1077 9.46719L43.9837 17.8544C44.1355 18.0711 44.4537 18.0733 44.6085 17.8589L50.665 9.46827C50.7618 9.33445 50.7633 9.15359 50.669 9.01812L44.7038 0.451452ZM37.5937 10.8097C37.4407 10.5899 37.1176 10.5899 36.9643 10.8097L30.997 19.3797C30.9039 19.5135 30.9042 19.6919 30.9976 19.8254L36.8736 28.2126C37.0254 28.4293 37.3436 28.4316 37.4985 28.2171L43.5549 19.8265C43.6517 19.6927 43.6533 19.5118 43.5589 19.3764L37.5937 10.8097ZM38.1077 50.4157C38.0143 50.2821 38.0139 50.104 38.1071 49.9701L44.0747 41.4C44.2277 41.1803 44.5508 41.1803 44.7038 41.4L50.669 49.9667C50.7633 50.1021 50.7618 50.283 50.665 50.4169L44.6085 58.8073C44.4537 59.0218 44.1355 59.0197 43.9837 58.803L38.1077 50.4157ZM37.5937 31.139C37.4407 30.919 37.1173 30.919 36.9643 31.139L30.997 39.7089C30.9039 39.8427 30.9039 40.0212 30.9976 40.1547L36.8736 48.5418C37.0254 48.7584 37.3436 48.7609 37.4985 48.5464L43.5549 40.1557C43.6517 40.0218 43.6533 39.8412 43.5589 39.7055L37.5937 31.139ZM23.8877 29.8933C23.7942 29.7597 23.7939 29.5814 23.8871 29.4476L29.8546 20.8775C30.0076 20.6577 30.3308 20.6577 30.4838 20.8775L36.4488 29.4442C36.5432 29.5797 36.5417 29.7605 36.4452 29.8944L30.3886 38.2849C30.2338 38.4993 29.9156 38.4972 29.7638 38.2806L23.8877 29.8933ZM23.3737 31.3326C23.2206 31.1126 22.8975 31.1126 22.7444 31.3326L16.777 39.9024C16.6838 40.0363 16.684 40.2147 16.7776 40.3483L22.6537 48.7353C22.8054 48.952 23.1236 48.9544 23.2785 48.74L29.335 40.3492C29.4316 40.2153 29.4331 40.0347 29.3388 39.899L23.3737 31.3326ZM9.47478 50.3575L15.4423 41.7873C15.5953 41.5677 15.9185 41.5677 16.0715 41.7873L22.0366 50.3541C22.131 50.4895 22.1294 50.6704 22.0328 50.8043L15.9763 59.1947C15.8214 59.4092 15.5033 59.407 15.3515 59.1904L9.47542 50.803C9.38185 50.6695 9.3816 50.4913 9.47478 50.3575ZM23.2774 10.8096C23.1243 10.5898 22.8011 10.5898 22.6481 10.8096L16.6806 19.3797C16.5874 19.5135 16.5877 19.6918 16.6813 19.8253L22.5573 28.2126C22.7091 28.4292 23.0273 28.4315 23.1821 28.217L29.2387 19.8265C29.3353 19.6926 29.3368 19.5117 29.2425 19.3763L23.2774 10.8096ZM9.37937 9.66101C9.2858 9.52747 9.28556 9.3491 9.37873 9.21529L15.3462 0.645261C15.4992 0.425489 15.8224 0.425489 15.9754 0.645261L21.9406 9.21193C22.0349 9.34738 22.0334 9.52827 21.9368 9.66209L15.8802 18.0526C15.7254 18.2671 15.4072 18.2649 15.2554 18.0482L9.37937 9.66101Z" fill="url(#paint63_linear_564_7802)"/>
</g>
<defs>
<linearGradient id="paint0_linear_564_7802" x1="49.0764" y1="9.30164" x2="37.6979" y2="5.95727" gradientUnits="userSpaceOnUse">
<stop offset="0.120691" stop-color="#008FC7"/>
<stop offset="1" stop-color="#D4A9FF" stop-opacity="0.33"/>
</linearGradient>
<linearGradient id="paint1_linear_564_7802" x1="49.1723" y1="2.23481" x2="32.9329" y2="12.8194" gradientUnits="userSpaceOnUse">
<stop offset="0.0364583" stop-color="#E7C0FF"/>
<stop offset="0.729167" stop-color="#4D73FC" stop-opacity="0.99"/>
</linearGradient>
<linearGradient id="paint2_linear_564_7802" x1="39.2764" y1="9.73556" x2="32.2493" y2="1.3293" gradientUnits="userSpaceOnUse">
<stop stop-color="#942CE6" stop-opacity="0"/>
<stop offset="0.647437" stop-color="#0F46D3"/>
</linearGradient>
<linearGradient id="paint3_linear_564_7802" x1="39.9302" y1="19.1756" x2="38.3155" y2="6.73377" gradientUnits="userSpaceOnUse">
<stop offset="0.0979904" stop-color="#1F1CB5"/>
<stop offset="0.952287" stop-color="#1F1CB5" stop-opacity="0"/>
</linearGradient>
<linearGradient id="paint4_linear_564_7802" x1="37.4413" y1="19.7241" x2="37.1313" y2="8.18572" gradientUnits="userSpaceOnUse">
<stop stop-color="#FF994F"/>
<stop offset="0.306945" stop-color="#FF994F" stop-opacity="0"/>
</linearGradient>
<linearGradient id="paint5_linear_564_7802" x1="32.5551" y1="16.3394" x2="45.9021" y2="7.36944" gradientUnits="userSpaceOnUse">
<stop stop-color="#FF994F"/>
<stop offset="0.306945" stop-color="#FF994F" stop-opacity="0"/>
</linearGradient>
<radialGradient id="paint6_radial_564_7802" cx="0" cy="0" r="1" gradientUnits="userSpaceOnUse" gradientTransform="translate(30.7258 10.8873) rotate(72.2447) scale(20.1569 7.34859)">
<stop stop-color="#49B3FF"/>
<stop offset="0.828125" stop-color="#49B3FF" stop-opacity="0"/>
</radialGradient>
<linearGradient id="paint7_linear_564_7802" x1="41.747" y1="19.4555" x2="30.3686" y2="16.1111" gradientUnits="userSpaceOnUse">
<stop offset="0.120691" stop-color="#008FC7"/>
<stop offset="1" stop-color="#D4A9FF" stop-opacity="0.33"/>
</linearGradient>
<linearGradient id="paint8_linear_564_7802" x1="41.8429" y1="12.3886" x2="25.6036" y2="22.9732" gradientUnits="userSpaceOnUse">
<stop offset="0.0364583" stop-color="#E7C0FF"/>
<stop offset="0.729167" stop-color="#4D73FC" stop-opacity="0.99"/>
</linearGradient>
<linearGradient id="paint9_linear_564_7802" x1="31.9471" y1="19.8899" x2="24.92" y2="11.4836" gradientUnits="userSpaceOnUse">
<stop stop-color="#942CE6" stop-opacity="0"/>
<stop offset="0.647437" stop-color="#0F46D3"/>
</linearGradient>
<linearGradient id="paint10_linear_564_7802" x1="32.6009" y1="29.3294" x2="30.9861" y2="16.8876" gradientUnits="userSpaceOnUse">
<stop offset="0.0979904" stop-color="#1F1CB5"/>
<stop offset="0.952287" stop-color="#1F1CB5" stop-opacity="0"/>
</linearGradient>
<linearGradient id="paint11_linear_564_7802" x1="30.1119" y1="29.8779" x2="29.8018" y2="18.3395" gradientUnits="userSpaceOnUse">
<stop stop-color="#FF994F"/>
<stop offset="0.306945" stop-color="#FF994F" stop-opacity="0"/>
</linearGradient>
<linearGradient id="paint12_linear_564_7802" x1="25.2256" y1="26.4932" x2="38.5728" y2="17.5233" gradientUnits="userSpaceOnUse">
<stop stop-color="#FF994F"/>
<stop offset="0.306945" stop-color="#FF994F" stop-opacity="0"/>
</linearGradient>
<radialGradient id="paint13_radial_564_7802" cx="0" cy="0" r="1" gradientUnits="userSpaceOnUse" gradientTransform="translate(23.3965 21.0411) rotate(72.2447) scale(20.1569 7.34859)">
<stop stop-color="#49B3FF"/>
<stop offset="0.828125" stop-color="#49B3FF" stop-opacity="0"/>
</radialGradient>
<linearGradient id="paint14_linear_564_7802" x1="49.0764" y1="50.2251" x2="37.6979" y2="46.8806" gradientUnits="userSpaceOnUse">
<stop offset="0.120691" stop-color="#008FC7"/>
<stop offset="1" stop-color="#D4A9FF" stop-opacity="0.33"/>
</linearGradient>
<linearGradient id="paint15_linear_564_7802" x1="49.1723" y1="43.158" x2="32.9329" y2="53.7427" gradientUnits="userSpaceOnUse">
<stop offset="0.0364583" stop-color="#E7C0FF"/>
<stop offset="0.729167" stop-color="#4D73FC" stop-opacity="0.99"/>
</linearGradient>
<linearGradient id="paint16_linear_564_7802" x1="39.2764" y1="50.6589" x2="32.2493" y2="42.2526" gradientUnits="userSpaceOnUse">
<stop stop-color="#942CE6" stop-opacity="0"/>
<stop offset="0.647437" stop-color="#0F46D3"/>
</linearGradient>
<linearGradient id="paint17_linear_564_7802" x1="39.9302" y1="60.0986" x2="38.3155" y2="47.6567" gradientUnits="userSpaceOnUse">
<stop offset="0.0979904" stop-color="#1F1CB5"/>
<stop offset="0.952287" stop-color="#1F1CB5" stop-opacity="0"/>
</linearGradient>
<linearGradient id="paint18_linear_564_7802" x1="37.4413" y1="60.6472" x2="37.1313" y2="49.1088" gradientUnits="userSpaceOnUse">
<stop stop-color="#FF994F"/>
<stop offset="0.306945" stop-color="#FF994F" stop-opacity="0"/>
</linearGradient>
<linearGradient id="paint19_linear_564_7802" x1="32.5551" y1="57.2626" x2="45.9021" y2="48.2923" gradientUnits="userSpaceOnUse">
<stop stop-color="#FF994F"/>
<stop offset="0.306945" stop-color="#FF994F" stop-opacity="0"/>
</linearGradient>
<radialGradient id="paint20_radial_564_7802" cx="0" cy="0" r="1" gradientUnits="userSpaceOnUse" gradientTransform="translate(30.7258 51.8106) rotate(72.2447) scale(20.1569 7.34859)">
<stop stop-color="#49B3FF"/>
<stop offset="0.828125" stop-color="#49B3FF" stop-opacity="0"/>
</radialGradient>
<linearGradient id="paint21_linear_564_7802" x1="41.747" y1="39.7632" x2="30.3686" y2="36.4187" gradientUnits="userSpaceOnUse">
<stop offset="0.120691" stop-color="#008FC7"/>
<stop offset="1" stop-color="#D4A9FF" stop-opacity="0.33"/>
</linearGradient>
<linearGradient id="paint22_linear_564_7802" x1="41.8429" y1="32.6961" x2="25.6036" y2="43.2808" gradientUnits="userSpaceOnUse">
<stop offset="0.0364583" stop-color="#E7C0FF"/>
<stop offset="0.729167" stop-color="#4D73FC" stop-opacity="0.99"/>
</linearGradient>
<linearGradient id="paint23_linear_564_7802" x1="31.9471" y1="40.1974" x2="24.92" y2="31.7912" gradientUnits="userSpaceOnUse">
<stop stop-color="#942CE6" stop-opacity="0"/>
<stop offset="0.647437" stop-color="#0F46D3"/>
</linearGradient>
<linearGradient id="paint24_linear_564_7802" x1="32.6009" y1="49.6371" x2="30.9861" y2="37.1953" gradientUnits="userSpaceOnUse">
<stop offset="0.0979904" stop-color="#1F1CB5"/>
<stop offset="0.952287" stop-color="#1F1CB5" stop-opacity="0"/>
</linearGradient>
<linearGradient id="paint25_linear_564_7802" x1="30.1119" y1="50.1858" x2="29.8018" y2="38.6474" gradientUnits="userSpaceOnUse">
<stop stop-color="#FF994F"/>
<stop offset="0.306945" stop-color="#FF994F" stop-opacity="0"/>
</linearGradient>
<linearGradient id="paint26_linear_564_7802" x1="25.2256" y1="46.8011" x2="38.5728" y2="37.8309" gradientUnits="userSpaceOnUse">
<stop stop-color="#FF994F"/>
<stop offset="0.306945" stop-color="#FF994F" stop-opacity="0"/>
</linearGradient>
<radialGradient id="paint27_radial_564_7802" cx="0" cy="0" r="1" gradientUnits="userSpaceOnUse" gradientTransform="translate(23.3965 41.3491) rotate(72.2447) scale(20.1569 7.34859)">
<stop stop-color="#49B3FF"/>
<stop offset="0.828125" stop-color="#49B3FF" stop-opacity="0"/>
</radialGradient>
<linearGradient id="paint28_linear_564_7802" x1="34.7231" y1="29.6093" x2="23.3447" y2="26.2649" gradientUnits="userSpaceOnUse">
<stop offset="0.120691" stop-color="#008FC7"/>
<stop offset="1" stop-color="#D4A9FF" stop-opacity="0.33"/>
</linearGradient>
<linearGradient id="paint29_linear_564_7802" x1="34.819" y1="22.5424" x2="18.5797" y2="33.127" gradientUnits="userSpaceOnUse">
<stop offset="0.0364583" stop-color="#E7C0FF"/>
<stop offset="0.729167" stop-color="#4D73FC" stop-opacity="0.99"/>
</linearGradient>
<linearGradient id="paint30_linear_564_7802" x1="24.9232" y1="30.0437" x2="17.896" y2="21.6374" gradientUnits="userSpaceOnUse">
<stop stop-color="#942CE6" stop-opacity="0"/>
<stop offset="0.647437" stop-color="#0F46D3"/>
</linearGradient>
<linearGradient id="paint31_linear_564_7802" x1="25.5769" y1="39.4832" x2="23.9621" y2="27.0414" gradientUnits="userSpaceOnUse">
<stop offset="0.0979904" stop-color="#1F1CB5"/>
<stop offset="0.952287" stop-color="#1F1CB5" stop-opacity="0"/>
</linearGradient>
<linearGradient id="paint32_linear_564_7802" x1="23.0879" y1="40.0318" x2="22.7779" y2="28.4933" gradientUnits="userSpaceOnUse">
<stop stop-color="#FF994F"/>
<stop offset="0.306945" stop-color="#FF994F" stop-opacity="0"/>
</linearGradient>
<linearGradient id="paint33_linear_564_7802" x1="18.2017" y1="36.6472" x2="31.5488" y2="27.6771" gradientUnits="userSpaceOnUse">
<stop stop-color="#FF994F"/>
<stop offset="0.306945" stop-color="#FF994F" stop-opacity="0"/>
</linearGradient>
<radialGradient id="paint34_radial_564_7802" cx="0" cy="0" r="1" gradientUnits="userSpaceOnUse" gradientTransform="translate(16.3726 31.1949) rotate(72.2447) scale(20.1569 7.34859)">
<stop stop-color="#49B3FF"/>
<stop offset="0.828125" stop-color="#49B3FF" stop-opacity="0"/>
</radialGradient>
<linearGradient id="paint35_linear_564_7802" x1="27.699" y1="40.0713" x2="16.3207" y2="36.7268" gradientUnits="userSpaceOnUse">
<stop offset="0.120691" stop-color="#008FC7"/>
<stop offset="1" stop-color="#D4A9FF" stop-opacity="0.33"/>
</linearGradient>
<linearGradient id="paint36_linear_564_7802" x1="27.7951" y1="33.0042" x2="11.5557" y2="43.5889" gradientUnits="userSpaceOnUse">
<stop offset="0.0364583" stop-color="#E7C0FF"/>
<stop offset="0.729167" stop-color="#4D73FC" stop-opacity="0.99"/>
</linearGradient>
<linearGradient id="paint37_linear_564_7802" x1="17.8993" y1="40.505" x2="10.8721" y2="32.0988" gradientUnits="userSpaceOnUse">
<stop stop-color="#942CE6" stop-opacity="0"/>
<stop offset="0.647437" stop-color="#0F46D3"/>
</linearGradient>
<linearGradient id="paint38_linear_564_7802" x1="18.553" y1="49.9448" x2="16.9381" y2="37.5029" gradientUnits="userSpaceOnUse">
<stop offset="0.0979904" stop-color="#1F1CB5"/>
<stop offset="0.952287" stop-color="#1F1CB5" stop-opacity="0"/>
</linearGradient>
<linearGradient id="paint39_linear_564_7802" x1="16.064" y1="50.4934" x2="15.754" y2="38.955" gradientUnits="userSpaceOnUse">
<stop stop-color="#FF994F"/>
<stop offset="0.306945" stop-color="#FF994F" stop-opacity="0"/>
</linearGradient>
<linearGradient id="paint40_linear_564_7802" x1="11.1777" y1="47.1088" x2="24.5248" y2="38.1385" gradientUnits="userSpaceOnUse">
<stop stop-color="#FF994F"/>
<stop offset="0.306945" stop-color="#FF994F" stop-opacity="0"/>
</linearGradient>
<radialGradient id="paint41_radial_564_7802" cx="0" cy="0" r="1" gradientUnits="userSpaceOnUse" gradientTransform="translate(9.34861 41.6568) rotate(72.2447) scale(20.1569 7.34859)">
<stop stop-color="#49B3FF"/>
<stop offset="0.828125" stop-color="#49B3FF" stop-opacity="0"/>
</radialGradient>
<linearGradient id="paint42_linear_564_7802" x1="20.3697" y1="50.5327" x2="8.99137" y2="47.1882" gradientUnits="userSpaceOnUse">
<stop offset="0.120691" stop-color="#008FC7"/>
<stop offset="1" stop-color="#D4A9FF" stop-opacity="0.33"/>
</linearGradient>
<linearGradient id="paint43_linear_564_7802" x1="20.4658" y1="43.4657" x2="4.22636" y2="54.0503" gradientUnits="userSpaceOnUse">
<stop offset="0.0364583" stop-color="#E7C0FF"/>
<stop offset="0.729167" stop-color="#4D73FC" stop-opacity="0.99"/>
</linearGradient>
<linearGradient id="paint44_linear_564_7802" x1="10.5699" y1="50.9665" x2="3.54274" y2="42.5602" gradientUnits="userSpaceOnUse">
<stop stop-color="#942CE6" stop-opacity="0"/>
<stop offset="0.647437" stop-color="#0F46D3"/>
</linearGradient>
<linearGradient id="paint45_linear_564_7802" x1="11.2237" y1="60.4067" x2="9.60876" y2="47.9648" gradientUnits="userSpaceOnUse">
<stop offset="0.0979904" stop-color="#1F1CB5"/>
<stop offset="0.952287" stop-color="#1F1CB5" stop-opacity="0"/>
</linearGradient>
<linearGradient id="paint46_linear_564_7802" x1="8.73461" y1="60.9553" x2="8.4246" y2="49.4169" gradientUnits="userSpaceOnUse">
<stop stop-color="#FF994F"/>
<stop offset="0.306945" stop-color="#FF994F" stop-opacity="0"/>
</linearGradient>
<linearGradient id="paint47_linear_564_7802" x1="3.84838" y1="57.5707" x2="17.1954" y2="48.6004" gradientUnits="userSpaceOnUse">
<stop stop-color="#FF994F"/>
<stop offset="0.306945" stop-color="#FF994F" stop-opacity="0"/>
</linearGradient>
<radialGradient id="paint48_radial_564_7802" cx="0" cy="0" r="1" gradientUnits="userSpaceOnUse" gradientTransform="translate(2.01927 52.1182) rotate(72.2447) scale(20.1569 7.34859)">
<stop stop-color="#49B3FF"/>
<stop offset="0.828125" stop-color="#49B3FF" stop-opacity="0"/>
</radialGradient>
<linearGradient id="paint49_linear_564_7802" x1="27.699" y1="19.4555" x2="16.3207" y2="16.1111" gradientUnits="userSpaceOnUse">
<stop offset="0.120691" stop-color="#008FC7"/>
<stop offset="1" stop-color="#D4A9FF" stop-opacity="0.33"/>
</linearGradient>
<linearGradient id="paint50_linear_564_7802" x1="27.7951" y1="12.3886" x2="11.5557" y2="22.9732" gradientUnits="userSpaceOnUse">
<stop offset="0.0364583" stop-color="#E7C0FF"/>
<stop offset="0.729167" stop-color="#4D73FC" stop-opacity="0.99"/>
</linearGradient>
<linearGradient id="paint51_linear_564_7802" x1="17.8993" y1="19.8899" x2="10.8721" y2="11.4836" gradientUnits="userSpaceOnUse">
<stop stop-color="#942CE6" stop-opacity="0"/>
<stop offset="0.647437" stop-color="#0F46D3"/>
</linearGradient>
<linearGradient id="paint52_linear_564_7802" x1="18.553" y1="29.3294" x2="16.9381" y2="16.8876" gradientUnits="userSpaceOnUse">
<stop offset="0.0979904" stop-color="#1F1CB5"/>
<stop offset="0.952287" stop-color="#1F1CB5" stop-opacity="0"/>
</linearGradient>
<linearGradient id="paint53_linear_564_7802" x1="16.064" y1="29.8779" x2="15.754" y2="18.3395" gradientUnits="userSpaceOnUse">
<stop stop-color="#FF994F"/>
<stop offset="0.306945" stop-color="#FF994F" stop-opacity="0"/>
</linearGradient>
<linearGradient id="paint54_linear_564_7802" x1="11.1777" y1="26.4932" x2="24.5248" y2="17.5233" gradientUnits="userSpaceOnUse">
<stop stop-color="#FF994F"/>
<stop offset="0.306945" stop-color="#FF994F" stop-opacity="0"/>
</linearGradient>
<radialGradient id="paint55_radial_564_7802" cx="0" cy="0" r="1" gradientUnits="userSpaceOnUse" gradientTransform="translate(9.34861 21.0411) rotate(72.2447) scale(20.1569 7.34859)">
<stop stop-color="#49B3FF"/>
<stop offset="0.828125" stop-color="#49B3FF" stop-opacity="0"/>
</radialGradient>
<linearGradient id="paint56_linear_564_7802" x1="20.3697" y1="9.30164" x2="8.99137" y2="5.95727" gradientUnits="userSpaceOnUse">
<stop offset="0.120691" stop-color="#008FC7"/>
<stop offset="1" stop-color="#D4A9FF" stop-opacity="0.33"/>
</linearGradient>
<linearGradient id="paint57_linear_564_7802" x1="20.4658" y1="2.23481" x2="4.22636" y2="12.8194" gradientUnits="userSpaceOnUse">
<stop offset="0.0364583" stop-color="#E7C0FF"/>
<stop offset="0.729167" stop-color="#4D73FC" stop-opacity="0.99"/>
</linearGradient>
<linearGradient id="paint58_linear_564_7802" x1="10.57" y1="9.73556" x2="3.54274" y2="1.3293" gradientUnits="userSpaceOnUse">
<stop stop-color="#942CE6" stop-opacity="0"/>
<stop offset="0.647437" stop-color="#0F46D3"/>
</linearGradient>
<linearGradient id="paint59_linear_564_7802" x1="11.2237" y1="19.1756" x2="9.60876" y2="6.73377" gradientUnits="userSpaceOnUse">
<stop offset="0.0979904" stop-color="#1F1CB5"/>
<stop offset="0.952287" stop-color="#1F1CB5" stop-opacity="0"/>
</linearGradient>
<linearGradient id="paint60_linear_564_7802" x1="8.73461" y1="19.7241" x2="8.4246" y2="8.18571" gradientUnits="userSpaceOnUse">
<stop stop-color="#FF994F"/>
<stop offset="0.306945" stop-color="#FF994F" stop-opacity="0"/>
</linearGradient>
<linearGradient id="paint61_linear_564_7802" x1="3.84838" y1="16.3394" x2="17.1954" y2="7.36944" gradientUnits="userSpaceOnUse">
<stop stop-color="#FF994F"/>
<stop offset="0.306945" stop-color="#FF994F" stop-opacity="0"/>
</linearGradient>
<radialGradient id="paint62_radial_564_7802" cx="0" cy="0" r="1" gradientUnits="userSpaceOnUse" gradientTransform="translate(2.01927 10.8873) rotate(72.2447) scale(20.1569 7.34859)">
<stop stop-color="#49B3FF"/>
<stop offset="0.828125" stop-color="#49B3FF" stop-opacity="0"/>
</radialGradient>
<linearGradient id="paint63_linear_564_7802" x1="42.0317" y1="2.25235" x2="20.0969" y2="57.2194" gradientUnits="userSpaceOnUse">
<stop stop-color="#CAB9FF" stop-opacity="0.99"/>
<stop offset="0.458333" stop-color="#B098F9"/>
<stop offset="0.880208" stop-color="#7599F5"/>
</linearGradient>
<clipPath id="clip0_564_7802">
<rect width="51" height="60" fill="white"/>
</clipPath>
</defs>
</svg>
