<svg width="51" height="60" viewBox="0 0 51 60" fill="none" xmlns="http://www.w3.org/2000/svg">
<g clip-path="url(#clip0_564_3343)">
<path d="M44.1498 0.557013L38.1822 9.12706C38.0891 9.26087 38.0894 9.43921 38.1828 9.57275L44.0588 17.96C44.2109 18.1766 44.5288 18.1789 44.6836 17.9644L50.7404 9.57383C50.8369 9.44001 50.8385 9.25915 50.7441 9.12367L44.7789 0.557013C44.6259 0.337238 44.3028 0.337238 44.1498 0.557013Z" fill="url(#paint0_linear_564_3343)"/>
<path d="M44.1498 0.557013L38.1822 9.12706C38.0891 9.26087 38.0894 9.43921 38.1828 9.57275L44.0588 17.96C44.2109 18.1766 44.5288 18.1789 44.6836 17.9644L50.7404 9.57383C50.8369 9.44001 50.8385 9.25915 50.7441 9.12367L44.7789 0.557013C44.6259 0.337238 44.3028 0.337238 44.1498 0.557013Z" fill="url(#paint1_linear_564_3343)"/>
<path d="M44.4641 0.395721L38.2018 9.31547L28.995 9.68907L35.4911 0.816023L44.4641 0.395721Z" fill="url(#paint2_linear_564_3343)"/>
<path d="M29.043 9.80331L38.2481 9.43027L44.4161 18.1499L35.5378 18.3364L29.043 9.80331Z" fill="url(#paint3_linear_564_3343)"/>
<path d="M29.043 9.80331L38.2481 9.43027L44.4161 18.1499L35.5378 18.3364L29.043 9.80331Z" fill="url(#paint4_linear_564_3343)"/>
<path d="M29.043 9.80331L38.2481 9.43027L44.4161 18.1499L35.5378 18.3364L29.043 9.80331Z" fill="url(#paint5_linear_564_3343)"/>
<path fill-rule="evenodd" clip-rule="evenodd" d="M30.1428 10.0504L36.1215 17.8746L35.5125 18.3471L29.0749 9.92242C28.9693 9.7842 28.9684 9.59189 29.0728 9.45272L35.6063 0.742798L36.2195 1.20975L30.1698 9.27483L38.6877 9.0165L38.7108 9.7906L30.1428 10.0504Z" fill="url(#paint6_radial_564_3343)"/>
<path d="M36.8205 10.7108L30.8529 19.2809C30.7597 19.4147 30.76 19.5931 30.8535 19.7266L36.7295 28.1138C36.8816 28.3305 37.1995 28.3327 37.3543 28.1182L43.4111 19.7277C43.5076 19.5939 43.5091 19.413 43.4148 19.2775L37.4496 10.7108C37.2966 10.4911 36.9735 10.4911 36.8205 10.7108Z" fill="url(#paint7_linear_564_3343)"/>
<path d="M36.8205 10.7108L30.8529 19.2809C30.7597 19.4147 30.76 19.5931 30.8535 19.7266L36.7295 28.1138C36.8816 28.3305 37.1995 28.3327 37.3543 28.1182L43.4111 19.7277C43.5076 19.5939 43.5091 19.413 43.4148 19.2775L37.4496 10.7108C37.2966 10.4911 36.9735 10.4911 36.8205 10.7108Z" fill="url(#paint8_linear_564_3343)"/>
<path d="M37.1347 10.5496L30.8724 19.4693L21.6656 19.8429L28.1617 10.9699L37.1347 10.5496Z" fill="url(#paint9_linear_564_3343)"/>
<path d="M21.7136 19.9572L30.9188 19.5841L37.0867 28.3038L28.2086 28.4903L21.7136 19.9572Z" fill="url(#paint10_linear_564_3343)"/>
<path d="M21.7136 19.9572L30.9188 19.5841L37.0867 28.3038L28.2086 28.4903L21.7136 19.9572Z" fill="url(#paint11_linear_564_3343)"/>
<path d="M21.7136 19.9572L30.9188 19.5841L37.0867 28.3038L28.2086 28.4903L21.7136 19.9572Z" fill="url(#paint12_linear_564_3343)"/>
<path fill-rule="evenodd" clip-rule="evenodd" d="M22.8135 20.2043L28.7921 28.0285L28.183 28.5009L21.7456 20.0762C21.6399 19.938 21.6391 19.7457 21.7435 19.6065L28.277 10.8966L28.8902 11.3636L22.8404 19.4287L31.3584 19.1703L31.3815 19.9444L22.8135 20.2043Z" fill="url(#paint13_radial_564_3343)"/>
<path d="M44.1498 41.48L38.1822 50.0501C38.0891 50.184 38.0894 50.3621 38.1828 50.4957L44.0588 58.8831C44.2109 59.0997 44.5288 59.1018 44.6836 58.8874L50.7404 50.4969C50.8369 50.3631 50.8385 50.1821 50.7441 50.0468L44.7789 41.48C44.6259 41.2603 44.3028 41.2603 44.1498 41.48Z" fill="url(#paint14_linear_564_3343)"/>
<path d="M44.1498 41.48L38.1822 50.0501C38.0891 50.184 38.0894 50.3621 38.1828 50.4957L44.0588 58.8831C44.2109 59.0997 44.5288 59.1018 44.6836 58.8874L50.7404 50.4969C50.8369 50.3631 50.8385 50.1821 50.7441 50.0468L44.7789 41.48C44.6259 41.2603 44.3028 41.2603 44.1498 41.48Z" fill="url(#paint15_linear_564_3343)"/>
<path d="M44.4641 41.3188L38.2018 50.2384L28.995 50.6123L35.4911 41.7391L44.4641 41.3188Z" fill="url(#paint16_linear_564_3343)"/>
<path d="M29.043 50.7265L38.2481 50.3532L44.4161 59.0729L35.5378 59.2594L29.043 50.7265Z" fill="url(#paint17_linear_564_3343)"/>
<path d="M29.043 50.7265L38.2481 50.3532L44.4161 59.0729L35.5378 59.2594L29.043 50.7265Z" fill="url(#paint18_linear_564_3343)"/>
<path d="M29.043 50.7265L38.2481 50.3532L44.4161 59.0729L35.5378 59.2594L29.043 50.7265Z" fill="url(#paint19_linear_564_3343)"/>
<path fill-rule="evenodd" clip-rule="evenodd" d="M30.1428 50.9735L36.1215 58.7976L35.5125 59.2701L29.0749 50.8455C28.9693 50.7072 28.9684 50.5149 29.0728 50.3758L35.6063 41.6659L36.2195 42.1329L30.1698 50.1979L38.6877 49.9394L38.7108 50.7135L30.1428 50.9735Z" fill="url(#paint20_radial_564_3343)"/>
<path d="M36.8205 31.0185L30.8529 39.5886C30.7597 39.7225 30.76 39.9006 30.8535 40.0342L36.7295 48.4215C36.8816 48.6382 37.1995 48.6403 37.3543 48.4259L43.4111 40.0354C43.5076 39.9015 43.5091 39.7206 43.4148 39.5852L37.4496 31.0185C37.2966 30.7988 36.9735 30.7988 36.8205 31.0185Z" fill="url(#paint21_linear_564_3343)"/>
<path d="M36.8205 31.0185L30.8529 39.5886C30.7597 39.7225 30.76 39.9006 30.8535 40.0342L36.7295 48.4215C36.8816 48.6382 37.1995 48.6403 37.3543 48.4259L43.4111 40.0354C43.5076 39.9015 43.5091 39.7206 43.4148 39.5852L37.4496 31.0185C37.2966 30.7988 36.9735 30.7988 36.8205 31.0185Z" fill="url(#paint22_linear_564_3343)"/>
<path d="M37.1347 30.8572L30.8724 39.7769L21.6656 40.1508L28.1617 31.2775L37.1347 30.8572Z" fill="url(#paint23_linear_564_3343)"/>
<path d="M21.7136 40.2649L30.9188 39.8917L37.0867 48.6114L28.2086 48.7978L21.7136 40.2649Z" fill="url(#paint24_linear_564_3343)"/>
<path d="M21.7136 40.2649L30.9188 39.8917L37.0867 48.6114L28.2086 48.7978L21.7136 40.2649Z" fill="url(#paint25_linear_564_3343)"/>
<path d="M21.7136 40.2649L30.9188 39.8917L37.0867 48.6114L28.2086 48.7978L21.7136 40.2649Z" fill="url(#paint26_linear_564_3343)"/>
<path fill-rule="evenodd" clip-rule="evenodd" d="M22.8134 40.5119L28.7921 48.3361L28.183 48.8085L21.7456 40.3839C21.6399 40.2457 21.6391 40.0534 21.7435 39.9142L28.277 31.2044L28.8902 31.6713L22.8404 39.7363L31.3584 39.4779L31.3815 40.252L22.8134 40.5119Z" fill="url(#paint27_radial_564_3343)"/>
<path d="M29.7964 20.8647L23.829 29.4347C23.7358 29.5686 23.7361 29.7469 23.8296 29.8804L29.7057 38.2677C29.8575 38.4843 30.1756 38.4865 30.3305 38.272L36.3871 29.8815C36.4836 29.7477 36.4852 29.5668 36.3908 29.4314L30.4257 20.8647C30.2727 20.6449 29.9495 20.6449 29.7964 20.8647Z" fill="url(#paint28_linear_564_3343)"/>
<path d="M29.7964 20.8647L23.829 29.4347C23.7358 29.5686 23.7361 29.7469 23.8296 29.8804L29.7057 38.2677C29.8575 38.4843 30.1756 38.4865 30.3305 38.272L36.3871 29.8815C36.4836 29.7477 36.4852 29.5668 36.3908 29.4314L30.4257 20.8647C30.2727 20.6449 29.9495 20.6449 29.7964 20.8647Z" fill="url(#paint29_linear_564_3343)"/>
<path d="M30.1108 20.7034L23.8484 29.6232L14.6417 29.9968L21.1378 21.1237L30.1108 20.7034Z" fill="url(#paint30_linear_564_3343)"/>
<path d="M14.6897 30.111L23.8948 29.738L30.0627 38.4575L21.1847 38.644L14.6897 30.111Z" fill="url(#paint31_linear_564_3343)"/>
<path d="M14.6897 30.111L23.8948 29.738L30.0627 38.4575L21.1847 38.644L14.6897 30.111Z" fill="url(#paint32_linear_564_3343)"/>
<path d="M14.6897 30.111L23.8948 29.738L30.0627 38.4575L21.1847 38.644L14.6897 30.111Z" fill="url(#paint33_linear_564_3343)"/>
<path fill-rule="evenodd" clip-rule="evenodd" d="M15.7894 30.3581L21.768 38.1823L21.159 38.6547L14.7215 30.2301C14.6159 30.0919 14.6151 29.8996 14.7194 29.7604L21.253 21.0505L21.8662 21.5175L15.8164 29.5825L24.3344 29.3242L24.3575 30.0983L15.7894 30.3581Z" fill="url(#paint34_radial_564_3343)"/>
<path d="M22.7725 31.3261L16.8051 39.8963C16.7119 40.0301 16.7121 40.2083 16.8057 40.3418L22.6818 48.7292C22.8336 48.9458 23.1517 48.948 23.3066 48.7335L29.3631 40.3431C29.4597 40.2092 29.4612 40.0283 29.3669 39.8929L23.4018 31.3261C23.2487 31.1065 22.9256 31.1065 22.7725 31.3261Z" fill="url(#paint35_linear_564_3343)"/>
<path d="M22.7725 31.3261L16.8051 39.8963C16.7119 40.0301 16.7121 40.2083 16.8057 40.3418L22.6818 48.7292C22.8336 48.9458 23.1517 48.948 23.3066 48.7335L29.3631 40.3431C29.4597 40.2092 29.4612 40.0283 29.3669 39.8929L23.4018 31.3261C23.2487 31.1065 22.9256 31.1065 22.7725 31.3261Z" fill="url(#paint36_linear_564_3343)"/>
<path d="M23.0867 31.1649L16.8243 40.0846L7.61768 40.4585L14.1138 31.5852L23.0867 31.1649Z" fill="url(#paint37_linear_564_3343)"/>
<path d="M7.66577 40.5726L16.8709 40.1994L23.0387 48.9191L14.1607 49.1055L7.66577 40.5726Z" fill="url(#paint38_linear_564_3343)"/>
<path d="M7.66577 40.5726L16.8709 40.1994L23.0387 48.9191L14.1607 49.1055L7.66577 40.5726Z" fill="url(#paint39_linear_564_3343)"/>
<path d="M7.66577 40.5726L16.8709 40.1994L23.0387 48.9191L14.1607 49.1055L7.66577 40.5726Z" fill="url(#paint40_linear_564_3343)"/>
<path fill-rule="evenodd" clip-rule="evenodd" d="M8.76548 40.8196L14.7441 48.6438L14.135 49.1162L7.69759 40.6916C7.59198 40.5534 7.59113 40.3611 7.69552 40.2219L14.229 31.5121L14.8423 31.979L8.79245 40.044L17.3104 39.7856L17.3336 40.5597L8.76548 40.8196Z" fill="url(#paint41_radial_564_3343)"/>
<path d="M15.4432 41.7877L9.47572 50.3578C9.38254 50.4917 9.38279 50.6698 9.47636 50.8034L15.3524 59.1908C15.5042 59.4074 15.8224 59.4095 15.9772 59.1951L22.0338 50.8046C22.1304 50.6708 22.1319 50.4898 22.0376 50.3545L16.0724 41.7877C15.9194 41.568 15.5962 41.568 15.4432 41.7877Z" fill="url(#paint42_linear_564_3343)"/>
<path d="M15.4432 41.7877L9.47572 50.3578C9.38254 50.4917 9.38279 50.6698 9.47636 50.8034L15.3524 59.1908C15.5042 59.4074 15.8224 59.4095 15.9772 59.1951L22.0338 50.8046C22.1304 50.6708 22.1319 50.4898 22.0376 50.3545L16.0724 41.7877C15.9194 41.568 15.5962 41.568 15.4432 41.7877Z" fill="url(#paint43_linear_564_3343)"/>
<path d="M15.7574 41.6265L9.49498 50.5462L0.28833 50.92L6.78441 42.0468L15.7574 41.6265Z" fill="url(#paint44_linear_564_3343)"/>
<path d="M0.336426 51.0341L9.54157 50.6609L15.7094 59.3806L6.83139 59.5671L0.336426 51.0341Z" fill="url(#paint45_linear_564_3343)"/>
<path d="M0.336426 51.0341L9.54157 50.6609L15.7094 59.3806L6.83139 59.5671L0.336426 51.0341Z" fill="url(#paint46_linear_564_3343)"/>
<path d="M0.336426 51.0341L9.54157 50.6609L15.7094 59.3806L6.83139 59.5671L0.336426 51.0341Z" fill="url(#paint47_linear_564_3343)"/>
<path fill-rule="evenodd" clip-rule="evenodd" d="M1.43613 51.2812L7.41475 59.1053L6.80569 59.5778L0.368248 51.1531C0.26263 51.0149 0.261779 50.8226 0.366171 50.6834L6.89969 41.9736L7.5129 42.4406L1.46311 50.5055L9.98107 50.2471L10.0042 51.0212L1.43613 51.2812Z" fill="url(#paint48_radial_564_3343)"/>
<path d="M22.7725 10.7108L16.8051 19.2809C16.7119 19.4147 16.7121 19.5931 16.8057 19.7266L22.6818 28.1138C22.8336 28.3305 23.1517 28.3327 23.3066 28.1182L29.3631 19.7277C29.4597 19.5939 29.4612 19.413 29.3669 19.2775L23.4018 10.7108C23.2487 10.4911 22.9256 10.4911 22.7725 10.7108Z" fill="url(#paint49_linear_564_3343)"/>
<path d="M22.7725 10.7108L16.8051 19.2809C16.7119 19.4147 16.7121 19.5931 16.8057 19.7266L22.6818 28.1138C22.8336 28.3305 23.1517 28.3327 23.3066 28.1182L29.3631 19.7277C29.4597 19.5939 29.4612 19.413 29.3669 19.2775L23.4018 10.7108C23.2487 10.4911 22.9256 10.4911 22.7725 10.7108Z" fill="url(#paint50_linear_564_3343)"/>
<path d="M23.0867 10.5496L16.8243 19.4693L7.61768 19.8429L14.1138 10.9699L23.0867 10.5496Z" fill="url(#paint51_linear_564_3343)"/>
<path d="M7.66577 19.9572L16.8709 19.5841L23.0387 28.3038L14.1607 28.4903L7.66577 19.9572Z" fill="url(#paint52_linear_564_3343)"/>
<path d="M7.66577 19.9572L16.8709 19.5841L23.0387 28.3038L14.1607 28.4903L7.66577 19.9572Z" fill="url(#paint53_linear_564_3343)"/>
<path d="M7.66577 19.9572L16.8709 19.5841L23.0387 28.3038L14.1607 28.4903L7.66577 19.9572Z" fill="url(#paint54_linear_564_3343)"/>
<path fill-rule="evenodd" clip-rule="evenodd" d="M8.76548 20.2043L14.7441 28.0285L14.135 28.5009L7.69759 20.0762C7.59198 19.938 7.59113 19.7457 7.69552 19.6065L14.229 10.8966L14.8423 11.3636L8.79244 19.4287L17.3104 19.1703L17.3336 19.9444L8.76548 20.2043Z" fill="url(#paint55_radial_564_3343)"/>
<path d="M15.4432 0.557013L9.47572 9.12706C9.38254 9.26087 9.38279 9.43921 9.47636 9.57275L15.3524 17.96C15.5042 18.1766 15.8224 18.1789 15.9772 17.9644L22.0338 9.57383C22.1304 9.44001 22.1319 9.25915 22.0376 9.12367L16.0724 0.557013C15.9194 0.337238 15.5962 0.337238 15.4432 0.557013Z" fill="url(#paint56_linear_564_3343)"/>
<path d="M15.4432 0.557013L9.47572 9.12706C9.38254 9.26087 9.38279 9.43921 9.47636 9.57275L15.3524 17.96C15.5042 18.1766 15.8224 18.1789 15.9772 17.9644L22.0338 9.57383C22.1304 9.44001 22.1319 9.25915 22.0376 9.12367L16.0724 0.557013C15.9194 0.337238 15.5962 0.337238 15.4432 0.557013Z" fill="url(#paint57_linear_564_3343)"/>
<path d="M15.7574 0.395721L9.49498 9.31547L0.28833 9.68907L6.78441 0.816023L15.7574 0.395721Z" fill="url(#paint58_linear_564_3343)"/>
<path d="M0.336426 9.80331L9.54157 9.43027L15.7094 18.1499L6.83139 18.3364L0.336426 9.80331Z" fill="url(#paint59_linear_564_3343)"/>
<path d="M0.336426 9.80331L9.54157 9.43027L15.7094 18.1499L6.83139 18.3364L0.336426 9.80331Z" fill="url(#paint60_linear_564_3343)"/>
<path d="M0.336426 9.80331L9.54157 9.43027L15.7094 18.1499L6.83139 18.3364L0.336426 9.80331Z" fill="url(#paint61_linear_564_3343)"/>
<path fill-rule="evenodd" clip-rule="evenodd" d="M1.43613 10.0504L7.41475 17.8747L6.80569 18.3471L0.368248 9.92242C0.26263 9.78419 0.26178 9.59188 0.36617 9.45272L6.89969 0.742798L7.51291 1.20975L1.4631 9.27483L9.98108 9.0165L10.0042 9.7906L1.43613 10.0504Z" fill="url(#paint62_radial_564_3343)"/>
<path fill-rule="evenodd" clip-rule="evenodd" d="M44.7037 0.451482C44.5507 0.231708 44.2276 0.231708 44.0746 0.451482L38.107 9.02153C38.0139 9.15532 38.0142 9.33369 38.1076 9.46722L43.9836 17.8544C44.1354 18.0711 44.4536 18.0733 44.6085 17.8589L50.6649 9.4683C50.7617 9.33449 50.7633 9.15362 50.6689 9.01815L44.7037 0.451482ZM37.5937 10.8097C37.4407 10.59 37.1176 10.59 36.9643 10.8097L30.997 19.3798C30.9038 19.5136 30.9041 19.6919 30.9976 19.8255L36.8736 28.2127C37.0253 28.4293 37.3436 28.4316 37.4984 28.2171L43.5549 19.8265C43.6517 19.6927 43.6532 19.5118 43.5588 19.3764L37.5937 10.8097ZM38.1076 50.4157C38.0142 50.2821 38.0139 50.104 38.107 49.9701L44.0746 41.4C44.2276 41.1803 44.5507 41.1803 44.7037 41.4L50.6689 49.9668C50.7633 50.1021 50.7617 50.2831 50.6649 50.4169L44.6085 58.8074C44.4536 59.0218 44.1354 59.0197 43.9836 58.8031L38.1076 50.4157ZM37.5937 31.1391C37.4407 30.9191 37.1173 30.9191 36.9643 31.1391L30.997 39.7089C30.9038 39.8428 30.9038 40.0212 30.9976 40.1548L36.8736 48.5418C37.0253 48.7585 37.3436 48.7609 37.4984 48.5465L43.5549 40.1557C43.6517 40.0218 43.6532 39.8412 43.5588 39.7055L37.5937 31.1391ZM23.8877 29.8933C23.7941 29.7597 23.7939 29.5814 23.887 29.4476L29.8545 20.8776C30.0076 20.6578 30.3307 20.6578 30.4838 20.8776L36.4488 29.4442C36.5431 29.5797 36.5416 29.7606 36.4451 29.8944L30.3885 38.2849C30.2337 38.4994 29.9155 38.4972 29.7637 38.2806L23.8877 29.8933ZM23.3736 31.3326C23.2206 31.1126 22.8974 31.1126 22.7444 31.3326L16.7769 39.9025C16.6837 40.0363 16.684 40.2148 16.7775 40.3483L22.6536 48.7354C22.8054 48.952 23.1236 48.9545 23.2784 48.74L29.3349 40.3492C29.4315 40.2154 29.4331 40.0348 29.3388 39.8991L23.3736 31.3326ZM9.47471 50.3575L15.4422 41.7874C15.5952 41.5677 15.9184 41.5677 16.0714 41.7874L22.0366 50.3541C22.1309 50.4895 22.1294 50.6705 22.0328 50.8043L15.9762 59.1948C15.8214 59.4092 15.5032 59.4071 15.3514 59.1905L9.47536 50.8031C9.38178 50.6695 9.38154 50.4914 9.47471 50.3575ZM23.2773 10.8097C23.1242 10.5899 22.8011 10.5899 22.648 10.8097L16.6806 19.3797C16.5874 19.5135 16.5877 19.6918 16.6812 19.8254L22.5573 28.2126C22.7091 28.4293 23.0272 28.4315 23.1821 28.217L29.2386 19.8265C29.3352 19.6927 29.3367 19.5118 29.2424 19.3763L23.2773 10.8097ZM9.37931 9.66104C9.28574 9.5275 9.2855 9.34913 9.37867 9.21532L15.3462 0.645292C15.4992 0.425519 15.8224 0.425519 15.9754 0.645292L21.9405 9.21196C22.0349 9.34741 22.0333 9.5283 21.9367 9.66212L15.8802 18.0527C15.7253 18.2672 15.4072 18.2649 15.2554 18.0482L9.37931 9.66104Z" fill="url(#paint63_linear_564_3343)"/>
</g>
<defs>
<linearGradient id="paint0_linear_564_3343" x1="49.0764" y1="9.30174" x2="37.6979" y2="5.95736" gradientUnits="userSpaceOnUse">
<stop offset="0.120691" stop-color="#008FC7"/>
<stop offset="1" stop-color="#D4A9FF" stop-opacity="0.33"/>
</linearGradient>
<linearGradient id="paint1_linear_564_3343" x1="49.1723" y1="2.23491" x2="32.9329" y2="12.8195" gradientUnits="userSpaceOnUse">
<stop offset="0.0364583" stop-color="#E7C0FF"/>
<stop offset="0.729167" stop-color="#4D73FC" stop-opacity="0.99"/>
</linearGradient>
<linearGradient id="paint2_linear_564_3343" x1="39.2764" y1="9.73577" x2="32.2494" y2="1.32951" gradientUnits="userSpaceOnUse">
<stop stop-color="#942CE6" stop-opacity="0"/>
<stop offset="0.647437" stop-color="#0F46D3"/>
</linearGradient>
<linearGradient id="paint3_linear_564_3343" x1="39.9302" y1="19.1757" x2="38.3154" y2="6.73386" gradientUnits="userSpaceOnUse">
<stop offset="0.0979904" stop-color="#1F1CB5"/>
<stop offset="0.952287" stop-color="#1F1CB5" stop-opacity="0"/>
</linearGradient>
<linearGradient id="paint4_linear_564_3343" x1="37.4413" y1="19.7241" x2="37.1313" y2="8.18581" gradientUnits="userSpaceOnUse">
<stop stop-color="#FF994F"/>
<stop offset="0.306945" stop-color="#FF994F" stop-opacity="0"/>
</linearGradient>
<linearGradient id="paint5_linear_564_3343" x1="32.5551" y1="16.3395" x2="45.9021" y2="7.36953" gradientUnits="userSpaceOnUse">
<stop stop-color="#FF994F"/>
<stop offset="0.306945" stop-color="#FF994F" stop-opacity="0"/>
</linearGradient>
<radialGradient id="paint6_radial_564_3343" cx="0" cy="0" r="1" gradientUnits="userSpaceOnUse" gradientTransform="translate(30.7259 10.8875) rotate(72.2447) scale(20.1569 7.34859)">
<stop stop-color="#49B3FF"/>
<stop offset="0.828125" stop-color="#49B3FF" stop-opacity="0"/>
</radialGradient>
<linearGradient id="paint7_linear_564_3343" x1="41.747" y1="19.4556" x2="30.3686" y2="16.1112" gradientUnits="userSpaceOnUse">
<stop offset="0.120691" stop-color="#008FC7"/>
<stop offset="1" stop-color="#D4A9FF" stop-opacity="0.33"/>
</linearGradient>
<linearGradient id="paint8_linear_564_3343" x1="41.8429" y1="12.3887" x2="25.6036" y2="22.9733" gradientUnits="userSpaceOnUse">
<stop offset="0.0364583" stop-color="#E7C0FF"/>
<stop offset="0.729167" stop-color="#4D73FC" stop-opacity="0.99"/>
</linearGradient>
<linearGradient id="paint9_linear_564_3343" x1="31.9471" y1="19.8896" x2="24.92" y2="11.4834" gradientUnits="userSpaceOnUse">
<stop stop-color="#942CE6" stop-opacity="0"/>
<stop offset="0.647437" stop-color="#0F46D3"/>
</linearGradient>
<linearGradient id="paint10_linear_564_3343" x1="32.6009" y1="29.3296" x2="30.9861" y2="16.8877" gradientUnits="userSpaceOnUse">
<stop offset="0.0979904" stop-color="#1F1CB5"/>
<stop offset="0.952287" stop-color="#1F1CB5" stop-opacity="0"/>
</linearGradient>
<linearGradient id="paint11_linear_564_3343" x1="30.1118" y1="29.878" x2="29.8018" y2="18.3397" gradientUnits="userSpaceOnUse">
<stop stop-color="#FF994F"/>
<stop offset="0.306945" stop-color="#FF994F" stop-opacity="0"/>
</linearGradient>
<linearGradient id="paint12_linear_564_3343" x1="25.2256" y1="26.4934" x2="38.5727" y2="17.5234" gradientUnits="userSpaceOnUse">
<stop stop-color="#FF994F"/>
<stop offset="0.306945" stop-color="#FF994F" stop-opacity="0"/>
</linearGradient>
<radialGradient id="paint13_radial_564_3343" cx="0" cy="0" r="1" gradientUnits="userSpaceOnUse" gradientTransform="translate(23.3966 21.0413) rotate(72.2447) scale(20.1569 7.34859)">
<stop stop-color="#49B3FF"/>
<stop offset="0.828125" stop-color="#49B3FF" stop-opacity="0"/>
</radialGradient>
<linearGradient id="paint14_linear_564_3343" x1="49.0764" y1="50.2249" x2="37.6979" y2="46.8804" gradientUnits="userSpaceOnUse">
<stop offset="0.120691" stop-color="#008FC7"/>
<stop offset="1" stop-color="#D4A9FF" stop-opacity="0.33"/>
</linearGradient>
<linearGradient id="paint15_linear_564_3343" x1="49.1723" y1="43.1578" x2="32.9329" y2="53.7425" gradientUnits="userSpaceOnUse">
<stop offset="0.0364583" stop-color="#E7C0FF"/>
<stop offset="0.729167" stop-color="#4D73FC" stop-opacity="0.99"/>
</linearGradient>
<linearGradient id="paint16_linear_564_3343" x1="39.2764" y1="50.6588" x2="32.2494" y2="42.2525" gradientUnits="userSpaceOnUse">
<stop stop-color="#942CE6" stop-opacity="0"/>
<stop offset="0.647437" stop-color="#0F46D3"/>
</linearGradient>
<linearGradient id="paint17_linear_564_3343" x1="39.9302" y1="60.0988" x2="38.3154" y2="47.6569" gradientUnits="userSpaceOnUse">
<stop offset="0.0979904" stop-color="#1F1CB5"/>
<stop offset="0.952287" stop-color="#1F1CB5" stop-opacity="0"/>
</linearGradient>
<linearGradient id="paint18_linear_564_3343" x1="37.4413" y1="60.6474" x2="37.1313" y2="49.1091" gradientUnits="userSpaceOnUse">
<stop stop-color="#FF994F"/>
<stop offset="0.306945" stop-color="#FF994F" stop-opacity="0"/>
</linearGradient>
<linearGradient id="paint19_linear_564_3343" x1="32.5551" y1="57.2628" x2="45.9021" y2="48.2925" gradientUnits="userSpaceOnUse">
<stop stop-color="#FF994F"/>
<stop offset="0.306945" stop-color="#FF994F" stop-opacity="0"/>
</linearGradient>
<radialGradient id="paint20_radial_564_3343" cx="0" cy="0" r="1" gradientUnits="userSpaceOnUse" gradientTransform="translate(30.7259 51.8105) rotate(72.2447) scale(20.1569 7.34859)">
<stop stop-color="#49B3FF"/>
<stop offset="0.828125" stop-color="#49B3FF" stop-opacity="0"/>
</radialGradient>
<linearGradient id="paint21_linear_564_3343" x1="41.747" y1="39.7634" x2="30.3686" y2="36.4189" gradientUnits="userSpaceOnUse">
<stop offset="0.120691" stop-color="#008FC7"/>
<stop offset="1" stop-color="#D4A9FF" stop-opacity="0.33"/>
</linearGradient>
<linearGradient id="paint22_linear_564_3343" x1="41.8429" y1="32.6963" x2="25.6036" y2="43.281" gradientUnits="userSpaceOnUse">
<stop offset="0.0364583" stop-color="#E7C0FF"/>
<stop offset="0.729167" stop-color="#4D73FC" stop-opacity="0.99"/>
</linearGradient>
<linearGradient id="paint23_linear_564_3343" x1="31.9471" y1="40.1972" x2="24.92" y2="31.791" gradientUnits="userSpaceOnUse">
<stop stop-color="#942CE6" stop-opacity="0"/>
<stop offset="0.647437" stop-color="#0F46D3"/>
</linearGradient>
<linearGradient id="paint24_linear_564_3343" x1="32.6009" y1="49.6372" x2="30.9861" y2="37.1954" gradientUnits="userSpaceOnUse">
<stop offset="0.0979904" stop-color="#1F1CB5"/>
<stop offset="0.952287" stop-color="#1F1CB5" stop-opacity="0"/>
</linearGradient>
<linearGradient id="paint25_linear_564_3343" x1="30.1118" y1="50.1858" x2="29.8018" y2="38.6475" gradientUnits="userSpaceOnUse">
<stop stop-color="#FF994F"/>
<stop offset="0.306945" stop-color="#FF994F" stop-opacity="0"/>
</linearGradient>
<linearGradient id="paint26_linear_564_3343" x1="25.2256" y1="46.8012" x2="38.5727" y2="37.831" gradientUnits="userSpaceOnUse">
<stop stop-color="#FF994F"/>
<stop offset="0.306945" stop-color="#FF994F" stop-opacity="0"/>
</linearGradient>
<radialGradient id="paint27_radial_564_3343" cx="0" cy="0" r="1" gradientUnits="userSpaceOnUse" gradientTransform="translate(23.3966 41.3489) rotate(72.2447) scale(20.1569 7.34859)">
<stop stop-color="#49B3FF"/>
<stop offset="0.828125" stop-color="#49B3FF" stop-opacity="0"/>
</radialGradient>
<linearGradient id="paint28_linear_564_3343" x1="34.7231" y1="29.6094" x2="23.3447" y2="26.265" gradientUnits="userSpaceOnUse">
<stop offset="0.120691" stop-color="#008FC7"/>
<stop offset="1" stop-color="#D4A9FF" stop-opacity="0.33"/>
</linearGradient>
<linearGradient id="paint29_linear_564_3343" x1="34.819" y1="22.5426" x2="18.5797" y2="33.1271" gradientUnits="userSpaceOnUse">
<stop offset="0.0364583" stop-color="#E7C0FF"/>
<stop offset="0.729167" stop-color="#4D73FC" stop-opacity="0.99"/>
</linearGradient>
<linearGradient id="paint30_linear_564_3343" x1="24.9233" y1="30.0435" x2="17.8961" y2="21.6372" gradientUnits="userSpaceOnUse">
<stop stop-color="#942CE6" stop-opacity="0"/>
<stop offset="0.647437" stop-color="#0F46D3"/>
</linearGradient>
<linearGradient id="paint31_linear_564_3343" x1="25.5769" y1="39.4834" x2="23.9621" y2="27.0416" gradientUnits="userSpaceOnUse">
<stop offset="0.0979904" stop-color="#1F1CB5"/>
<stop offset="0.952287" stop-color="#1F1CB5" stop-opacity="0"/>
</linearGradient>
<linearGradient id="paint32_linear_564_3343" x1="23.0879" y1="40.032" x2="22.7779" y2="28.4935" gradientUnits="userSpaceOnUse">
<stop stop-color="#FF994F"/>
<stop offset="0.306945" stop-color="#FF994F" stop-opacity="0"/>
</linearGradient>
<linearGradient id="paint33_linear_564_3343" x1="18.2017" y1="36.6474" x2="31.5488" y2="27.6772" gradientUnits="userSpaceOnUse">
<stop stop-color="#FF994F"/>
<stop offset="0.306945" stop-color="#FF994F" stop-opacity="0"/>
</linearGradient>
<radialGradient id="paint34_radial_564_3343" cx="0" cy="0" r="1" gradientUnits="userSpaceOnUse" gradientTransform="translate(16.3725 31.1951) rotate(72.2447) scale(20.1569 7.34859)">
<stop stop-color="#49B3FF"/>
<stop offset="0.828125" stop-color="#49B3FF" stop-opacity="0"/>
</radialGradient>
<linearGradient id="paint35_linear_564_3343" x1="27.6991" y1="40.0711" x2="16.3207" y2="36.7265" gradientUnits="userSpaceOnUse">
<stop offset="0.120691" stop-color="#008FC7"/>
<stop offset="1" stop-color="#D4A9FF" stop-opacity="0.33"/>
</linearGradient>
<linearGradient id="paint36_linear_564_3343" x1="27.7951" y1="33.004" x2="11.5557" y2="43.5886" gradientUnits="userSpaceOnUse">
<stop offset="0.0364583" stop-color="#E7C0FF"/>
<stop offset="0.729167" stop-color="#4D73FC" stop-opacity="0.99"/>
</linearGradient>
<linearGradient id="paint37_linear_564_3343" x1="17.8992" y1="40.5049" x2="10.872" y2="32.0987" gradientUnits="userSpaceOnUse">
<stop stop-color="#942CE6" stop-opacity="0"/>
<stop offset="0.647437" stop-color="#0F46D3"/>
</linearGradient>
<linearGradient id="paint38_linear_564_3343" x1="18.553" y1="49.9449" x2="16.9381" y2="37.5031" gradientUnits="userSpaceOnUse">
<stop offset="0.0979904" stop-color="#1F1CB5"/>
<stop offset="0.952287" stop-color="#1F1CB5" stop-opacity="0"/>
</linearGradient>
<linearGradient id="paint39_linear_564_3343" x1="16.064" y1="50.4935" x2="15.754" y2="38.9552" gradientUnits="userSpaceOnUse">
<stop stop-color="#FF994F"/>
<stop offset="0.306945" stop-color="#FF994F" stop-opacity="0"/>
</linearGradient>
<linearGradient id="paint40_linear_564_3343" x1="11.1777" y1="47.1089" x2="24.5248" y2="38.1386" gradientUnits="userSpaceOnUse">
<stop stop-color="#FF994F"/>
<stop offset="0.306945" stop-color="#FF994F" stop-opacity="0"/>
</linearGradient>
<radialGradient id="paint41_radial_564_3343" cx="0" cy="0" r="1" gradientUnits="userSpaceOnUse" gradientTransform="translate(9.34858 41.6566) rotate(72.2447) scale(20.1569 7.34859)">
<stop stop-color="#49B3FF"/>
<stop offset="0.828125" stop-color="#49B3FF" stop-opacity="0"/>
</radialGradient>
<linearGradient id="paint42_linear_564_3343" x1="20.3697" y1="50.5326" x2="8.9914" y2="47.1881" gradientUnits="userSpaceOnUse">
<stop offset="0.120691" stop-color="#008FC7"/>
<stop offset="1" stop-color="#D4A9FF" stop-opacity="0.33"/>
</linearGradient>
<linearGradient id="paint43_linear_564_3343" x1="20.4658" y1="43.4655" x2="4.22639" y2="54.0502" gradientUnits="userSpaceOnUse">
<stop offset="0.0364583" stop-color="#E7C0FF"/>
<stop offset="0.729167" stop-color="#4D73FC" stop-opacity="0.99"/>
</linearGradient>
<linearGradient id="paint44_linear_564_3343" x1="10.5699" y1="50.9665" x2="3.54268" y2="42.5602" gradientUnits="userSpaceOnUse">
<stop stop-color="#942CE6" stop-opacity="0"/>
<stop offset="0.647437" stop-color="#0F46D3"/>
</linearGradient>
<linearGradient id="paint45_linear_564_3343" x1="11.2237" y1="60.4065" x2="9.60879" y2="47.9646" gradientUnits="userSpaceOnUse">
<stop offset="0.0979904" stop-color="#1F1CB5"/>
<stop offset="0.952287" stop-color="#1F1CB5" stop-opacity="0"/>
</linearGradient>
<linearGradient id="paint46_linear_564_3343" x1="8.73464" y1="60.9551" x2="8.42463" y2="49.4167" gradientUnits="userSpaceOnUse">
<stop stop-color="#FF994F"/>
<stop offset="0.306945" stop-color="#FF994F" stop-opacity="0"/>
</linearGradient>
<linearGradient id="paint47_linear_564_3343" x1="3.84841" y1="57.5705" x2="17.1954" y2="48.6002" gradientUnits="userSpaceOnUse">
<stop stop-color="#FF994F"/>
<stop offset="0.306945" stop-color="#FF994F" stop-opacity="0"/>
</linearGradient>
<radialGradient id="paint48_radial_564_3343" cx="0" cy="0" r="1" gradientUnits="userSpaceOnUse" gradientTransform="translate(2.01924 52.1182) rotate(72.2447) scale(20.1569 7.34859)">
<stop stop-color="#49B3FF"/>
<stop offset="0.828125" stop-color="#49B3FF" stop-opacity="0"/>
</radialGradient>
<linearGradient id="paint49_linear_564_3343" x1="27.6991" y1="19.4556" x2="16.3207" y2="16.1112" gradientUnits="userSpaceOnUse">
<stop offset="0.120691" stop-color="#008FC7"/>
<stop offset="1" stop-color="#D4A9FF" stop-opacity="0.33"/>
</linearGradient>
<linearGradient id="paint50_linear_564_3343" x1="27.7951" y1="12.3887" x2="11.5557" y2="22.9733" gradientUnits="userSpaceOnUse">
<stop offset="0.0364583" stop-color="#E7C0FF"/>
<stop offset="0.729167" stop-color="#4D73FC" stop-opacity="0.99"/>
</linearGradient>
<linearGradient id="paint51_linear_564_3343" x1="17.8992" y1="19.8896" x2="10.872" y2="11.4834" gradientUnits="userSpaceOnUse">
<stop stop-color="#942CE6" stop-opacity="0"/>
<stop offset="0.647437" stop-color="#0F46D3"/>
</linearGradient>
<linearGradient id="paint52_linear_564_3343" x1="18.553" y1="29.3296" x2="16.9381" y2="16.8877" gradientUnits="userSpaceOnUse">
<stop offset="0.0979904" stop-color="#1F1CB5"/>
<stop offset="0.952287" stop-color="#1F1CB5" stop-opacity="0"/>
</linearGradient>
<linearGradient id="paint53_linear_564_3343" x1="16.064" y1="29.878" x2="15.754" y2="18.3397" gradientUnits="userSpaceOnUse">
<stop stop-color="#FF994F"/>
<stop offset="0.306945" stop-color="#FF994F" stop-opacity="0"/>
</linearGradient>
<linearGradient id="paint54_linear_564_3343" x1="11.1777" y1="26.4934" x2="24.5248" y2="17.5234" gradientUnits="userSpaceOnUse">
<stop stop-color="#FF994F"/>
<stop offset="0.306945" stop-color="#FF994F" stop-opacity="0"/>
</linearGradient>
<radialGradient id="paint55_radial_564_3343" cx="0" cy="0" r="1" gradientUnits="userSpaceOnUse" gradientTransform="translate(9.34858 21.0413) rotate(72.2447) scale(20.1569 7.34859)">
<stop stop-color="#49B3FF"/>
<stop offset="0.828125" stop-color="#49B3FF" stop-opacity="0"/>
</radialGradient>
<linearGradient id="paint56_linear_564_3343" x1="20.3697" y1="9.30174" x2="8.9914" y2="5.95736" gradientUnits="userSpaceOnUse">
<stop offset="0.120691" stop-color="#008FC7"/>
<stop offset="1" stop-color="#D4A9FF" stop-opacity="0.33"/>
</linearGradient>
<linearGradient id="paint57_linear_564_3343" x1="20.4658" y1="2.23491" x2="4.22639" y2="12.8195" gradientUnits="userSpaceOnUse">
<stop offset="0.0364583" stop-color="#E7C0FF"/>
<stop offset="0.729167" stop-color="#4D73FC" stop-opacity="0.99"/>
</linearGradient>
<linearGradient id="paint58_linear_564_3343" x1="10.5699" y1="9.73577" x2="3.54268" y2="1.32952" gradientUnits="userSpaceOnUse">
<stop stop-color="#942CE6" stop-opacity="0"/>
<stop offset="0.647437" stop-color="#0F46D3"/>
</linearGradient>
<linearGradient id="paint59_linear_564_3343" x1="11.2237" y1="19.1757" x2="9.60879" y2="6.73387" gradientUnits="userSpaceOnUse">
<stop offset="0.0979904" stop-color="#1F1CB5"/>
<stop offset="0.952287" stop-color="#1F1CB5" stop-opacity="0"/>
</linearGradient>
<linearGradient id="paint60_linear_564_3343" x1="8.73464" y1="19.7241" x2="8.42463" y2="8.18581" gradientUnits="userSpaceOnUse">
<stop stop-color="#FF994F"/>
<stop offset="0.306945" stop-color="#FF994F" stop-opacity="0"/>
</linearGradient>
<linearGradient id="paint61_linear_564_3343" x1="3.84841" y1="16.3395" x2="17.1954" y2="7.36953" gradientUnits="userSpaceOnUse">
<stop stop-color="#FF994F"/>
<stop offset="0.306945" stop-color="#FF994F" stop-opacity="0"/>
</linearGradient>
<radialGradient id="paint62_radial_564_3343" cx="0" cy="0" r="1" gradientUnits="userSpaceOnUse" gradientTransform="translate(2.01924 10.8875) rotate(72.2447) scale(20.1569 7.34859)">
<stop stop-color="#49B3FF"/>
<stop offset="0.828125" stop-color="#49B3FF" stop-opacity="0"/>
</radialGradient>
<linearGradient id="paint63_linear_564_3343" x1="42.0316" y1="2.25238" x2="20.0969" y2="57.2195" gradientUnits="userSpaceOnUse">
<stop stop-color="#CAB9FF" stop-opacity="0.99"/>
<stop offset="0.458333" stop-color="#B098F9"/>
<stop offset="0.880208" stop-color="#7599F5"/>
</linearGradient>
<clipPath id="clip0_564_3343">
<rect width="51" height="60" fill="white"/>
</clipPath>
</defs>
</svg>
