<svg xmlns="http://www.w3.org/2000/svg" width="41" height="48" viewBox="0 0 41 48" fill="none">
  <g clip-path="url(#clip0_564_5976)">
    <path d="M35.4929 0.445586L30.6954 7.30162C30.6205 7.40868 30.6208 7.55135 30.6959 7.65818L35.4197 14.3679C35.542 14.5413 35.7976 14.5431 35.9221 14.3715L40.7912 7.65904C40.8688 7.55199 40.87 7.4073 40.7942 7.29892L35.9987 0.445586C35.8757 0.269766 35.6159 0.269766 35.4929 0.445586Z" fill="url(#paint0_linear_564_5976)"/>
    <path d="M35.4929 0.445586L30.6954 7.30162C30.6205 7.40868 30.6208 7.55135 30.6959 7.65818L35.4197 14.3679C35.542 14.5413 35.7976 14.5431 35.9221 14.3715L40.7912 7.65904C40.8688 7.55199 40.87 7.4073 40.7942 7.29892L35.9987 0.445586C35.8757 0.269766 35.6159 0.269766 35.4929 0.445586Z" fill="url(#paint1_linear_564_5976)"/>
    <path d="M35.7455 0.31665L30.7111 7.45245L23.3096 7.75133L28.532 0.652892L35.7455 0.31665Z" fill="url(#paint2_linear_564_5976)"/>
    <path d="M23.3484 7.84263L30.7486 7.54419L35.7072 14.5199L28.5697 14.6691L23.3484 7.84263Z" fill="url(#paint3_linear_564_5976)"/>
    <path d="M23.3484 7.84263L30.7486 7.54419L35.7072 14.5199L28.5697 14.6691L23.3484 7.84263Z" fill="url(#paint4_linear_564_5976)"/>
    <path d="M23.3484 7.84263L30.7486 7.54419L35.7072 14.5199L28.5697 14.6691L23.3484 7.84263Z" fill="url(#paint5_linear_564_5976)"/>
    <path fill-rule="evenodd" clip-rule="evenodd" d="M24.2325 8.04036L29.0389 14.2997L28.5493 14.6777L23.374 7.93793C23.2891 7.82736 23.2884 7.67351 23.3723 7.56218L28.6247 0.594238L29.1177 0.967797L24.2541 7.41986L31.1019 7.2132L31.1205 7.83248L24.2325 8.04036Z" fill="url(#paint6_radial_564_5976)"/>
    <path d="M29.6008 8.56862L24.8033 15.4247C24.7284 15.5317 24.7287 15.6744 24.8038 15.7812L29.5277 22.491C29.6499 22.6643 29.9055 22.6661 30.03 22.4946L34.8991 15.7821C34.9767 15.675 34.978 15.5303 34.9021 15.422L30.1066 8.56862C29.9836 8.39282 29.7238 8.39282 29.6008 8.56862Z" fill="url(#paint7_linear_564_5976)"/>
    <path d="M29.6008 8.56862L24.8033 15.4247C24.7284 15.5317 24.7287 15.6744 24.8038 15.7812L29.5277 22.491C29.6499 22.6643 29.9055 22.6661 30.03 22.4946L34.8991 15.7821C34.9767 15.675 34.978 15.5303 34.9021 15.422L30.1066 8.56862C29.9836 8.39282 29.7238 8.39282 29.6008 8.56862Z" fill="url(#paint8_linear_564_5976)"/>
    <path d="M29.8534 8.4397L24.819 15.5755L17.4175 15.8744L22.6398 8.77594L29.8534 8.4397Z" fill="url(#paint9_linear_564_5976)"/>
    <path d="M17.4561 15.9657L24.8563 15.6672L29.8148 22.6429L22.6775 22.7921L17.4561 15.9657Z" fill="url(#paint10_linear_564_5976)"/>
    <path d="M17.4561 15.9657L24.8563 15.6672L29.8148 22.6429L22.6775 22.7921L17.4561 15.9657Z" fill="url(#paint11_linear_564_5976)"/>
    <path d="M17.4561 15.9657L24.8563 15.6672L29.8148 22.6429L22.6775 22.7921L17.4561 15.9657Z" fill="url(#paint12_linear_564_5976)"/>
    <path fill-rule="evenodd" clip-rule="evenodd" d="M18.3401 16.1634L23.1465 22.4228L22.6568 22.8007L17.4816 16.061C17.3967 15.9504 17.396 15.7965 17.48 15.6852L22.7324 8.71729L23.2254 9.09085L18.3618 15.5429L25.2096 15.3362L25.2282 15.9555L18.3401 16.1634Z" fill="url(#paint13_radial_564_5976)"/>
    <path d="M35.4929 33.1841L30.6954 40.0402C30.6205 40.1473 30.6208 40.2898 30.6959 40.3966L35.4197 47.1065C35.542 47.2798 35.7976 47.2815 35.9221 47.11L40.7912 40.3976C40.8688 40.2905 40.87 40.1458 40.7942 40.0375L35.9987 33.1841C35.8757 33.0083 35.6159 33.0083 35.4929 33.1841Z" fill="url(#paint14_linear_564_5976)"/>
    <path d="M35.4929 33.1841L30.6954 40.0402C30.6205 40.1473 30.6208 40.2898 30.6959 40.3966L35.4197 47.1065C35.542 47.2798 35.7976 47.2815 35.9221 47.11L40.7912 40.3976C40.8688 40.2905 40.87 40.1458 40.7942 40.0375L35.9987 33.1841C35.8757 33.0083 35.6159 33.0083 35.4929 33.1841Z" fill="url(#paint15_linear_564_5976)"/>
    <path d="M35.7455 33.0549L30.7111 40.1907L23.3096 40.4898L28.532 33.3912L35.7455 33.0549Z" fill="url(#paint16_linear_564_5976)"/>
    <path d="M23.3484 40.5811L30.7486 40.2825L35.7072 47.2582L28.5697 47.4074L23.3484 40.5811Z" fill="url(#paint17_linear_564_5976)"/>
    <path d="M23.3484 40.5811L30.7486 40.2825L35.7072 47.2582L28.5697 47.4074L23.3484 40.5811Z" fill="url(#paint18_linear_564_5976)"/>
    <path d="M23.3484 40.5811L30.7486 40.2825L35.7072 47.2582L28.5697 47.4074L23.3484 40.5811Z" fill="url(#paint19_linear_564_5976)"/>
    <path fill-rule="evenodd" clip-rule="evenodd" d="M24.2325 40.7788L29.0389 47.0381L28.5493 47.4161L23.374 40.6764C23.2891 40.5658 23.2884 40.412 23.3723 40.3006L28.6247 33.3328L29.1177 33.7063L24.2541 40.1583L31.1019 39.9516L31.1205 40.5708L24.2325 40.7788Z" fill="url(#paint20_radial_564_5976)"/>
    <path d="M29.6008 24.8147L24.8033 31.6708C24.7284 31.7779 24.7287 31.9204 24.8038 32.0272L29.5277 38.7371C29.6499 38.9104 29.9055 38.9122 30.03 38.7406L34.8991 32.0282C34.9767 31.9211 34.978 31.7764 34.9021 31.6681L30.1066 24.8147C29.9836 24.6389 29.7238 24.6389 29.6008 24.8147Z" fill="url(#paint21_linear_564_5976)"/>
    <path d="M29.6008 24.8147L24.8033 31.6708C24.7284 31.7779 24.7287 31.9204 24.8038 32.0272L29.5277 38.7371C29.6499 38.9104 29.9055 38.9122 30.03 38.7406L34.8991 32.0282C34.9767 31.9211 34.978 31.7764 34.9021 31.6681L30.1066 24.8147C29.9836 24.6389 29.7238 24.6389 29.6008 24.8147Z" fill="url(#paint22_linear_564_5976)"/>
    <path d="M29.8534 24.6858L24.819 31.8215L17.4175 32.1206L22.6398 25.022L29.8534 24.6858Z" fill="url(#paint23_linear_564_5976)"/>
    <path d="M17.4561 32.2119L24.8563 31.9133L29.8148 38.8891L22.6775 39.0383L17.4561 32.2119Z" fill="url(#paint24_linear_564_5976)"/>
    <path d="M17.4561 32.2119L24.8563 31.9133L29.8148 38.8891L22.6775 39.0383L17.4561 32.2119Z" fill="url(#paint25_linear_564_5976)"/>
    <path d="M17.4561 32.2119L24.8563 31.9133L29.8148 38.8891L22.6775 39.0383L17.4561 32.2119Z" fill="url(#paint26_linear_564_5976)"/>
    <path fill-rule="evenodd" clip-rule="evenodd" d="M18.3401 32.4094L23.1465 38.6688L22.6568 39.0467L17.4816 32.307C17.3967 32.1964 17.396 32.0426 17.48 31.9313L22.7324 24.9634L23.2254 25.3369L18.3618 31.7889L25.2096 31.5822L25.2282 32.2015L18.3401 32.4094Z" fill="url(#paint27_radial_564_5976)"/>
    <path d="M23.954 16.6917L19.1566 23.5477C19.0817 23.6548 19.0819 23.7974 19.1571 23.9043L23.881 30.6141C24.0031 30.7874 24.2588 30.7891 24.3833 30.6175L29.2524 23.9051C29.33 23.7981 29.3312 23.6534 29.2553 23.545L24.4599 16.6917C24.3368 16.5159 24.077 16.5159 23.954 16.6917Z" fill="url(#paint28_linear_564_5976)"/>
    <path d="M23.954 16.6917L19.1566 23.5477C19.0817 23.6548 19.0819 23.7974 19.1571 23.9043L23.881 30.6141C24.0031 30.7874 24.2588 30.7891 24.3833 30.6175L29.2524 23.9051C29.33 23.7981 29.3312 23.6534 29.2553 23.545L24.4599 16.6917C24.3368 16.5159 24.077 16.5159 23.954 16.6917Z" fill="url(#paint29_linear_564_5976)"/>
    <path d="M24.2067 16.5627L19.1722 23.6985L11.7708 23.9974L16.9931 16.899L24.2067 16.5627Z" fill="url(#paint30_linear_564_5976)"/>
    <path d="M11.8093 24.0887L19.2095 23.7903L24.168 30.7659L17.0308 30.9151L11.8093 24.0887Z" fill="url(#paint31_linear_564_5976)"/>
    <path d="M11.8093 24.0887L19.2095 23.7903L24.168 30.7659L17.0308 30.9151L11.8093 24.0887Z" fill="url(#paint32_linear_564_5976)"/>
    <path d="M11.8093 24.0887L19.2095 23.7903L24.168 30.7659L17.0308 30.9151L11.8093 24.0887Z" fill="url(#paint33_linear_564_5976)"/>
    <path fill-rule="evenodd" clip-rule="evenodd" d="M12.6934 24.2864L17.4997 30.5457L17.0101 30.9237L11.8349 24.184C11.75 24.0734 11.7493 23.9196 11.8332 23.8083L17.0857 16.8403L17.5786 17.2139L12.7151 23.6659L19.5629 23.4593L19.5815 24.0786L12.6934 24.2864Z" fill="url(#paint34_radial_564_5976)"/>
    <path d="M18.3073 25.061L13.5099 31.9171C13.435 32.0242 13.4352 32.1667 13.5104 32.2736L18.2343 38.9835C18.3563 39.1568 18.6121 39.1585 18.7366 38.9869L23.6056 32.2746C23.6832 32.1675 23.6845 32.0227 23.6086 31.9144L18.8131 25.061C18.6901 24.8853 18.4303 24.8853 18.3073 25.061Z" fill="url(#paint35_linear_564_5976)"/>
    <path d="M18.3073 25.061L13.5099 31.9171C13.435 32.0242 13.4352 32.1667 13.5104 32.2736L18.2343 38.9835C18.3563 39.1568 18.6121 39.1585 18.7366 38.9869L23.6056 32.2746C23.6832 32.1675 23.6845 32.0227 23.6086 31.9144L18.8131 25.061C18.6901 24.8853 18.4303 24.8853 18.3073 25.061Z" fill="url(#paint36_linear_564_5976)"/>
    <path d="M18.5599 24.9319L13.5255 32.0676L6.12402 32.3667L11.3464 25.2681L18.5599 24.9319Z" fill="url(#paint37_linear_564_5976)"/>
    <path d="M6.1626 32.458L13.5628 32.1594L18.5212 39.1352L11.384 39.2843L6.1626 32.458Z" fill="url(#paint38_linear_564_5976)"/>
    <path d="M6.1626 32.458L13.5628 32.1594L18.5212 39.1352L11.384 39.2843L6.1626 32.458Z" fill="url(#paint39_linear_564_5976)"/>
    <path d="M6.1626 32.458L13.5628 32.1594L18.5212 39.1352L11.384 39.2843L6.1626 32.458Z" fill="url(#paint40_linear_564_5976)"/>
    <path fill-rule="evenodd" clip-rule="evenodd" d="M7.04667 32.6558L11.853 38.9151L11.3634 39.293L6.18817 32.5534C6.10326 32.4428 6.10258 32.2889 6.1865 32.1776L11.4389 25.2097L11.9319 25.5833L7.06835 32.0353L13.9161 31.8285L13.9347 32.4478L7.04667 32.6558Z" fill="url(#paint41_radial_564_5976)"/>
    <path d="M12.4152 33.4302L7.61781 40.2863C7.5429 40.3934 7.5431 40.5359 7.61832 40.6427L12.3422 47.3526C12.4643 47.5259 12.72 47.5276 12.8445 47.3561L17.7135 40.6437C17.7912 40.5366 17.7924 40.3919 17.7165 40.2836L12.921 33.4302C12.798 33.2544 12.5382 33.2544 12.4152 33.4302Z" fill="url(#paint42_linear_564_5976)"/>
    <path d="M12.4152 33.4302L7.61781 40.2863C7.5429 40.3934 7.5431 40.5359 7.61832 40.6427L12.3422 47.3526C12.4643 47.5259 12.72 47.5276 12.8445 47.3561L17.7135 40.6437C17.7912 40.5366 17.7924 40.3919 17.7165 40.2836L12.921 33.4302C12.798 33.2544 12.5382 33.2544 12.4152 33.4302Z" fill="url(#paint43_linear_564_5976)"/>
    <path d="M12.6678 33.3013L7.63336 40.437L0.231934 40.7361L5.45427 33.6375L12.6678 33.3013Z" fill="url(#paint44_linear_564_5976)"/>
    <path d="M0.270508 40.8274L7.67072 40.5288L12.6292 47.5046L5.49195 47.6537L0.270508 40.8274Z" fill="url(#paint45_linear_564_5976)"/>
    <path d="M0.270508 40.8274L7.67072 40.5288L12.6292 47.5046L5.49195 47.6537L0.270508 40.8274Z" fill="url(#paint46_linear_564_5976)"/>
    <path d="M0.270508 40.8274L7.67072 40.5288L12.6292 47.5046L5.49195 47.6537L0.270508 40.8274Z" fill="url(#paint47_linear_564_5976)"/>
    <path fill-rule="evenodd" clip-rule="evenodd" d="M1.15458 41.0249L5.96092 47.2842L5.47129 47.6622L0.296083 40.9225C0.211175 40.8119 0.210491 40.6581 0.294413 40.5467L5.54685 33.5789L6.03983 33.9524L1.17626 40.4044L8.02404 40.1977L8.04264 40.8169L1.15458 41.0249Z" fill="url(#paint48_radial_564_5976)"/>
    <path d="M18.3073 8.56862L13.5099 15.4247C13.435 15.5317 13.4352 15.6744 13.5104 15.7812L18.2343 22.491C18.3563 22.6643 18.6121 22.6661 18.7366 22.4946L23.6056 15.7821C23.6832 15.675 23.6845 15.5303 23.6086 15.422L18.8131 8.56862C18.6901 8.39282 18.4303 8.39282 18.3073 8.56862Z" fill="url(#paint49_linear_564_5976)"/>
    <path d="M18.3073 8.56862L13.5099 15.4247C13.435 15.5317 13.4352 15.6744 13.5104 15.7812L18.2343 22.491C18.3563 22.6643 18.6121 22.6661 18.7366 22.4946L23.6056 15.7821C23.6832 15.675 23.6845 15.5303 23.6086 15.422L18.8131 8.56862C18.6901 8.39282 18.4303 8.39282 18.3073 8.56862Z" fill="url(#paint50_linear_564_5976)"/>
    <path d="M18.5599 8.4397L13.5255 15.5755L6.12402 15.8744L11.3464 8.77594L18.5599 8.4397Z" fill="url(#paint51_linear_564_5976)"/>
    <path d="M6.1626 15.9657L13.5628 15.6672L18.5212 22.6429L11.384 22.7921L6.1626 15.9657Z" fill="url(#paint52_linear_564_5976)"/>
    <path d="M6.1626 15.9657L13.5628 15.6672L18.5212 22.6429L11.384 22.7921L6.1626 15.9657Z" fill="url(#paint53_linear_564_5976)"/>
    <path d="M6.1626 15.9657L13.5628 15.6672L18.5212 22.6429L11.384 22.7921L6.1626 15.9657Z" fill="url(#paint54_linear_564_5976)"/>
    <path fill-rule="evenodd" clip-rule="evenodd" d="M7.04667 16.1634L11.853 22.4228L11.3634 22.8007L6.18817 16.061C6.10326 15.9504 6.10258 15.7965 6.1865 15.6852L11.4389 8.71729L11.9319 9.09085L7.06835 15.5429L13.9161 15.3362L13.9347 15.9555L7.04667 16.1634Z" fill="url(#paint55_radial_564_5976)"/>
    <path d="M12.4152 0.445586L7.61781 7.30162C7.5429 7.40868 7.5431 7.55135 7.61832 7.65818L12.3422 14.3679C12.4643 14.5413 12.72 14.5431 12.8445 14.3715L17.7135 7.65904C17.7912 7.55199 17.7924 7.4073 17.7165 7.29892L12.921 0.445586C12.798 0.269766 12.5382 0.269766 12.4152 0.445586Z" fill="url(#paint56_linear_564_5976)"/>
    <path d="M12.4152 0.445586L7.61781 7.30162C7.5429 7.40868 7.5431 7.55135 7.61832 7.65818L12.3422 14.3679C12.4643 14.5413 12.72 14.5431 12.8445 14.3715L17.7135 7.65904C17.7912 7.55199 17.7924 7.4073 17.7165 7.29892L12.921 0.445586C12.798 0.269766 12.5382 0.269766 12.4152 0.445586Z" fill="url(#paint57_linear_564_5976)"/>
    <path d="M12.6678 0.31665L7.63336 7.45245L0.231934 7.75133L5.45427 0.652892L12.6678 0.31665Z" fill="url(#paint58_linear_564_5976)"/>
    <path d="M0.270508 7.84263L7.67072 7.54419L12.6292 14.5199L5.49195 14.6691L0.270508 7.84263Z" fill="url(#paint59_linear_564_5976)"/>
    <path d="M0.270508 7.84263L7.67072 7.54419L12.6292 14.5199L5.49195 14.6691L0.270508 7.84263Z" fill="url(#paint60_linear_564_5976)"/>
    <path d="M0.270508 7.84263L7.67072 7.54419L12.6292 14.5199L5.49195 14.6691L0.270508 7.84263Z" fill="url(#paint61_linear_564_5976)"/>
    <path fill-rule="evenodd" clip-rule="evenodd" d="M1.15458 8.04036L5.96092 14.2997L5.47128 14.6777L0.296083 7.93793C0.211175 7.82736 0.210491 7.67351 0.294413 7.56218L5.54685 0.594238L6.03983 0.967799L1.17625 7.41986L8.02404 7.2132L8.04263 7.83248L1.15458 8.04036Z" fill="url(#paint62_radial_564_5976)"/>
    <path fill-rule="evenodd" clip-rule="evenodd" d="M35.9383 0.361113C35.8153 0.185293 35.5555 0.185293 35.4325 0.361113L30.635 7.21715C30.5602 7.32418 30.5604 7.46688 30.6355 7.57371L35.3594 14.2835C35.4814 14.4568 35.7372 14.4586 35.8617 14.287L40.7306 7.57457C40.8084 7.46752 40.8097 7.32283 40.7338 7.21444L35.9383 0.361113ZM30.2223 8.6477C30.0993 8.4719 29.8396 8.4719 29.7163 8.6477L24.9191 15.5037C24.8442 15.6108 24.8445 15.7535 24.9196 15.8603L29.6434 22.5701C29.7654 22.7434 30.0213 22.7452 30.1457 22.5736L35.0147 15.8612C35.0925 15.7541 35.0937 15.6094 35.0179 15.501L30.2223 8.6477ZM30.6355 40.3325C30.5604 40.2256 30.5602 40.0831 30.635 39.976L35.4325 33.1199C35.5555 32.9442 35.8153 32.9442 35.9383 33.1199L40.7338 39.9733C40.8097 40.0816 40.8084 40.2264 40.7306 40.3335L35.8617 47.0458C35.7372 47.2174 35.4814 47.2157 35.3594 47.0424L30.6355 40.3325ZM30.2223 24.9112C30.0993 24.7352 29.8393 24.7352 29.7163 24.9112L24.9191 31.7671C24.8442 31.8741 24.8442 32.0169 24.9196 32.1237L29.6434 38.8334C29.7654 39.0067 30.0213 39.0087 30.1457 38.8371L35.0147 32.1245C35.0925 32.0174 35.0937 31.8729 35.0179 31.7644L30.2223 24.9112ZM19.2038 23.9146C19.1286 23.8077 19.1284 23.6651 19.2033 23.558L24.0007 16.702C24.1237 16.5261 24.3835 16.5261 24.5065 16.702L29.3019 23.5553C29.3778 23.6637 29.3766 23.8084 29.299 23.9154L24.43 30.6279C24.3055 30.7994 24.0497 30.7977 23.9277 30.6244L19.2038 23.9146ZM18.7905 25.066C18.6675 24.89 18.4077 24.89 18.2847 25.066L13.4873 31.9219C13.4124 32.029 13.4126 32.1717 13.4878 32.2786L18.2117 38.9882C18.3337 39.1615 18.5895 39.1635 18.714 38.9919L23.583 32.2793C23.6606 32.1722 23.6618 32.0277 23.586 31.9192L18.7905 25.066ZM7.6169 40.286L12.4143 33.4298C12.5373 33.2541 12.7971 33.2541 12.9201 33.4298L17.7156 40.2832C17.7915 40.3916 17.7902 40.5363 17.7126 40.6434L12.8436 47.3557C12.7191 47.5273 12.4633 47.5256 12.3413 47.3523L7.61741 40.6424C7.54219 40.5356 7.54199 40.393 7.6169 40.286ZM18.7131 8.64765C18.59 8.47182 18.3302 8.47182 18.2072 8.64765L13.4098 15.5037C13.3349 15.6107 13.3351 15.7534 13.4103 15.8602L18.1343 22.57C18.2563 22.7433 18.5121 22.7452 18.6365 22.5736L23.5055 15.8611C23.5832 15.7541 23.5844 15.6093 23.5086 15.501L18.7131 8.64765ZM7.5402 7.72876C7.46498 7.62193 7.46478 7.47923 7.53968 7.37218L12.3371 0.51616C12.4601 0.340342 12.7199 0.340342 12.8429 0.51616L17.6384 7.3695C17.7143 7.47785 17.713 7.62257 17.6354 7.72962L12.7664 14.4421C12.6419 14.6137 12.3861 14.6119 12.2641 14.4385L7.5402 7.72876Z" fill="url(#paint63_linear_564_5976)"/>
  </g>
  <defs>
    <linearGradient id="paint0_linear_564_5976" x1="39.4535" y1="7.44136" x2="30.3132" y2="4.74168" gradientUnits="userSpaceOnUse">
      <stop offset="0.120691" stop-color="#008FC7"/>
      <stop offset="1" stop-color="#D4A9FF" stop-opacity="0.33"/>
    </linearGradient>
    <linearGradient id="paint1_linear_564_5976" x1="39.5305" y1="1.7879" x2="26.5135" y2="10.3138" gradientUnits="userSpaceOnUse">
      <stop offset="0.0364583" stop-color="#E7C0FF"/>
      <stop offset="0.729167" stop-color="#4D73FC" stop-opacity="0.99"/>
    </linearGradient>
    <linearGradient id="paint2_linear_564_5976" x1="31.575" y1="7.78869" x2="25.9583" y2="1.03665" gradientUnits="userSpaceOnUse">
      <stop stop-color="#942CE6" stop-opacity="0"/>
      <stop offset="0.647437" stop-color="#0F46D3"/>
    </linearGradient>
    <linearGradient id="paint3_linear_564_5976" x1="32.1009" y1="15.3405" x2="30.8152" y2="5.38546" gradientUnits="userSpaceOnUse">
      <stop offset="0.0979904" stop-color="#1F1CB5"/>
      <stop offset="0.952287" stop-color="#1F1CB5" stop-opacity="0"/>
    </linearGradient>
    <linearGradient id="paint4_linear_564_5976" x1="30.1" y1="15.7793" x2="29.8532" y2="6.54856" gradientUnits="userSpaceOnUse">
      <stop stop-color="#FF994F"/>
      <stop offset="0.306945" stop-color="#FF994F" stop-opacity="0"/>
    </linearGradient>
    <linearGradient id="paint5_linear_564_5976" x1="26.1718" y1="13.0716" x2="36.8691" y2="5.84717" gradientUnits="userSpaceOnUse">
      <stop stop-color="#FF994F"/>
      <stop offset="0.306945" stop-color="#FF994F" stop-opacity="0"/>
    </linearGradient>
    <radialGradient id="paint6_radial_564_5976" cx="0" cy="0" r="1" gradientUnits="userSpaceOnUse" gradientTransform="translate(24.7012 8.70996) rotate(72.1632) scale(16.1329 5.90499)">
      <stop stop-color="#49B3FF"/>
      <stop offset="0.828125" stop-color="#49B3FF" stop-opacity="0"/>
    </radialGradient>
    <linearGradient id="paint7_linear_564_5976" x1="33.5614" y1="15.5644" x2="24.4212" y2="12.8647" gradientUnits="userSpaceOnUse">
      <stop offset="0.120691" stop-color="#008FC7"/>
      <stop offset="1" stop-color="#D4A9FF" stop-opacity="0.33"/>
    </linearGradient>
    <linearGradient id="paint8_linear_564_5976" x1="33.6385" y1="9.91095" x2="20.6215" y2="18.4368" gradientUnits="userSpaceOnUse">
      <stop offset="0.0364583" stop-color="#E7C0FF"/>
      <stop offset="0.729167" stop-color="#4D73FC" stop-opacity="0.99"/>
    </linearGradient>
    <linearGradient id="paint9_linear_564_5976" x1="25.683" y1="15.9117" x2="20.0662" y2="9.15971" gradientUnits="userSpaceOnUse">
      <stop stop-color="#942CE6" stop-opacity="0"/>
      <stop offset="0.647437" stop-color="#0F46D3"/>
    </linearGradient>
    <linearGradient id="paint10_linear_564_5976" x1="26.2085" y1="23.4636" x2="24.9228" y2="13.5085" gradientUnits="userSpaceOnUse">
      <stop offset="0.0979904" stop-color="#1F1CB5"/>
      <stop offset="0.952287" stop-color="#1F1CB5" stop-opacity="0"/>
    </linearGradient>
    <linearGradient id="paint11_linear_564_5976" x1="24.2076" y1="23.9023" x2="23.9608" y2="14.6716" gradientUnits="userSpaceOnUse">
      <stop stop-color="#FF994F"/>
      <stop offset="0.306945" stop-color="#FF994F" stop-opacity="0"/>
    </linearGradient>
    <linearGradient id="paint12_linear_564_5976" x1="20.2794" y1="21.1946" x2="30.9767" y2="13.9702" gradientUnits="userSpaceOnUse">
      <stop stop-color="#FF994F"/>
      <stop offset="0.306945" stop-color="#FF994F" stop-opacity="0"/>
    </linearGradient>
    <radialGradient id="paint13_radial_564_5976" cx="0" cy="0" r="1" gradientUnits="userSpaceOnUse" gradientTransform="translate(18.8089 16.833) rotate(72.1632) scale(16.1329 5.90499)">
      <stop stop-color="#49B3FF"/>
      <stop offset="0.828125" stop-color="#49B3FF" stop-opacity="0"/>
    </radialGradient>
    <linearGradient id="paint14_linear_564_5976" x1="39.4535" y1="40.18" x2="30.3132" y2="37.4802" gradientUnits="userSpaceOnUse">
      <stop offset="0.120691" stop-color="#008FC7"/>
      <stop offset="1" stop-color="#D4A9FF" stop-opacity="0.33"/>
    </linearGradient>
    <linearGradient id="paint15_linear_564_5976" x1="39.5305" y1="34.5263" x2="26.5135" y2="43.0523" gradientUnits="userSpaceOnUse">
      <stop offset="0.0364583" stop-color="#E7C0FF"/>
      <stop offset="0.729167" stop-color="#4D73FC" stop-opacity="0.99"/>
    </linearGradient>
    <linearGradient id="paint16_linear_564_5976" x1="31.575" y1="40.5269" x2="25.9583" y2="33.7749" gradientUnits="userSpaceOnUse">
      <stop stop-color="#942CE6" stop-opacity="0"/>
      <stop offset="0.647437" stop-color="#0F46D3"/>
    </linearGradient>
    <linearGradient id="paint17_linear_564_5976" x1="32.1009" y1="48.0789" x2="30.8152" y2="38.1238" gradientUnits="userSpaceOnUse">
      <stop offset="0.0979904" stop-color="#1F1CB5"/>
      <stop offset="0.952287" stop-color="#1F1CB5" stop-opacity="0"/>
    </linearGradient>
    <linearGradient id="paint18_linear_564_5976" x1="30.1" y1="48.5178" x2="29.8532" y2="39.2871" gradientUnits="userSpaceOnUse">
      <stop stop-color="#FF994F"/>
      <stop offset="0.306945" stop-color="#FF994F" stop-opacity="0"/>
    </linearGradient>
    <linearGradient id="paint19_linear_564_5976" x1="26.1718" y1="45.8101" x2="36.8691" y2="38.5855" gradientUnits="userSpaceOnUse">
      <stop stop-color="#FF994F"/>
      <stop offset="0.306945" stop-color="#FF994F" stop-opacity="0"/>
    </linearGradient>
    <radialGradient id="paint20_radial_564_5976" cx="0" cy="0" r="1" gradientUnits="userSpaceOnUse" gradientTransform="translate(24.7012 41.4484) rotate(72.1632) scale(16.1329 5.90499)">
      <stop stop-color="#49B3FF"/>
      <stop offset="0.828125" stop-color="#49B3FF" stop-opacity="0"/>
    </radialGradient>
    <linearGradient id="paint21_linear_564_5976" x1="33.5614" y1="31.8106" x2="24.4212" y2="29.1108" gradientUnits="userSpaceOnUse">
      <stop offset="0.120691" stop-color="#008FC7"/>
      <stop offset="1" stop-color="#D4A9FF" stop-opacity="0.33"/>
    </linearGradient>
    <linearGradient id="paint22_linear_564_5976" x1="33.6385" y1="26.157" x2="20.6215" y2="34.6829" gradientUnits="userSpaceOnUse">
      <stop offset="0.0364583" stop-color="#E7C0FF"/>
      <stop offset="0.729167" stop-color="#4D73FC" stop-opacity="0.99"/>
    </linearGradient>
    <linearGradient id="paint23_linear_564_5976" x1="25.683" y1="32.1578" x2="20.0662" y2="25.4057" gradientUnits="userSpaceOnUse">
      <stop stop-color="#942CE6" stop-opacity="0"/>
      <stop offset="0.647437" stop-color="#0F46D3"/>
    </linearGradient>
    <linearGradient id="paint24_linear_564_5976" x1="26.2085" y1="39.7098" x2="24.9228" y2="29.7547" gradientUnits="userSpaceOnUse">
      <stop offset="0.0979904" stop-color="#1F1CB5"/>
      <stop offset="0.952287" stop-color="#1F1CB5" stop-opacity="0"/>
    </linearGradient>
    <linearGradient id="paint25_linear_564_5976" x1="24.2076" y1="40.1487" x2="23.9608" y2="30.9179" gradientUnits="userSpaceOnUse">
      <stop stop-color="#FF994F"/>
      <stop offset="0.306945" stop-color="#FF994F" stop-opacity="0"/>
    </linearGradient>
    <linearGradient id="paint26_linear_564_5976" x1="20.2794" y1="37.441" x2="30.9767" y2="30.2163" gradientUnits="userSpaceOnUse">
      <stop stop-color="#FF994F"/>
      <stop offset="0.306945" stop-color="#FF994F" stop-opacity="0"/>
    </linearGradient>
    <radialGradient id="paint27_radial_564_5976" cx="0" cy="0" r="1" gradientUnits="userSpaceOnUse" gradientTransform="translate(18.8089 33.079) rotate(72.1632) scale(16.1329 5.90499)">
      <stop stop-color="#49B3FF"/>
      <stop offset="0.828125" stop-color="#49B3FF" stop-opacity="0"/>
    </radialGradient>
    <linearGradient id="paint28_linear_564_5976" x1="27.9146" y1="23.6875" x2="18.7744" y2="20.9878" gradientUnits="userSpaceOnUse">
      <stop offset="0.120691" stop-color="#008FC7"/>
      <stop offset="1" stop-color="#D4A9FF" stop-opacity="0.33"/>
    </linearGradient>
    <linearGradient id="paint29_linear_564_5976" x1="27.9917" y1="18.034" x2="14.9747" y2="26.5599" gradientUnits="userSpaceOnUse">
      <stop offset="0.0364583" stop-color="#E7C0FF"/>
      <stop offset="0.729167" stop-color="#4D73FC" stop-opacity="0.99"/>
    </linearGradient>
    <linearGradient id="paint30_linear_564_5976" x1="20.0363" y1="24.0348" x2="14.4195" y2="17.2828" gradientUnits="userSpaceOnUse">
      <stop stop-color="#942CE6" stop-opacity="0"/>
      <stop offset="0.647437" stop-color="#0F46D3"/>
    </linearGradient>
    <linearGradient id="paint31_linear_564_5976" x1="20.5618" y1="31.5866" x2="19.276" y2="21.6316" gradientUnits="userSpaceOnUse">
      <stop offset="0.0979904" stop-color="#1F1CB5"/>
      <stop offset="0.952287" stop-color="#1F1CB5" stop-opacity="0"/>
    </linearGradient>
    <linearGradient id="paint32_linear_564_5976" x1="18.5608" y1="32.0255" x2="18.314" y2="22.7947" gradientUnits="userSpaceOnUse">
      <stop stop-color="#FF994F"/>
      <stop offset="0.306945" stop-color="#FF994F" stop-opacity="0"/>
    </linearGradient>
    <linearGradient id="paint33_linear_564_5976" x1="14.6327" y1="29.3178" x2="25.33" y2="22.0933" gradientUnits="userSpaceOnUse">
      <stop stop-color="#FF994F"/>
      <stop offset="0.306945" stop-color="#FF994F" stop-opacity="0"/>
    </linearGradient>
    <radialGradient id="paint34_radial_564_5976" cx="0" cy="0" r="1" gradientUnits="userSpaceOnUse" gradientTransform="translate(13.1622 24.956) rotate(72.1632) scale(16.1329 5.90499)">
      <stop stop-color="#49B3FF"/>
      <stop offset="0.828125" stop-color="#49B3FF" stop-opacity="0"/>
    </radialGradient>
    <linearGradient id="paint35_linear_564_5976" x1="22.2678" y1="32.057" x2="13.1277" y2="29.3571" gradientUnits="userSpaceOnUse">
      <stop offset="0.120691" stop-color="#008FC7"/>
      <stop offset="1" stop-color="#D4A9FF" stop-opacity="0.33"/>
    </linearGradient>
    <linearGradient id="paint36_linear_564_5976" x1="22.3451" y1="26.4033" x2="9.328" y2="34.9292" gradientUnits="userSpaceOnUse">
      <stop offset="0.0364583" stop-color="#E7C0FF"/>
      <stop offset="0.729167" stop-color="#4D73FC" stop-opacity="0.99"/>
    </linearGradient>
    <linearGradient id="paint37_linear_564_5976" x1="14.3896" y1="32.4039" x2="8.77277" y2="25.6518" gradientUnits="userSpaceOnUse">
      <stop stop-color="#942CE6" stop-opacity="0"/>
      <stop offset="0.647437" stop-color="#0F46D3"/>
    </linearGradient>
    <linearGradient id="paint38_linear_564_5976" x1="14.9151" y1="39.9559" x2="13.6293" y2="30.0008" gradientUnits="userSpaceOnUse">
      <stop offset="0.0979904" stop-color="#1F1CB5"/>
      <stop offset="0.952287" stop-color="#1F1CB5" stop-opacity="0"/>
    </linearGradient>
    <linearGradient id="paint39_linear_564_5976" x1="12.9141" y1="40.3947" x2="12.6673" y2="31.164" gradientUnits="userSpaceOnUse">
      <stop stop-color="#FF994F"/>
      <stop offset="0.306945" stop-color="#FF994F" stop-opacity="0"/>
    </linearGradient>
    <linearGradient id="paint40_linear_564_5976" x1="8.98595" y1="37.6871" x2="19.6832" y2="30.4624" gradientUnits="userSpaceOnUse">
      <stop stop-color="#FF994F"/>
      <stop offset="0.306945" stop-color="#FF994F" stop-opacity="0"/>
    </linearGradient>
    <radialGradient id="paint41_radial_564_5976" cx="0" cy="0" r="1" gradientUnits="userSpaceOnUse" gradientTransform="translate(7.51544 33.3254) rotate(72.1632) scale(16.1329 5.90499)">
      <stop stop-color="#49B3FF"/>
      <stop offset="0.828125" stop-color="#49B3FF" stop-opacity="0"/>
    </radialGradient>
    <linearGradient id="paint42_linear_564_5976" x1="16.3757" y1="40.4261" x2="7.2356" y2="37.7263" gradientUnits="userSpaceOnUse">
      <stop offset="0.120691" stop-color="#008FC7"/>
      <stop offset="1" stop-color="#D4A9FF" stop-opacity="0.33"/>
    </linearGradient>
    <linearGradient id="paint43_linear_564_5976" x1="16.453" y1="34.7724" x2="3.43591" y2="43.2984" gradientUnits="userSpaceOnUse">
      <stop offset="0.0364583" stop-color="#E7C0FF"/>
      <stop offset="0.729167" stop-color="#4D73FC" stop-opacity="0.99"/>
    </linearGradient>
    <linearGradient id="paint44_linear_564_5976" x1="8.4975" y1="40.7733" x2="2.88067" y2="34.0212" gradientUnits="userSpaceOnUse">
      <stop stop-color="#942CE6" stop-opacity="0"/>
      <stop offset="0.647437" stop-color="#0F46D3"/>
    </linearGradient>
    <linearGradient id="paint45_linear_564_5976" x1="9.02301" y1="48.3252" x2="7.73719" y2="38.3702" gradientUnits="userSpaceOnUse">
      <stop offset="0.0979904" stop-color="#1F1CB5"/>
      <stop offset="0.952287" stop-color="#1F1CB5" stop-opacity="0"/>
    </linearGradient>
    <linearGradient id="paint46_linear_564_5976" x1="7.02201" y1="48.7641" x2="6.77522" y2="39.5334" gradientUnits="userSpaceOnUse">
      <stop stop-color="#FF994F"/>
      <stop offset="0.306945" stop-color="#FF994F" stop-opacity="0"/>
    </linearGradient>
    <linearGradient id="paint47_linear_564_5976" x1="3.09387" y1="46.0564" x2="13.7911" y2="38.8318" gradientUnits="userSpaceOnUse">
      <stop stop-color="#FF994F"/>
      <stop offset="0.306945" stop-color="#FF994F" stop-opacity="0"/>
    </linearGradient>
    <radialGradient id="paint48_radial_564_5976" cx="0" cy="0" r="1" gradientUnits="userSpaceOnUse" gradientTransform="translate(1.62335 41.6945) rotate(72.1632) scale(16.1329 5.90499)">
      <stop stop-color="#49B3FF"/>
      <stop offset="0.828125" stop-color="#49B3FF" stop-opacity="0"/>
    </radialGradient>
    <linearGradient id="paint49_linear_564_5976" x1="22.2678" y1="15.5644" x2="13.1277" y2="12.8647" gradientUnits="userSpaceOnUse">
      <stop offset="0.120691" stop-color="#008FC7"/>
      <stop offset="1" stop-color="#D4A9FF" stop-opacity="0.33"/>
    </linearGradient>
    <linearGradient id="paint50_linear_564_5976" x1="22.3451" y1="9.91095" x2="9.328" y2="18.4368" gradientUnits="userSpaceOnUse">
      <stop offset="0.0364583" stop-color="#E7C0FF"/>
      <stop offset="0.729167" stop-color="#4D73FC" stop-opacity="0.99"/>
    </linearGradient>
    <linearGradient id="paint51_linear_564_5976" x1="14.3896" y1="15.9117" x2="8.77277" y2="9.1597" gradientUnits="userSpaceOnUse">
      <stop stop-color="#942CE6" stop-opacity="0"/>
      <stop offset="0.647437" stop-color="#0F46D3"/>
    </linearGradient>
    <linearGradient id="paint52_linear_564_5976" x1="14.9151" y1="23.4636" x2="13.6293" y2="13.5085" gradientUnits="userSpaceOnUse">
      <stop offset="0.0979904" stop-color="#1F1CB5"/>
      <stop offset="0.952287" stop-color="#1F1CB5" stop-opacity="0"/>
    </linearGradient>
    <linearGradient id="paint53_linear_564_5976" x1="12.9141" y1="23.9023" x2="12.6673" y2="14.6716" gradientUnits="userSpaceOnUse">
      <stop stop-color="#FF994F"/>
      <stop offset="0.306945" stop-color="#FF994F" stop-opacity="0"/>
    </linearGradient>
    <linearGradient id="paint54_linear_564_5976" x1="8.98595" y1="21.1946" x2="19.6832" y2="13.9702" gradientUnits="userSpaceOnUse">
      <stop stop-color="#FF994F"/>
      <stop offset="0.306945" stop-color="#FF994F" stop-opacity="0"/>
    </linearGradient>
    <radialGradient id="paint55_radial_564_5976" cx="0" cy="0" r="1" gradientUnits="userSpaceOnUse" gradientTransform="translate(7.51544 16.833) rotate(72.1632) scale(16.1329 5.90499)">
      <stop stop-color="#49B3FF"/>
      <stop offset="0.828125" stop-color="#49B3FF" stop-opacity="0"/>
    </radialGradient>
    <linearGradient id="paint56_linear_564_5976" x1="16.3757" y1="7.44136" x2="7.2356" y2="4.74168" gradientUnits="userSpaceOnUse">
      <stop offset="0.120691" stop-color="#008FC7"/>
      <stop offset="1" stop-color="#D4A9FF" stop-opacity="0.33"/>
    </linearGradient>
    <linearGradient id="paint57_linear_564_5976" x1="16.453" y1="1.7879" x2="3.43591" y2="10.3138" gradientUnits="userSpaceOnUse">
      <stop offset="0.0364583" stop-color="#E7C0FF"/>
      <stop offset="0.729167" stop-color="#4D73FC" stop-opacity="0.99"/>
    </linearGradient>
    <linearGradient id="paint58_linear_564_5976" x1="8.4975" y1="7.78869" x2="2.88067" y2="1.03666" gradientUnits="userSpaceOnUse">
      <stop stop-color="#942CE6" stop-opacity="0"/>
      <stop offset="0.647437" stop-color="#0F46D3"/>
    </linearGradient>
    <linearGradient id="paint59_linear_564_5976" x1="9.02301" y1="15.3405" x2="7.73719" y2="5.38546" gradientUnits="userSpaceOnUse">
      <stop offset="0.0979904" stop-color="#1F1CB5"/>
      <stop offset="0.952287" stop-color="#1F1CB5" stop-opacity="0"/>
    </linearGradient>
    <linearGradient id="paint60_linear_564_5976" x1="7.02201" y1="15.7793" x2="6.77522" y2="6.54856" gradientUnits="userSpaceOnUse">
      <stop stop-color="#FF994F"/>
      <stop offset="0.306945" stop-color="#FF994F" stop-opacity="0"/>
    </linearGradient>
    <linearGradient id="paint61_linear_564_5976" x1="3.09387" y1="13.0716" x2="13.7911" y2="5.84717" gradientUnits="userSpaceOnUse">
      <stop stop-color="#FF994F"/>
      <stop offset="0.306945" stop-color="#FF994F" stop-opacity="0"/>
    </linearGradient>
    <radialGradient id="paint62_radial_564_5976" cx="0" cy="0" r="1" gradientUnits="userSpaceOnUse" gradientTransform="translate(1.62335 8.70996) rotate(72.1632) scale(16.1329 5.90499)">
      <stop stop-color="#49B3FF"/>
      <stop offset="0.828125" stop-color="#49B3FF" stop-opacity="0"/>
    </radialGradient>
    <linearGradient id="paint63_linear_564_5976" x1="33.7901" y1="1.80183" x2="16.3045" y2="45.8344" gradientUnits="userSpaceOnUse">
      <stop stop-color="#CAB9FF" stop-opacity="0.99"/>
      <stop offset="0.458333" stop-color="#B098F9"/>
      <stop offset="0.880208" stop-color="#7599F5"/>
    </linearGradient>
    <clipPath id="clip0_564_5976">
      <rect width="41" height="48" fill="white"/>
    </clipPath>
  </defs>
</svg>